<?xml version="1.0" standalone="no"?>
<!DOCTYPE svg PUBLIC "-//W3C//DTD SVG 1.1//EN" "http://www.w3.org/Graphics/SVG/1.1/DTD/svg11.dtd" >
<svg xmlns="http://www.w3.org/2000/svg" xmlns:xlink="http://www.w3.org/1999/xlink" version="1.1">
<metadata>
Created by FontForge 20170924 at Wed Jan  6 16:09:17 2016
 By www-data
Copyright (c) 2014 by Gumpita Rahayu. All rights reserved.
</metadata>
<defs>
<font id="Catesque-Medium" horiz-adv-x="691" >
  <font-face 
    font-family="Catesque-Medium"
    font-weight="400"
    font-stretch="normal"
    units-per-em="1000"
    panose-1="2 0 6 3 3 0 0 2 0 4"
    ascent="760"
    descent="-240"
    x-height="502"
    cap-height="684"
    bbox="-114 -231 1234 917"
    underline-thickness="50"
    underline-position="-150"
    unicode-range="U+0020-FB04"
  />
<missing-glyph horiz-adv-x="600" 
d="M50 -177h500v882h-500v-882zM106 -121v770h388v-770h-388z" />
    <glyph glyph-name="f_f" unicode="ff" horiz-adv-x="758" 
d="M342 502h-107v60q0 37 6 57t31 20q28 2 58 -15l29 83q-32 16 -53 20.5t-49 5.5q-41 0 -67.5 -10t-42 -30.5t-21 -52t-5.5 -73.5v-65h-70v-83h70v-419h114v419h107v83zM708 502h-107v60q0 37 6 57t31 20q12 1 27.5 -3t29.5 -12l30 83q-32 16 -53 20.5t-49 5.5
q-41 0 -67.5 -10t-42 -30.5t-21 -52t-5.5 -73.5v-65h-70v-83h70v-419h114v419h107v83z" />
    <glyph glyph-name="f_f_i" unicode="ffi" horiz-adv-x="991" 
d="M342 502h-107v60q0 37 6 57t31 20q28 2 58 -15l29 83q-32 16 -53 20.5t-49 5.5q-41 0 -67.5 -10t-42 -30.5t-21 -52t-5.5 -73.5v-65h-70v-83h70v-419h114v419h107v83zM713 502h-107v60q0 37 6 57t31 20q12 1 27.5 -3t29.5 -12l30 83q-32 16 -53 20.5t-49 5.5
q-41 0 -67.5 -10t-42 -30.5t-21 -52t-5.5 -73.5v-65h-70v-83h70v-419h114v419h107v83zM801 639q0 -29 18.5 -47.5t47.5 -18.5t48 18.5t19 47.5t-19 48t-48 19t-47.5 -19t-18.5 -48zM810 0h114v502h-114v-502z" />
    <glyph glyph-name="f_f_l" unicode="ffl" horiz-adv-x="985" 
d="M342 502h-107v60q0 37 6 57t31 20q28 2 58 -15l29 83q-32 16 -53 20.5t-49 5.5q-41 0 -67.5 -10t-42 -30.5t-21 -52t-5.5 -73.5v-65h-70v-83h70v-419h114v419h107v83zM713 502h-107v60q0 37 6 57t31 20q12 1 27.5 -3t29.5 -12l30 83q-32 16 -53 20.5t-49 5.5
q-41 0 -67.5 -10t-42 -30.5t-21 -52t-5.5 -73.5v-65h-70v-83h70v-419h114v419h107v83zM817 0h114v720h-114v-720z" />
    <glyph glyph-name="fi" unicode="fi" horiz-adv-x="638" 
d="M347 502h-107v60q0 37 6 57t31 20q12 1 27.5 -3t29.5 -12l30 83q-32 16 -53 20.5t-49 5.5q-41 0 -67.5 -10t-42 -30.5t-21 -52t-5.5 -73.5v-65h-70v-83h70v-419h114v419h107v83zM436 644q0 -31 20 -51t51 -20t51.5 20t20.5 51t-20.5 51.5t-51.5 20.5t-51 -20.5t-20 -51.5
zM450 0h114v502h-114v-502z" />
    <glyph glyph-name="fl" unicode="fl" horiz-adv-x="613" 
d="M359 707q-32 16 -53 20.5t-49 5.5q-41 0 -67.5 -10t-42 -30.5t-21 -52t-5.5 -73.5v-65h-70v-83h70v-419h114v419h107v83h-107v60q0 37 6 57t31 20q28 2 58 -15zM558 720h-114v-720h114v720z" />
    <glyph glyph-name=".notdef" horiz-adv-x="600" 
d="M50 -177h500v882h-500v-882zM106 -121v770h388v-770h-388z" />
    <glyph glyph-name=".null" horiz-adv-x="0" 
 />
    <glyph glyph-name="nonmarkingreturn" horiz-adv-x="277" 
 />
    <glyph glyph-name="space" unicode=" " horiz-adv-x="277" 
 />
    <glyph glyph-name="space" unicode="&#xa0;" horiz-adv-x="277" 
 />
    <glyph glyph-name="exclam" unicode="!" horiz-adv-x="271" 
d="M91 190h88l13 540h-114zM64 59q0 -31 20 -51t51 -20t51.5 20t20.5 51t-20.5 51.5t-51.5 20.5t-51 -20.5t-20 -51.5z" />
    <glyph glyph-name="quotedbl" unicode="&#x22;" horiz-adv-x="409" 
d="M90 480q17 17 33 37t29 42.5t20.5 46t7.5 48.5q0 31 -20.5 51.5t-51.5 20.5t-51 -20.5t-20 -51.5q0 -29 20 -49t51 -22q-6 -11 -14 -22.5t-16 -21.5t-14.5 -16.5l-8.5 -8.5zM285 480q17 17 33 37t29 42.5t20.5 46t7.5 48.5q0 31 -20.5 51.5t-51.5 20.5t-51 -20.5
t-20 -51.5q0 -29 20 -49t51 -22q-6 -11 -14 -22.5t-16 -21.5t-14.5 -16.5l-8.5 -8.5z" />
    <glyph glyph-name="numbersign" unicode="#" horiz-adv-x="712" 
d="M642 299h-123v132h123v104h-123v195h-104v-195h-142v195h-104v-195h-123v-104h123v-132h-123v-104h123v-195h104v195h142v-195h104v195h123v104zM273 299v132h142v-132h-142z" />
    <glyph glyph-name="dollar" unicode="$" horiz-adv-x="572" 
d="M510 637q-38 26 -85 40t-104 18v59h-54v-58q-101 -5 -153 -55.5t-52 -134.5q0 -49 18.5 -81.5t48 -54.5t66 -37t72.5 -28v-213q-48 2 -84 12t-78 33l-45 -89q38 -29 91.5 -43t115.5 -16v-59h54v61q103 8 157.5 59t54.5 134q0 51 -19.5 84.5t-50 56.5t-68.5 38t-74 28v201
q41 -2 72.5 -12t71.5 -32zM267 413q-38 16 -63.5 37t-25.5 57q0 34 23.5 56t65.5 27v-177zM321 284q40 -17 68 -39.5t28 -61.5q0 -35 -26.5 -58t-69.5 -28v187z" />
    <glyph glyph-name="percent" unicode="%" horiz-adv-x="887" 
d="M152 -29h100l464 739h-100zM43 529q0 -38 9.5 -69.5t29.5 -55t51 -36.5t74 -13q44 0 75 13.5t51 36.5t29 55t9 69q0 78 -38 122.5t-126 44.5q-86 0 -125 -45t-39 -122zM128 529q0 40 17.5 67.5t61.5 27.5t62 -27.5t18 -67.5q0 -49 -17.5 -75.5t-62.5 -26.5t-62 27t-17 75
zM516 162q0 -38 9.5 -69.5t29.5 -55t51 -36.5t74 -13q44 0 75 13.5t51 36.5t29 55t9 69q0 78 -38 122.5t-126 44.5q-86 0 -125 -45t-39 -122zM601 162q0 40 17.5 67.5t61.5 27.5t62 -27.5t18 -67.5q0 -49 -17.5 -75.5t-62.5 -26.5t-62 27t-17 75z" />
    <glyph glyph-name="ampersand" unicode="&#x26;" horiz-adv-x="552" 
d="M257 413q-109 0 -109 109q0 57 28.5 83t91.5 26h72v89q-16 2 -31 2.5t-29 0.5q-247 0 -247 -195q0 -66 26.5 -107.5t77.5 -51.5q-57 -17 -87 -61t-30 -114q0 -61 22 -105.5t64 -66.5q12 -6 24 -10.5t27.5 -7t36 -3.5t50.5 -1h218v328h76v85h-76v94h-100v-94h-105zM262 90
q-66 0 -94.5 28t-28.5 90q0 120 123 120h100v-238h-100z" />
    <glyph glyph-name="quotesingle" unicode="'" horiz-adv-x="214" 
d="M90 480q17 17 33 37t29 42.5t20.5 46t7.5 48.5q0 31 -20.5 51.5t-51.5 20.5t-51 -20.5t-20 -51.5q0 -29 20 -49t51 -22q-6 -11 -14 -22.5t-16 -21.5t-14.5 -16.5l-8.5 -8.5z" />
    <glyph glyph-name="parenleft" unicode="(" horiz-adv-x="293" 
d="M232 -140q-49 105 -73 210.5t-24 227.5q0 106 23 209t76 217h-94q-60 -113 -86.5 -215t-26.5 -211t26 -217t86 -221h93z" />
    <glyph glyph-name="parenright" unicode=")" horiz-adv-x="293" 
d="M154 -140q60 113 86 221t26 217t-26.5 211t-86.5 215h-94q53 -114 76 -217t23 -209q0 -122 -24 -227.5t-73 -210.5h93z" />
    <glyph glyph-name="asterisk" unicode="*" horiz-adv-x="488" 
d="M184 553l-112 -51l37 -67l104 71l-7 -131h75l-7 131l104 -72l37 68l-112 51l112 50l-37 67l-103 -70l7 130h-75l6 -130l-102 70l-39 -66z" />
    <glyph glyph-name="plus" unicode="+" horiz-adv-x="687" 
d="M91 232h203v-212h99v212h203v96h-203v208h-99v-208h-203v-96z" />
    <glyph glyph-name="comma" unicode="," horiz-adv-x="271" 
d="M121 -116q17 17 33 37t29 42.5t20.5 46.5t7.5 49q0 31 -20.5 51.5t-51.5 20.5t-51 -20.5t-20 -51.5q0 -29 20 -49t51 -22q-6 -11 -14 -23t-16 -21.5t-14.5 -16.5t-8.5 -8z" />
    <glyph glyph-name="hyphen" unicode="-" horiz-adv-x="355" 
d="M39 193h277v96h-277v-96z" />
    <glyph glyph-name="period" unicode="." horiz-adv-x="268" 
d="M65 59q0 -31 20 -51t51 -20t51.5 20t20.5 51t-20.5 51.5t-51.5 20.5t-51 -20.5t-20 -51.5z" />
    <glyph glyph-name="slash" unicode="/" horiz-adv-x="444" 
d="M0 -69h100l359 799h-100z" />
    <glyph glyph-name="zero" unicode="0" horiz-adv-x="626" 
d="M45 348q0 -360 268 -360t268 360q0 174 -66.5 261t-201.5 87t-201.5 -87t-66.5 -261zM162 348q0 129 37 187t114 58q75 0 113 -58t38 -187q0 -135 -38 -196t-113 -61q-77 0 -114 61t-37 196z" />
    <glyph glyph-name="one" unicode="1" horiz-adv-x="446" 
d="M50 585l46 -78l121 72v-579h114v684h-114z" />
    <glyph glyph-name="two" unicode="2" horiz-adv-x="549" 
d="M42 0h458v99h-315q69 68 125.5 125t96 105.5t61.5 89.5t22 78q0 50 -17 87.5t-46 62t-68 37t-83 12.5q-145 0 -233 -59l40 -94q26 14 48.5 23.5t45 15.5t47 8.5t54.5 2.5q42 0 68 -23.5t26 -74.5q0 -33 -23 -70.5t-66 -84.5t-104 -105.5t-137 -132.5v-102z" />
    <glyph glyph-name="three" unicode="3" horiz-adv-x="553" 
d="M81 543q26 14 47 24t41 16t43 8.5t53 2.5q52 0 81.5 -21t29.5 -71q0 -49 -36 -74t-93 -25h-52v-87h55q70 0 107.5 -29.5t37.5 -86.5q0 -51 -36.5 -80t-93.5 -29q-30 0 -52.5 2.5t-43 8.5t-41.5 15.5t-47 23.5l-40 -94q45 -30 100 -44.5t127 -14.5q54 0 99 16t77.5 44
t50 67t17.5 84q0 64 -31 106t-91 58q50 16 76 49t26 86q0 52 -17.5 89.5t-48.5 61.5t-72.5 35.5t-89.5 11.5q-72 0 -125 -14.5t-98 -44.5z" />
    <glyph glyph-name="four" unicode="4" horiz-adv-x="594" 
d="M568 244h-97v440h-130l-310 -434v-100h326v-150h114v150h97v94zM141 244l216 306v-306h-216z" />
    <glyph glyph-name="five" unicode="5" horiz-adv-x="554" 
d="M169 585h318v99h-410v-413h89q12 42 43.5 58.5t72.5 16.5q58 0 90.5 -32.5t32.5 -89.5q0 -62 -35 -98t-97 -36q-28 0 -51 3t-44.5 9t-43 16t-45.5 24l-40 -94q41 -30 100.5 -45t128.5 -15q115 0 179.5 61.5t64.5 170.5q0 46 -13.5 86.5t-40.5 71t-66.5 48t-91.5 17.5
q-86 0 -141 -43v185z" />
    <glyph glyph-name="six" unicode="6" horiz-adv-x="578" 
d="M522 637q-41 28 -92.5 43.5t-130.5 15.5q-66 0 -114.5 -26t-80.5 -73t-47.5 -113t-15.5 -146q0 -350 256 -350q113 0 177 60t64 168q0 47 -15.5 89t-44.5 73.5t-70.5 50t-93.5 18.5q-56 0 -99.5 -25t-66.5 -70q0 119 38.5 180.5t116.5 61.5q30 0 52 -2.5t41.5 -8.5
t39.5 -15.5t46 -24.5zM297 91q-57 0 -91 32.5t-34 95.5q0 57 35.5 91.5t94.5 34.5q57 0 87 -32.5t30 -92.5q0 -63 -32.5 -96t-89.5 -33z" />
    <glyph glyph-name="seven" unicode="7" horiz-adv-x="541" 
d="M65 684v-99h301l-248 -585h124l246 590v94h-423z" />
    <glyph glyph-name="eight" unicode="8" horiz-adv-x="547" 
d="M32 185q0 -44 17.5 -80.5t49 -62.5t76.5 -40t99 -14t98.5 14.5t76 40.5t49 62t17.5 80q0 69 -32.5 114t-88.5 62q48 21 68.5 55.5t20.5 93.5q0 48 -16.5 83t-45 58t-66 34t-79.5 11q-39 0 -77 -11t-68 -34t-48.5 -58t-18.5 -83q0 -59 20.5 -93.5t68.5 -55.5
q-55 -17 -88 -62t-33 -114zM170 503q0 42 28.5 66.5t76.5 24.5t75 -24.5t27 -66.5q0 -50 -25.5 -76.5t-77.5 -26.5q-49 0 -76.5 27t-27.5 76zM147 205q1 57 34.5 87t91.5 30t92.5 -31t34.5 -85q0 -51 -34.5 -83t-92.5 -32q-56 0 -91 32t-35 82z" />
    <glyph glyph-name="nine" unicode="9" horiz-adv-x="566" 
d="M49 47q41 -28 92.5 -43.5t130.5 -15.5q66 0 114.5 26t80.5 73t47.5 113t15.5 146q0 350 -256 350q-113 0 -177 -60t-64 -168q0 -47 15.5 -89t44.5 -73.5t70.5 -50t93.5 -18.5q57 0 100 25t66 70q0 -118 -38.5 -180t-116.5 -62q-30 0 -52 2.5t-41.5 8.5t-40 16t-45.5 24z
M274 593q57 0 91 -32.5t34 -95.5q0 -57 -35.5 -91.5t-94.5 -34.5q-57 0 -87 32.5t-30 92.5q0 63 32.5 96t89.5 33z" />
    <glyph glyph-name="colon" unicode=":" horiz-adv-x="243" 
d="M50 409q0 -31 20 -51t51 -20t51.5 20t20.5 51t-20.5 51.5t-51.5 20.5t-51 -20.5t-20 -51.5zM50 59q0 -31 20 -51t51 -20t51.5 20t20.5 51t-20.5 51.5t-51.5 20.5t-51 -20.5t-20 -51.5z" />
    <glyph glyph-name="semicolon" unicode=";" horiz-adv-x="243" 
d="M50 409q0 -31 20 -51t51 -20t51.5 20t20.5 51t-20.5 51.5t-51.5 20.5t-51 -20.5t-20 -51.5zM103 -116q17 17 33 37t29 42.5t20.5 46.5t7.5 49q0 31 -20.5 51.5t-51.5 20.5t-51 -20.5t-20 -51.5q0 -29 20 -49t51 -22q-6 -11 -14 -23t-16 -21.5t-14.5 -16.5t-8.5 -8z" />
    <glyph glyph-name="less" unicode="&#x3c;" horiz-adv-x="643" 
d="M544 50v108l-315 142l315 142v109l-445 -221v-60z" />
    <glyph glyph-name="equal" unicode="=" horiz-adv-x="645" 
d="M540 443h-435v-96h435v96zM540 255h-435v-96h435v96z" />
    <glyph glyph-name="greater" unicode="&#x3e;" horiz-adv-x="643" 
d="M99 50l445 220v60l-445 221v-109l315 -142l-315 -142v-108z" />
    <glyph glyph-name="question" unicode="?" horiz-adv-x="532" 
d="M105 576q21 13 38.5 21.5t35.5 13.5t37.5 7.5t43.5 2.5q38 0 63.5 -20t25.5 -66q0 -31 -12.5 -53t-31 -40t-40 -35.5t-40 -40t-31 -52.5t-12.5 -74v-50h106v50q0 31 13.5 55.5t33 45t43 39.5t43 41t33 49t13.5 62q0 48 -16.5 84t-44.5 59.5t-64.5 35.5t-78.5 12
q-61 0 -111.5 -14t-86.5 -44zM164 59q0 -31 20 -51t51 -20t51.5 20t20.5 51t-20.5 51.5t-51.5 20.5t-51 -20.5t-20 -51.5z" />
    <glyph glyph-name="at" unicode="@" horiz-adv-x="933" 
d="M753 6q-64 -41 -141 -65t-153 -24q-78 0 -142.5 23.5t-110.5 67t-71 104.5t-25 137q0 84 27.5 159.5t77.5 132t120 89.5t156 33q73 0 134.5 -21t106 -59t69 -91t24.5 -117q0 -48 -11 -92.5t-30.5 -78t-45 -53.5t-54.5 -20q-22 0 -36 14t-11 49q1 6 2 16.5t6 40t15 86.5
t28 156h-96l-8 -50q-20 32 -45.5 46t-67.5 14q-48 0 -89 -18t-71 -52.5t-47 -85t-17 -116.5q0 -80 41.5 -125.5t124.5 -45.5q87 0 147 61q3 -17 15 -29q11 -11 32.5 -20t63.5 -9q43 0 81.5 26.5t67.5 70.5t45.5 101t16.5 119q0 68 -27.5 129.5t-78 108.5t-122 74.5
t-158.5 27.5q-91 0 -172 -33.5t-141.5 -95t-96 -147t-35.5 -189.5q0 -84 28 -155.5t81 -124t129 -82t172 -29.5q174 0 316 97zM429 143q-81 0 -81 107q0 42 10.5 73.5t28.5 53t42.5 32t52.5 10.5q46 0 64.5 -25t18.5 -73q0 -83 -33.5 -130.5t-102.5 -47.5z" />
    <glyph glyph-name="A" unicode="A" horiz-adv-x="651" 
d="M252 684l-239 -684h127l56 167h261l56 -167h125l-242 684h-144zM432 262h-213l104 302z" />
    <glyph glyph-name="B" unicode="B" horiz-adv-x="630" 
d="M355 0q112 0 170 50t58 149q0 64 -31 105.5t-91 54.5q44 17 67 56t23 96q0 87 -56 130t-166 43h-252v-684h278zM315 594q59 0 88.5 -22.5t29.5 -72.5q0 -58 -32.5 -82t-109.5 -24h-101v201h125zM300 313q91 0 127.5 -26.5t36.5 -83.5q0 -54 -35 -83.5t-103 -29.5h-136
v223h110z" />
    <glyph glyph-name="C" unicode="C" horiz-adv-x="657" 
d="M623 637q-52 30 -112 44.5t-141 14.5q-75 0 -134 -25.5t-100.5 -72t-63 -112.5t-21.5 -147q0 -80 20.5 -145t60 -110.5t96.5 -70.5t131 -25q49 0 86.5 3.5t68.5 11t57 18.5t52 26l-45 89q-28 -13 -51.5 -21.5t-47 -14t-49 -7.5t-57.5 -2q-103 0 -154 66t-51 182
q0 57 14 104t41.5 80.5t67.5 51.5t93 18q32 0 56 -2.5t45.5 -7.5t43 -13.5t49.5 -21.5z" />
    <glyph glyph-name="D" unicode="D" horiz-adv-x="687" 
d="M282 0q175 0 264.5 86t89.5 256t-89.5 256t-264.5 86h-205v-684h205zM290 584q116 0 173 -58.5t57 -183.5q0 -242 -230 -242h-100v484h100z" />
    <glyph glyph-name="E" unicode="E" horiz-adv-x="564" 
d="M191 302h300v94h-300v189h325v99h-439v-684h453v99h-339v203z" />
    <glyph glyph-name="F" unicode="F" horiz-adv-x="533" 
d="M491 396h-300v189h325v99h-439v-684h114v302h300v94z" />
    <glyph glyph-name="G" unicode="G" horiz-adv-x="674" 
d="M623 637q-52 30 -112 44.5t-141 14.5q-75 0 -134 -25.5t-100.5 -72t-63 -112.5t-21.5 -147q0 -80 20.5 -145t60 -110.5t96.5 -70.5t131 -25q49 0 86.5 3.5t68.5 11t57 18.5t52 26v331h-253v-87h150v-175q-35 -14 -68.5 -19.5t-78.5 -5.5q-103 0 -154 66t-51 182
q0 57 14 104t41.5 80.5t67.5 51.5t93 18q32 0 56 -2.5t45.5 -7.5t43 -13.5t49.5 -21.5z" />
    <glyph glyph-name="H" unicode="H" horiz-adv-x="670" 
d="M480 406h-289v278h-114v-684h114v302h289v-302h114v684h-114v-278z" />
    <glyph glyph-name="I" unicode="I" horiz-adv-x="267" 
d="M191 0v684h-114v-684h114z" />
    <glyph glyph-name="J" unicode="J" horiz-adv-x="495" 
d="M419 684h-114v-479q0 -59 -21.5 -86.5t-75.5 -27.5q-22 0 -40 2.5t-34.5 7.5t-33.5 12.5t-36 18.5l-45 -84q35 -30 84 -45t106 -15q70 0 112 22t63.5 55t28 70.5t6.5 67.5v481z" />
    <glyph glyph-name="K" unicode="K" horiz-adv-x="618" 
d="M77 0h114v229l83 89l194 -318h133l-255 404l230 280h-136l-249 -299v299h-114v-684z" />
    <glyph glyph-name="L" unicode="L" horiz-adv-x="515" 
d="M191 684h-114v-684h413v100h-299v584z" />
    <glyph glyph-name="M" unicode="M" horiz-adv-x="830" 
d="M641 460v-460h113v684h-118l-217 -450l-223 450h-119v-684h114v460l185 -370h88z" />
    <glyph glyph-name="N" unicode="N" horiz-adv-x="696" 
d="M620 0v684h-113v-490l-316 490h-114v-684h114v489l316 -489h113z" />
    <glyph glyph-name="O" unicode="O" horiz-adv-x="756" 
d="M379 -11q73 0 133.5 21.5t103 65t66 110.5t23.5 158q0 79 -21 144t-62 111t-102 71.5t-141 25.5q-81 0 -142 -25t-102.5 -71t-62.5 -111t-21 -145q0 -90 23 -157t66 -111t103.5 -65.5t135.5 -21.5zM377 91q-101 2 -155 66.5t-54 189.5q0 56 13 101.5t39.5 77.5t65.5 49.5
t92 17.5q51 0 90.5 -17.5t66 -49.5t40 -77.5t13.5 -101.5q0 -126 -56.5 -191t-154.5 -65z" />
    <glyph glyph-name="P" unicode="P" horiz-adv-x="591" 
d="M317 260q122 0 183 54.5t61 157.5q0 104 -61.5 158t-182.5 54h-240v-684h113v260h127zM300 589q75 0 109 -28.5t34 -88.5q0 -58 -34.5 -87.5t-108.5 -29.5h-110v234h110z" />
    <glyph glyph-name="Q" unicode="Q" horiz-adv-x="774" 
d="M598 83q51 39 79 104t28 157q0 79 -21 144t-62 111t-102 71.5t-141 25.5q-81 0 -142 -25t-102.5 -71t-62.5 -111t-21 -145q0 -90 23 -157t66 -111t103.5 -65.5t135.5 -21.5q25 0 49 3h295v91h-125zM377 91q-101 2 -155 66.5t-54 189.5q0 56 13 101.5t39.5 77.5t65.5 49.5
t92 17.5q52 0 91.5 -17.5t66 -49.5t39.5 -77.5t13 -101.5q0 -126 -55.5 -191t-155.5 -65z" />
    <glyph glyph-name="R" unicode="R" horiz-adv-x="626" 
d="M315 262l157 -262h124l-168 277q133 44 133 195q0 104 -61.5 158t-182.5 54h-240v-684h113v262h125zM300 589q75 0 109 -28.5t34 -88.5q0 -57 -34.5 -87t-108.5 -30h-110v234h110z" />
    <glyph glyph-name="S" unicode="S" horiz-adv-x="587" 
d="M516 637q-43 30 -99 44.5t-125 14.5q-113 0 -171.5 -51t-58.5 -139q0 -58 26.5 -93.5t67 -58.5t87 -38t87 -32t67 -40t26.5 -61q0 -44 -37 -67.5t-96 -23.5q-28 0 -51.5 2.5t-45 8.5t-42.5 15.5t-45 23.5l-45 -89q42 -32 101.5 -48t128.5 -16q122 0 186 52.5t64 142.5
q0 59 -27 96t-67 61t-87 40t-87 32t-67 37.5t-27 56.5q0 39 30.5 62.5t81.5 23.5q28 0 50.5 -2.5t43.5 -7.5t41.5 -13.5t44.5 -21.5z" />
    <glyph glyph-name="T" unicode="T" horiz-adv-x="512" 
d="M314 580h180v104h-475v-104h181v-580h114v580z" />
    <glyph glyph-name="U" unicode="U" horiz-adv-x="681" 
d="M77 262q0 -136 65.5 -204.5t199.5 -68.5q132 0 197.5 68.5t65.5 204.5v422h-114v-422q0 -47 -8.5 -80t-26.5 -53t-46.5 -29t-67.5 -9q-42 0 -71 9t-46.5 29t-25.5 53t-8 80v422h-114v-422z" />
    <glyph glyph-name="V" unicode="V" horiz-adv-x="636" 
d="M262 0h109l252 684h-130l-178 -527l-175 527h-127z" />
    <glyph glyph-name="W" unicode="W" horiz-adv-x="871" 
d="M186 0h119l130 498l131 -498h119l169 684h-127l-110 -507l-123 507h-117l-123 -507l-110 507h-127z" />
    <glyph glyph-name="X" unicode="X" horiz-adv-x="611" 
d="M238 342l-225 -342h134l158 250l159 -250h134l-231 342l231 342h-134l-159 -246l-158 246h-134z" />
    <glyph glyph-name="Y" unicode="Y" horiz-adv-x="611" 
d="M305 408l-154 276h-138l235 -380v-304h114v304l236 380h-137z" />
    <glyph glyph-name="Z" unicode="Z" horiz-adv-x="558" 
d="M531 590v94h-488v-99h353l-370 -485v-100h501v99h-367z" />
    <glyph glyph-name="bracketleft" unicode="[" horiz-adv-x="280" 
d="M168 640h78v80h-184v-862h184v81h-78v701z" />
    <glyph glyph-name="backslash" unicode="\" horiz-adv-x="444" 
d="M85 730h-100l359 -799h100z" />
    <glyph glyph-name="bracketright" unicode="]" horiz-adv-x="280" 
d="M34 640h78v-701h-78v-81h184v862h-184v-80z" />
    <glyph glyph-name="asciicircum" unicode="^" horiz-adv-x="555" 
d="M488 487l-180 225h-60l-181 -225h104l107 140l107 -140h103z" />
    <glyph glyph-name="underscore" unicode="_" horiz-adv-x="490" 
d="M495 -42h-500v-89h500v89z" />
    <glyph glyph-name="grave" unicode="`" horiz-adv-x="301" 
d="M174 738h-107l96 -170h71z" />
    <glyph glyph-name="a" unicode="a" horiz-adv-x="568" 
d="M379 0h112v327q0 43 -15 78t-41.5 59t-63 37t-78.5 13q-66 0 -123.5 -14.5t-97.5 -44.5l45 -84q22 13 42 21.5t40 13.5t41.5 7.5t47.5 2.5q39 0 65 -24.5t26 -64.5v-58q-21 8 -42 14q-18 5 -39.5 9.5t-41.5 6.5q-26 3 -61 -0.5t-67 -20t-54.5 -49.5t-22.5 -88
q0 -77 45 -115t120 -38q30 0 55.5 6.5t45.5 17t35.5 23t26.5 23.5v-58zM379 180q0 -20 -8 -39t-24.5 -34t-41 -24t-57.5 -9q-26 0 -44 6t-28.5 15.5t-15 22.5t-4.5 28q0 18 7.5 34.5t22 28t36 17.5t50.5 3q17 -2 35.5 -5.5t34.5 -8.5q18 -5 37 -11v-24z" />
    <glyph glyph-name="b" unicode="b" horiz-adv-x="616" 
d="M183 58q32 -35 70 -52.5t95 -17.5q53 0 93.5 18.5t68 52t41.5 82t14 108.5q0 130 -55.5 197.5t-166.5 67.5q-46 0 -88.5 -17.5t-71.5 -55.5v279h-115v-720h115v58zM440 249q0 -85 -32 -125t-97 -40q-74 0 -101 44t-27 124q0 39 5 69.5t19.5 51.5t39.5 32t66 11
q61 0 94 -42t33 -125z" />
    <glyph glyph-name="c" unicode="c" horiz-adv-x="556" 
d="M468 131q-21 -13 -39 -22t-36.5 -14.5t-39 -8t-44.5 -2.5q-68 0 -103.5 40t-35.5 124t35 126t103 42q24 0 44.5 -2.5t39 -7.5t37 -13.5t39.5 -21.5l45 84q-39 30 -95 44.5t-120 14.5q-124 0 -185.5 -67t-61.5 -198q0 -60 16 -108.5t47.5 -82t77.5 -52t106 -18.5
q65 0 120.5 14.5t94.5 44.5z" />
    <glyph glyph-name="d" unicode="d" horiz-adv-x="616" 
d="M434 0h114v720h-114v-279q-30 38 -72.5 55.5t-88.5 17.5q-110 0 -166 -67.5t-56 -197.5q0 -120 55.5 -190.5t161.5 -70.5q57 0 95 17.5t71 52.5v-58zM176 249q0 83 33 125t94 42q40 0 66 -11t40 -32t19.5 -51.5t5.5 -69.5q0 -80 -28 -124t-101 -44q-64 0 -96.5 40
t-32.5 125z" />
    <glyph glyph-name="e" unicode="e" horiz-adv-x="584" 
d="M473 131q-23 -13 -43 -22t-40.5 -14.5t-42.5 -8t-49 -2.5q-66 0 -99.5 35t-33.5 100h365q7 61 -3 114.5t-39.5 93.5t-78.5 63.5t-120 23.5q-118 0 -178 -67t-60 -198q0 -60 16.5 -108.5t48 -82t77.5 -52t105 -18.5q66 0 123 14.5t97 44.5zM167 292q0 58 32.5 91t89.5 33
q60 0 94 -32t32 -92h-248z" />
    <glyph glyph-name="f" unicode="f" horiz-adv-x="386" 
d="M342 502h-107v60q0 37 6 57t31 20q28 2 58 -15l29 83q-32 16 -53 20.5t-49 5.5q-41 0 -67.5 -10t-42 -30.5t-21 -52t-5.5 -73.5v-65h-70v-83h70v-419h114v419h107v83z" />
    <glyph glyph-name="g" unicode="g" horiz-adv-x="616" 
d="M434 10q0 -72 -34 -105t-102 -33q-27 0 -49 2.5t-42.5 7.5t-41 14t-42.5 22l-45 -84q40 -30 97 -44.5t123 -14.5q61 0 108 17t78.5 48t47.5 74t16 96v492h-114v-61q-30 38 -72.5 55.5t-88.5 17.5q-110 0 -166 -67.5t-56 -197.5q0 -120 55.5 -190.5t161.5 -70.5
q57 0 95 17.5t71 52.5v-48zM176 249q0 83 33 125t94 42q40 0 66 -11t40 -32t19.5 -51.5t5.5 -69.5q0 -80 -28 -124t-101 -44q-64 0 -96.5 40t-32.5 125z" />
    <glyph glyph-name="h" unicode="h" horiz-adv-x="576" 
d="M182 262q0 37 5 66t18.5 48.5t38 29.5t64.5 10q49 0 75.5 -27t26.5 -87v-302h115v332q0 47 -17 81t-44.5 56.5t-62 33.5t-68.5 11q-43 0 -82.5 -17.5t-68.5 -55.5v279h-114v-720h114v262z" />
    <glyph glyph-name="i" unicode="i" horiz-adv-x="236" 
d="M52 639q0 -29 18.5 -47.5t47.5 -18.5t48 18.5t19 47.5t-19 48t-48 19t-47.5 -19t-18.5 -48zM61 0h114v502h-114v-502z" />
    <glyph glyph-name="j" unicode="j" horiz-adv-x="273" 
d="M89 639q0 -29 18.5 -47.5t47.5 -18.5t48 18.5t19 47.5t-19 48t-48 19t-47.5 -19t-18.5 -48zM99 -60q0 -37 -6 -57t-31 -20q-28 -2 -58 15l-30 -83q16 -8 29 -13t24.5 -7.5t23.5 -4t26 -1.5q40 0 66 10.5t41.5 31t22 51t6.5 71.5v569h-114v-562z" />
    <glyph glyph-name="k" unicode="k" horiz-adv-x="566" 
d="M532 0l-221 283l221 219h-134l-216 -214v432h-114v-720h114v160l52 52l164 -212h134z" />
    <glyph glyph-name="l" unicode="l" horiz-adv-x="250" 
d="M68 0h114v720h-114v-720z" />
    <glyph glyph-name="m" unicode="m" horiz-adv-x="868" 
d="M183 272q0 33 4 60t16.5 45.5t35 28.5t59.5 10q39 0 63 -24.5t24 -79.5v-312h105v307q0 51 28.5 80t94.5 29q37 0 63 -23t26 -78v-315h115v334q0 46 -14.5 80t-38 56.5t-54.5 33t-65 10.5q-27 0 -54.5 -5t-52.5 -14.5t-46 -24.5t-35 -35q-20 41 -54 60t-75 19
q-42 0 -80 -17.5t-65 -55.5v61h-115v-502h115v272z" />
    <glyph glyph-name="n" unicode="n" horiz-adv-x="576" 
d="M182 262q0 37 5 66t18.5 48.5t38 29.5t64.5 10q49 0 75.5 -27t26.5 -87v-302h115v332q0 47 -17 81t-44.5 56.5t-62 33.5t-68.5 11q-43 0 -82.5 -17.5t-68.5 -55.5v61h-114v-502h114v262z" />
    <glyph glyph-name="o" unicode="o" horiz-adv-x="588" 
d="M295 -12q117 0 179.5 70.5t62.5 190.5q0 131 -60.5 198t-181.5 67q-122 0 -183 -67t-61 -198q0 -60 16 -108.5t47 -82t76.5 -52t104.5 -18.5zM294 84q-62 0 -94.5 40t-32.5 124q0 81 33 122t95 41q61 0 93.5 -41t32.5 -122q0 -164 -127 -164z" />
    <glyph glyph-name="p" unicode="p" horiz-adv-x="616" 
d="M183 58q32 -35 70 -52.5t95 -17.5q53 0 93.5 18.5t68 52t41.5 82t14 108.5q0 130 -55.5 197.5t-166.5 67.5q-46 0 -88.5 -17.5t-71.5 -55.5v61h-115v-721h115v277zM450 249q0 -85 -32 -125t-97 -40q-74 0 -101 44t-27 124q0 39 5 69.5t19.5 51.5t39.5 32t66 11
q61 0 94 -42t33 -125z" />
    <glyph glyph-name="q" unicode="q" horiz-adv-x="616" 
d="M434 -219h114v721h-114v-61q-30 38 -72.5 55.5t-88.5 17.5q-110 0 -166 -67.5t-56 -197.5q0 -120 55.5 -190.5t161.5 -70.5q57 0 95 17.5t71 52.5v-277zM176 249q0 83 33 125t94 42q40 0 66 -11t40 -32t19.5 -51.5t5.5 -69.5q0 -80 -28 -124t-101 -44q-64 0 -96.5 40
t-32.5 125z" />
    <glyph glyph-name="r" unicode="r" horiz-adv-x="356" 
d="M323 514q-40 0 -77 -17.5t-64 -55.5v61h-114v-502h114v262q0 37 5 66t18.5 48.5t38 29.5t64.5 10l31 -3v101h-16z" />
    <glyph glyph-name="s" unicode="s" horiz-adv-x="504" 
d="M439 455q-75 59 -197 59q-48 0 -83 -12t-57.5 -33t-33.5 -49t-11 -60q0 -43 20.5 -69t50.5 -42.5t66 -26.5t66 -20t50.5 -23t20.5 -36q0 -32 -22.5 -48t-57.5 -16q-24 0 -44.5 2.5t-39 8t-37 14.5t-39.5 22l-40 -79q38 -30 91 -44.5t114 -14.5q93 0 144 43t51 111
q0 45 -20.5 72t-51.5 43t-67.5 25.5t-67.5 18.5t-51.5 22t-20.5 36q0 37 24.5 49.5t59.5 12.5q23 0 41 -2.5t34.5 -7.5t32.5 -13.5t35 -21.5z" />
    <glyph glyph-name="t" unicode="t" horiz-adv-x="393" 
d="M342 502h-107v112h-114v-112h-70v-83h70v-265q0 -42 5.5 -73t21 -52t42 -31t67.5 -10q28 1 49 5.5t53 20.5l-29 83q-30 -15 -58 -15q-25 1 -31 20.5t-6 56.5v260h107v83z" />
    <glyph glyph-name="u" unicode="u" horiz-adv-x="593" 
d="M411 240q0 -37 -5 -66t-18.5 -48.5t-38 -29.5t-64.5 -10q-49 0 -75.5 27.5t-26.5 86.5v302h-115v-332q0 -47 17 -81t44.5 -56.5t61.5 -33.5t69 -11q43 0 83 17.5t68 55.5v-61h114v502h-114v-262z" />
    <glyph glyph-name="v" unicode="v" horiz-adv-x="549" 
d="M276 145l-131 357h-128l206 -502h105l204 502h-125z" />
    <glyph glyph-name="w" unicode="w" horiz-adv-x="853" 
d="M593 145l-111 357h-108l-111 -357l-101 357h-128l176 -502h105l112 343l113 -343h105l174 502h-125z" />
    <glyph glyph-name="x" unicode="x" horiz-adv-x="547" 
d="M530 0l-185 251l185 251h-131l-126 -176l-125 176h-131l184 -251l-184 -251h126l130 169l126 -169h131z" />
    <glyph glyph-name="y" unicode="y" horiz-adv-x="523" 
d="M265 160l-120 342h-128l193 -466l-77 -203h102l271 669h-125z" />
    <glyph glyph-name="z" unicode="z" horiz-adv-x="497" 
d="M327 408l-284 -314v-94h412v94h-274l274 314v94h-412v-94h284z" />
    <glyph glyph-name="braceleft" unicode="{" horiz-adv-x="479" 
d="M354 720q-50 0 -81 -8.5t-48 -31.5t-23.5 -65t-6.5 -108v-43q0 -22 -4 -45.5t-14.5 -42.5t-28.5 -31.5t-47 -13.5h-34v-83h32q30 0 48.5 -10.5t29 -28.5t14 -43t4.5 -54v-43q0 -66 6.5 -107t24 -64.5t48.5 -32t80 -8.5h61v83h-19q-29 0 -47.5 4.5t-29 17t-14.5 35.5
t-4 61v58q0 43 -4 72.5t-12.5 48.5t-22 30.5t-32.5 20.5q19 7 32.5 19t22 31.5t12.5 49t4 72.5v58q0 36 3.5 59.5t14 36.5t29.5 18t49 5h18v83h-61z" />
    <glyph glyph-name="bar" unicode="|" horiz-adv-x="398" 
d="M249 774h-101v-960h101v960z" />
    <glyph glyph-name="braceright" unicode="}" horiz-adv-x="479" 
d="M64 720v-83h18q30 0 48.5 -5t29 -18t14.5 -36.5t4 -59.5v-58q0 -43 4 -72.5t12.5 -49t22 -31.5t32.5 -19q-19 -9 -32.5 -20.5t-22 -30.5t-12.5 -48.5t-4 -72.5v-58q0 -38 -4 -61t-14.5 -35.5t-29 -17t-47.5 -4.5h-19v-83h61q49 0 80 8.5t48.5 32t24 64.5t6.5 107v43
q1 29 4.5 54t14 43t29 28.5t48.5 10.5h32v83h-34q-29 1 -47 13.5t-28.5 31.5t-14.5 42.5t-4 45.5v43q0 66 -6.5 108t-23.5 65t-48.5 31.5t-80.5 8.5h-61z" />
    <glyph glyph-name="asciitilde" unicode="~" horiz-adv-x="672" 
d="M556 344q-20 -18 -34 -28.5t-26 -16.5t-23 -7.5t-25 -1.5q-31 2 -58.5 13t-54 23t-54 21.5t-58.5 9.5q-21 0 -38.5 -2.5t-36 -11t-40.5 -24.5t-51 -42l55 -76q20 18 34 29t26 16.5t23 7t25 1.5q32 -2 59.5 -11.5t54.5 -23.5q27 -12 54 -22t57 -10q21 0 38.5 2.5t36.5 11
t40.5 24.5t50.5 42z" />
    <glyph glyph-name="exclamdown" unicode="&#xa1;" horiz-adv-x="271" 
d="M64 571q0 -31 20 -51.5t51 -20.5t51.5 20.5t20.5 51.5t-20.5 51t-51.5 20t-51 -20t-20 -51zM78 -100h114l-13 540h-88z" />
    <glyph glyph-name="cent" unicode="&#xa2;" horiz-adv-x="545" 
d="M465 131q-38 -23 -68.5 -34t-71.5 -13v332q40 -2 71.5 -12t68.5 -33l45 84q-35 26 -82.5 40.5t-102.5 17.5v92h-54v-92q-112 -6 -167.5 -73t-55.5 -191q0 -115 57 -184t166 -76v-59h54v59q56 3 103 17.5t82 40.5zM271 88q-104 18 -104 160q0 144 104 165v-325z" />
    <glyph glyph-name="sterling" unicode="&#xa3;" horiz-adv-x="561" 
d="M508 0v97h-274v207h143v89h-143v99q0 56 28 79t78 23q25 0 43.5 -2t35 -6t33 -11t37.5 -17l40 89q-38 25 -84 37t-109 12q-46 0 -85.5 -10.5t-68.5 -34t-45.5 -61t-16.5 -91.5v-106h-87v-89h87v-207h-78v-97h466z" />
    <glyph glyph-name="currency" unicode="&#xa4;" horiz-adv-x="549" 
d="M492 420l-39 39l-74 -74q-42 33 -100 33q-29 0 -54 -8.5t-47 -24.5l-73 74l-40 -39l74 -75q-15 -20 -24 -45.5t-9 -54.5q0 -28 9 -53.5t24 -46.5l-74 -74l40 -40l74 75q21 -15 46.5 -24t53.5 -9q58 0 100 33l74 -75l39 40l-73 74q16 22 24.5 46.5t8.5 53.5q0 58 -33 100z
M186 245q0 19 7.5 36t20 29.5t29.5 20t36 7.5t36 -7.5t30 -20.5t20 -29.5t7 -35.5t-7.5 -36t-20.5 -29.5t-30 -19.5t-35 -7q-19 0 -36 7.5t-29.5 20t-20 29.5t-7.5 35z" />
    <glyph glyph-name="yen" unicode="&#xa5;" horiz-adv-x="583" 
d="M93 196v-76h141v-120h114v120h140v76h-140v62h140v76h-124l220 350h-137l-156 -286l-154 286h-138l219 -350h-125v-76h141v-62h-141z" />
    <glyph glyph-name="brokenbar" unicode="&#xa6;" horiz-adv-x="428" 
d="M264 774h-101v-417h101v417zM264 230h-101v-417h101v417z" />
    <glyph glyph-name="section" unicode="&#xa7;" horiz-adv-x="526" 
d="M459 630q-80 65 -200 65q-53 0 -90.5 -13t-61.5 -34.5t-35.5 -49.5t-11.5 -58q0 -25 8.5 -43.5t23 -33t34 -25t42.5 -18.5q-54 -18 -78.5 -55.5t-24.5 -82.5q0 -38 17.5 -62t45 -40t62 -26t68.5 -19q22 -6 42.5 -12.5t36 -15t24.5 -19.5t9 -27q0 -21 -8 -36t-21.5 -24
t-30.5 -13t-34 -4q-26 0 -47.5 3t-42 9t-42 16.5t-45.5 25.5l-38 -68q42 -33 98 -49t118 -16q91 0 140.5 42.5t49.5 112.5q0 50 -27.5 77.5t-70.5 44.5q45 17 69 52.5t24 84.5q0 39 -17 65t-44 42.5t-61.5 26.5t-69.5 18q-23 6 -43 12t-36 14.5t-25 18.5t-9 24q0 43 29.5 59
t71.5 16q24 0 44 -2.5t39 -9t38.5 -16.5t42.5 -25zM375 305q0 -22 -9 -37.5t-24 -25.5t-34.5 -14.5t-40.5 -4.5q-15 0 -34.5 3t-37.5 11t-30.5 22t-12.5 37q0 24 9 39t24.5 24t37 12.5t45.5 3.5q13 0 31.5 -3t35 -10.5t28.5 -21t12 -35.5z" />
    <glyph glyph-name="dieresis" unicode="&#xa8;" horiz-adv-x="390" 
d="M49 622q0 -26 17.5 -43.5t43.5 -17.5t44 17.5t18 43.5t-18 44t-44 18t-43.5 -18t-17.5 -44zM218 622q0 -26 17.5 -43.5t43.5 -17.5t44 17.5t18 43.5t-18 44t-44 18t-43.5 -18t-17.5 -44z" />
    <glyph glyph-name="copyright" unicode="&#xa9;" horiz-adv-x="812" 
d="M405 715q-77 0 -143 -30t-115 -80t-76.5 -115.5t-27.5 -137.5q0 -74 29 -140t78.5 -116t115.5 -79t139 -29q72 0 137.5 28t116 77t80.5 115.5t30 143.5q0 75 -29 141t-78.5 115.5t-115.5 78t-141 28.5zM713 352q0 -65 -25.5 -121t-68 -97.5t-98 -65t-116.5 -23.5
q-62 0 -117.5 24.5t-97.5 66.5t-66.5 97.5t-24.5 118.5q0 60 23.5 115.5t64.5 98t97 68t121 25.5q63 0 119 -24t98 -65.5t66.5 -97.5t24.5 -120zM540 517q-29 21 -60.5 31.5t-69.5 10.5q-87 0 -134.5 -55.5t-47.5 -147.5q0 -91 45.5 -145t131.5 -54q47 0 76.5 10t58.5 30
l-27 52q-33 -17 -56 -24t-52 -7q-57 0 -85.5 36.5t-28.5 101.5q0 64 31 102.5t88 38.5q15 0 27 -1.5t23 -5.5t23.5 -9.5t29.5 -14.5z" />
    <glyph glyph-name="ordfeminine" unicode="&#xaa;" horiz-adv-x="374" 
d="M69 621q31 20 56.5 27.5t60.5 7.5q33 0 55 -24t22 -62h-79q-19 0 -44.5 -3t-49 -14.5t-40 -33.5t-16.5 -60q0 -54 35 -80.5t94 -26.5q38 0 62 16.5t37 32.5v-41h69v229q0 61 -38.5 96t-96.5 35q-45 0 -85 -10t-68 -31zM264 516v-19q0 -33 -22.5 -60t-66.5 -27
q-38 0 -52.5 15.5t-14.5 36.5q0 23 19.5 38.5t57.5 15.5h79z" />
    <glyph glyph-name="guillemotleft" unicode="&#xab;" horiz-adv-x="709" 
d="M272 57h130l-240 200l240 191h-130l-205 -166v-50zM520 57h130l-240 200l240 191h-130l-205 -166v-50z" />
    <glyph glyph-name="logicalnot" unicode="&#xac;" horiz-adv-x="645" 
d="M497 198h93v220h-535v-95h442v-125z" />
    <glyph glyph-name="registered" unicode="&#xae;" horiz-adv-x="827" 
d="M405 715q-77 0 -143 -30t-115 -80t-76.5 -115.5t-27.5 -137.5q0 -74 29 -140t78.5 -116t115.5 -79t139 -29q72 0 137.5 28t116 77t80.5 115.5t30 143.5q0 75 -29 141t-78.5 115.5t-115.5 78t-141 28.5zM713 352q0 -65 -25.5 -121t-68 -97.5t-98 -65t-116.5 -23.5
q-62 0 -117.5 24.5t-97.5 66.5t-66.5 97.5t-24.5 118.5q0 60 23.5 115.5t64.5 98t97 68t121 25.5q63 0 119 -24t98 -65.5t66.5 -97.5t24.5 -120zM342 306h77l63 -141h70l-20 45t-22 48l-27 62q72 28 72 107q0 62 -37.5 94t-109.5 32h-127v-388h61v141zM414 490q78 0 78 -63
q0 -58 -78 -58h-72v121h72z" />
    <glyph glyph-name="macron" unicode="&#xaf;" horiz-adv-x="381" 
d="M67 593h247v76h-247v-76z" />
    <glyph glyph-name="degree" unicode="&#xb0;" horiz-adv-x="339" 
d="M170 720q-28 0 -52.5 -10.5t-42.5 -28.5t-28.5 -42.5t-10.5 -52.5t10 -52.5t28 -42.5t42.5 -28t52.5 -10t52.5 10.5t42.5 28.5t28.5 42.5t10.5 51.5t-10.5 51.5t-29 43t-42.5 29t-51 10.5zM239 586q0 -31 -20 -52.5t-49 -21.5t-49 21.5t-20 52.5q0 32 20 53t49 21
t49 -21.5t20 -52.5z" />
    <glyph glyph-name="plusminus" unicode="&#xb1;" horiz-adv-x="727" 
d="M91 237h223v-102h99v102h223v86h-223v101h-99v-101h-223v-86zM636 71h-545v-81h545v81z" />
    <glyph glyph-name="twosuperior" unicode="&#xb2;" horiz-adv-x="390" 
d="M43 280h298v67h-199q43 42 78.5 78t61 66.5t39 57t13.5 49.5q0 33 -11 57.5t-29.5 41t-43.5 24.5t-53 8q-96 0 -157 -40l27 -65q32 17 58.5 24.5t58.5 7.5q30 0 49 -11t19 -47q-1 -29 -57 -94t-152 -153v-71z" />
    <glyph glyph-name="threesuperior" unicode="&#xb3;" horiz-adv-x="393" 
d="M72 624q18 9 31.5 15.5t26.5 10t27.5 5.5t34.5 2q35 0 53.5 -13t18.5 -47q0 -26 -22 -41t-58 -15h-31v-62h33q40 0 62.5 -17.5t22.5 -50.5q0 -34 -23.5 -51.5t-55.5 -17.5q-19 0 -33.5 1.5t-28 5t-27 10t-31.5 15.5l-31 -66q61 -40 153 -40q35 0 64 10t50 28t32.5 42.5
t11.5 53.5q0 41 -18 69.5t-52 40.5q57 23 57 93q0 33 -11.5 56.5t-31 38.5t-47 22t-58.5 7q-48 0 -83.5 -10t-66.5 -30z" />
    <glyph glyph-name="acute" unicode="&#xb4;" horiz-adv-x="301" 
d="M67 568h71l96 170h-107z" />
    <glyph glyph-name="mu" unicode="&#xb5;" horiz-adv-x="602" 
d="M411 267q0 -44 -3.5 -77.5t-16.5 -56.5t-38 -35t-68 -12q-49 0 -75.5 27.5t-26.5 86.5v302h-114v-684h114v192q17 -11 37 -16.5t40 -5.5q43 0 83 17.5t68 55.5v-61h114v502h-114v-235z" />
    <glyph glyph-name="paragraph" unicode="&#xb6;" horiz-adv-x="751" 
d="M238 722q-83 0 -133 -43.5t-50 -119.5q0 -66 47.5 -109.5t128.5 -47.5v-472h109v701h144v-701h109v701h103v91h-458z" />
    <glyph glyph-name="periodcentered" unicode="&#xb7;" horiz-adv-x="273" 
d="M65 257q0 -31 20 -51t51 -20t51.5 20t20.5 51t-20.5 51.5t-51.5 20.5t-51 -20.5t-20 -51.5z" />
    <glyph glyph-name="cedilla" unicode="&#xb8;" horiz-adv-x="339" 
d="M188 17h-47l-24 -107q8 1 14 1h19q50 0 50 -41q0 -15 -11 -23t-27 -10q-20 0 -34.5 4t-32.5 17l-24 -50q41 -32 102 -32q48 0 71.5 23t23.5 63q0 47 -23.5 68t-70.5 21z" />
    <glyph glyph-name="onesuperior" unicode="&#xb9;" horiz-adv-x="280" 
d="M40 660l34 -62l76 43v-361h81v445h-80z" />
    <glyph glyph-name="ordmasculine" unicode="&#xba;" horiz-adv-x="446" 
d="M224 352q83 0 127 49t44 134q0 91 -42.5 138t-128.5 47q-87 0 -130 -47t-43 -138q0 -85 44 -134t129 -49zM223 415q-95 0 -95 119q0 60 24.5 91t71.5 31q94 0 94 -122q0 -119 -95 -119z" />
    <glyph glyph-name="guillemotright" unicode="&#xbb;" horiz-adv-x="709" 
d="M394 232v50l-205 166h-130l240 -191l-240 -200h130zM642 232v50l-205 166h-130l240 -191l-240 -200h130z" />
    <glyph glyph-name="onequarter" unicode="&#xbc;" horiz-adv-x="817" 
d="M185 -29h73l364 739h-73zM40 620l34 -62l76 43v-361h81v445h-80zM798 166h-69v279h-92l-197 -277v-69h207v-99h82v99h69v67zM519 166l128 183v-183h-128z" />
    <glyph glyph-name="onehalf" unicode="&#xbd;" horiz-adv-x="877" 
d="M185 -29h73l364 739h-73zM40 620l34 -62l76 43v-361h81v445h-80zM540 0h298v67h-199q43 42 78.5 78t61 66.5t39 57t13.5 49.5q0 33 -11 57.5t-29.5 41t-43.5 24.5t-53 8q-96 0 -157 -40l27 -65q31 17 58 24.5t59 7.5q30 0 49 -11t19 -47q-1 -29 -57.5 -94t-151.5 -153
v-71z" />
    <glyph glyph-name="threequarters" unicode="&#xbe;" horiz-adv-x="877" 
d="M245 -29h73l364 739h-73zM62 584q18 9 31.5 15.5t26.5 10t27.5 5.5t34.5 2q35 0 53.5 -13t18.5 -47q0 -26 -22 -41t-58 -15h-31v-62h33q40 0 62.5 -17.5t22.5 -50.5q0 -34 -23.5 -51.5t-55.5 -17.5q-19 0 -33.5 1.5t-28 5t-27 10t-31.5 15.5l-31 -66q61 -40 153 -40
q35 0 64 10t50 28t32.5 42.5t11.5 53.5q0 41 -18 69.5t-52 40.5q57 23 57 93q0 33 -11.5 56.5t-31 38.5t-47 22t-58.5 7q-48 0 -83.5 -10t-66.5 -30zM858 166h-69v279h-92l-197 -277v-69h207v-99h82v99h69v67zM579 166l128 183v-183h-128z" />
    <glyph glyph-name="questiondown" unicode="&#xbf;" horiz-adv-x="552" 
d="M379 568q0 31 -20 51t-51 20t-51.5 -20t-20.5 -51t20.5 -51.5t51.5 -20.5t51 20.5t20 51.5zM437 51q-21 -13 -38.5 -21.5t-35.5 -14t-37.5 -7.5t-43.5 -2q-38 0 -63.5 20.5t-25.5 65.5q0 31 12.5 53t31 40.5t40 36t40 39.5t31 52.5t12.5 73.5v50h-106v-50
q0 -32 -13.5 -56t-33 -44.5t-43 -39.5t-43 -41t-33 -49t-13.5 -62q0 -48 16.5 -84t44.5 -59.5t65 -35.5t78 -12q61 0 111.5 14t86.5 44z" />
    <glyph glyph-name="Agrave" unicode="&#xc0;" horiz-adv-x="652" 
d="M294 916h-107l96 -170h71zM396 684h-144l-239 -684h127l56 167h261l56 -167h125zM323 564l109 -302h-213z" />
    <glyph glyph-name="Aacute" unicode="&#xc1;" horiz-adv-x="652" 
d="M287 746h71l96 170h-107zM396 684h-144l-239 -684h127l56 167h261l56 -167h125zM323 564l109 -302h-213z" />
    <glyph glyph-name="Acircumflex" unicode="&#xc2;" horiz-adv-x="652" 
d="M485 746l-125 165h-60l-126 -165h94l62 100l62 -100h93zM396 684h-144l-239 -684h127l56 167h261l56 -167h125zM323 564l109 -302h-213z" />
    <glyph glyph-name="Atilde" unicode="&#xc3;" horiz-adv-x="652" 
d="M453 848q-14 -14 -23.5 -21.5t-17 -12t-14 -5.5t-14.5 -1q-19 2 -35 9.5t-31 15.5t-30.5 14.5t-32.5 6.5q-15 0 -27.5 -2t-26 -8.5t-29 -18.5t-36.5 -31l48 -61q13 14 22.5 22t17 12.5t14.5 5.5t15 1q18 -1 33.5 -8.5t30.5 -16t31 -15.5t34 -7q15 0 27.5 2t26 8.5
t29 18.5t35.5 32zM396 684h-144l-239 -684h127l56 167h261l56 -167h125zM323 564l109 -302h-213z" />
    <glyph glyph-name="Adieresis" unicode="&#xc4;" horiz-adv-x="652" 
d="M184 803q0 -26 17.5 -43.5t43.5 -17.5t44 17.5t18 43.5t-18 44t-44 18t-43.5 -18t-17.5 -44zM353 803q0 -26 17.5 -43.5t43.5 -17.5t44 17.5t18 43.5t-18 44t-44 18t-43.5 -18t-17.5 -44zM396 684h-144l-239 -684h127l56 167h261l56 -167h125zM323 564l109 -302h-213z
" />
    <glyph glyph-name="Aring" unicode="&#xc5;" horiz-adv-x="652" 
d="M218 806q0 -49 30 -79.5t82 -30.5q53 0 83 29.5t30 80.5q0 49 -31 80t-82 31q-52 0 -82 -31t-30 -80zM282 806q0 24 12 38t36 14q23 0 35.5 -14t12.5 -38q0 -23 -12.5 -37t-35.5 -14q-24 0 -36 13.5t-12 37.5zM396 684h-144l-239 -684h127l56 167h261l56 -167h125z
M323 564l109 -302h-213z" />
    <glyph glyph-name="AE" unicode="&#xc6;" horiz-adv-x="906" 
d="M592 302h237v94h-257l-41 189h311v99h-450l-379 -684h131l94 167h271l33 -167h309v99h-216zM436 552l58 -290h-213z" />
    <glyph glyph-name="Ccedilla" unicode="&#xc7;" 
d="M589 136q-28 -13 -51.5 -21.5t-47 -14t-49 -7.5t-57.5 -2q-103 0 -154 66t-51 182q0 57 14 104t41.5 80.5t67.5 51.5t93 18q32 0 56 -2.5t45.5 -7.5t43 -13.5t49.5 -21.5l45 89q-52 30 -112 44.5t-141 14.5q-75 0 -134 -25.5t-100.5 -72t-63 -112.5t-21.5 -147
q0 -76 18.5 -138t54 -107.5t87 -72.5t118.5 -32l-18 -79q8 1 14 1h19q50 0 50 -41q0 -15 -11 -23t-27 -10q-20 0 -34.5 4t-32.5 17l-24 -50q41 -32 102 -32q48 0 71.5 23t23.5 63q0 47 -23.5 68t-70.5 21l8 37q45 1 79.5 5t63.5 11t54 18t49 25z" />
    <glyph glyph-name="Egrave" unicode="&#xc8;" horiz-adv-x="590" 
d="M274 916h-107l96 -170h71zM191 302h300v94h-300v189h325v99h-439v-684h453v99h-339v203z" />
    <glyph glyph-name="Eacute" unicode="&#xc9;" horiz-adv-x="590" 
d="M253 746h71l96 170h-107zM191 302h300v94h-300v189h325v99h-439v-684h453v99h-339v203z" />
    <glyph glyph-name="Ecircumflex" unicode="&#xca;" horiz-adv-x="590" 
d="M448 746l-125 165h-60l-126 -165h94l62 100l62 -100h93zM191 302h300v94h-300v189h325v99h-439v-684h453v99h-339v203z" />
    <glyph glyph-name="Edieresis" unicode="&#xcb;" horiz-adv-x="590" 
d="M144 803q0 -26 17.5 -43.5t43.5 -17.5t44 17.5t18 43.5t-18 44t-44 18t-43.5 -18t-17.5 -44zM313 803q0 -26 17.5 -43.5t43.5 -17.5t44 17.5t18 43.5t-18 44t-44 18t-43.5 -18t-17.5 -44zM191 302h300v94h-300v189h325v99h-439v-684h453v99h-339v203z" />
    <glyph glyph-name="Igrave" unicode="&#xcc;" horiz-adv-x="293" 
d="M124 916h-107l96 -170h71zM207 0v684h-114v-684h114z" />
    <glyph glyph-name="Iacute" unicode="&#xcd;" horiz-adv-x="338" 
d="M95 746h71l96 170h-107zM191 0v684h-114v-684h114z" />
    <glyph glyph-name="Icircumflex" unicode="&#xce;" horiz-adv-x="267" 
d="M288 746l-125 165h-60l-127 -165h95l62 100l62 -100h93zM191 0v684h-114v-684h114z" />
    <glyph glyph-name="Idieresis" unicode="&#xcf;" horiz-adv-x="267" 
d="M-13 803q0 -26 17.5 -43.5t43.5 -17.5t44 17.5t18 43.5t-18 44t-44 18t-43.5 -18t-17.5 -44zM156 803q0 -26 17.5 -43.5t43.5 -17.5t44 17.5t18 43.5t-18 44t-44 18t-43.5 -18t-17.5 -44zM191 0v684h-114v-684h114z" />
    <glyph glyph-name="Eth" unicode="&#xd0;" horiz-adv-x="717" 
d="M98 684v-282h-81v-91h81v-311h205q175 0 264.5 86t89.5 256t-89.5 256t-264.5 86h-205zM211 100v211h155v91h-155v182h100q116 0 173 -58.5t57 -183.5q0 -242 -230 -242h-100z" />
    <glyph glyph-name="Ntilde" unicode="&#xd1;" horiz-adv-x="706" 
d="M473 848q-14 -14 -23.5 -21.5t-17 -12t-14 -5.5t-14.5 -1q-19 2 -35 9.5t-31.5 15.5t-30.5 14.5t-32 6.5q-15 0 -28 -2t-26.5 -8.5t-29 -18.5t-35.5 -31l48 -61q13 14 22.5 22t17 12.5t14.5 5.5t15 1q18 -1 33.5 -8.5t30.5 -16t31 -15.5t34 -7q14 0 26.5 2t26 8.5
t29 18.5t36.5 32zM620 0v684h-113v-490l-316 490h-114v-684h114v489l316 -489h113z" />
    <glyph glyph-name="Ograve" unicode="&#xd2;" horiz-adv-x="763" 
d="M344 916h-107l96 -170h71zM379 -11q73 0 133.5 21.5t103 65t66 110.5t23.5 158q0 79 -21 144t-62 111t-102 71.5t-141 25.5q-81 0 -142 -25t-102.5 -71t-62.5 -111t-21 -145q0 -90 23 -157t66 -111t103.5 -65.5t135.5 -21.5zM377 91q-101 2 -155 66.5t-54 189.5
q0 56 13 101.5t39.5 77.5t65.5 49.5t92 17.5q51 0 90.5 -17.5t66 -49.5t40 -77.5t13.5 -101.5q0 -126 -56.5 -191t-154.5 -65z" />
    <glyph glyph-name="Oacute" unicode="&#xd3;" horiz-adv-x="763" 
d="M335 746h71l96 170h-107zM379 -11q73 0 133.5 21.5t103 65t66 110.5t23.5 158q0 79 -21 144t-62 111t-102 71.5t-141 25.5q-81 0 -142 -25t-102.5 -71t-62.5 -111t-21 -145q0 -90 23 -157t66 -111t103.5 -65.5t135.5 -21.5zM377 91q-101 2 -155 66.5t-54 189.5
q0 56 13 101.5t39.5 77.5t65.5 49.5t92 17.5q51 0 90.5 -17.5t66 -49.5t40 -77.5t13.5 -101.5q0 -126 -56.5 -191t-154.5 -65z" />
    <glyph glyph-name="Ocircumflex" unicode="&#xd4;" horiz-adv-x="763" 
d="M530 746l-125 165h-60l-126 -165h94l62 100l62 -100h93zM379 -11q73 0 133.5 21.5t103 65t66 110.5t23.5 158q0 79 -21 144t-62 111t-102 71.5t-141 25.5q-81 0 -142 -25t-102.5 -71t-62.5 -111t-21 -145q0 -90 23 -157t66 -111t103.5 -65.5t135.5 -21.5zM377 91
q-101 2 -155 66.5t-54 189.5q0 56 13 101.5t39.5 77.5t65.5 49.5t92 17.5q51 0 90.5 -17.5t66 -49.5t40 -77.5t13.5 -101.5q0 -126 -56.5 -191t-154.5 -65z" />
    <glyph glyph-name="Otilde" unicode="&#xd5;" horiz-adv-x="763" 
d="M498 848q-14 -14 -23.5 -21.5t-17 -12t-14 -5.5t-14.5 -1q-19 2 -35 9.5t-31 15.5t-30.5 14.5t-32.5 6.5q-15 0 -27.5 -2t-26 -8.5t-29 -18.5t-36.5 -31l48 -61q13 14 22.5 22t17 12.5t14.5 5.5t15 1q18 -1 33.5 -8.5t30.5 -16t31 -15.5t34 -7q15 0 27.5 2t26 8.5
t29 18.5t35.5 32zM379 -11q73 0 133.5 21.5t103 65t66 110.5t23.5 158q0 79 -21 144t-62 111t-102 71.5t-141 25.5q-81 0 -142 -25t-102.5 -71t-62.5 -111t-21 -145q0 -90 23 -157t66 -111t103.5 -65.5t135.5 -21.5zM377 91q-101 2 -155 66.5t-54 189.5q0 56 13 101.5
t39.5 77.5t65.5 49.5t92 17.5q51 0 90.5 -17.5t66 -49.5t40 -77.5t13.5 -101.5q0 -126 -56.5 -191t-154.5 -65z" />
    <glyph glyph-name="Odieresis" unicode="&#xd6;" horiz-adv-x="763" 
d="M224 803q0 -26 17.5 -43.5t43.5 -17.5t44 17.5t18 43.5t-18 44t-44 18t-43.5 -18t-17.5 -44zM393 803q0 -26 17.5 -43.5t43.5 -17.5t44 17.5t18 43.5t-18 44t-44 18t-43.5 -18t-17.5 -44zM379 -11q73 0 133.5 21.5t103 65t66 110.5t23.5 158q0 79 -21 144t-62 111
t-102 71.5t-141 25.5q-81 0 -142 -25t-102.5 -71t-62.5 -111t-21 -145q0 -90 23 -157t66 -111t103.5 -65.5t135.5 -21.5zM377 91q-101 2 -155 66.5t-54 189.5q0 56 13 101.5t39.5 77.5t65.5 49.5t92 17.5q51 0 90.5 -17.5t66 -49.5t40 -77.5t13.5 -101.5q0 -126 -56.5 -191
t-154.5 -65z" />
    <glyph glyph-name="multiply" unicode="&#xd7;" horiz-adv-x="687" 
d="M198 67l143 144l150 -150l70 70l-150 149l144 144l-68 68l-144 -143l-147 146l-70 -69l147 -148l-143 -143z" />
    <glyph glyph-name="Oslash" unicode="&#xd8;" horiz-adv-x="756" 
d="M224 18q69 -29 155 -29q73 0 133.5 21.5t103 65t66 110.5t23.5 158q0 97 -31 172t-92 120l43 74h-70l-25 -44q-32 14 -69.5 22t-81.5 8q-81 0 -142 -25t-102.5 -71t-62.5 -111t-21 -145q0 -106 31.5 -179.5t89.5 -115.5l-51 -88h70zM231 152q-63 65 -63 195
q0 56 13 101.5t39.5 77.5t65.5 49.5t92 17.5q56 0 98 -21zM524 535q64 -64 64 -188q0 -126 -56.5 -191t-154.5 -65q-57 2 -98 22z" />
    <glyph glyph-name="Ugrave" unicode="&#xd9;" 
d="M310 916h-107l96 -170h71zM77 262q0 -136 65.5 -204.5t199.5 -68.5q132 0 197.5 68.5t65.5 204.5v422h-114v-422q0 -47 -8.5 -80t-26.5 -53t-46.5 -29t-67.5 -9q-42 0 -71 9t-46.5 29t-25.5 53t-8 80v422h-114v-422z" />
    <glyph glyph-name="Uacute" unicode="&#xda;" 
d="M291 746h71l96 170h-107zM77 262q0 -136 65.5 -204.5t199.5 -68.5q132 0 197.5 68.5t65.5 204.5v422h-114v-422q0 -47 -8.5 -80t-26.5 -53t-46.5 -29t-67.5 -9q-42 0 -71 9t-46.5 29t-25.5 53t-8 80v422h-114v-422z" />
    <glyph glyph-name="Ucircumflex" unicode="&#xdb;" 
d="M491 746l-125 165h-60l-126 -165h94l62 100l62 -100h93zM77 262q0 -136 65.5 -204.5t199.5 -68.5q132 0 197.5 68.5t65.5 204.5v422h-114v-422q0 -47 -8.5 -80t-26.5 -53t-46.5 -29t-67.5 -9q-42 0 -71 9t-46.5 29t-25.5 53t-8 80v422h-114v-422z" />
    <glyph glyph-name="Udieresis" unicode="&#xdc;" 
d="M190 803q0 -26 17.5 -43.5t43.5 -17.5t44 17.5t18 43.5t-18 44t-44 18t-43.5 -18t-17.5 -44zM359 803q0 -26 17.5 -43.5t43.5 -17.5t44 17.5t18 43.5t-18 44t-44 18t-43.5 -18t-17.5 -44zM77 262q0 -136 65.5 -204.5t199.5 -68.5q132 0 197.5 68.5t65.5 204.5v422h-114
v-422q0 -47 -8.5 -80t-26.5 -53t-46.5 -29t-67.5 -9q-42 0 -71 9t-46.5 29t-25.5 53t-8 80v422h-114v-422z" />
    <glyph glyph-name="Yacute" unicode="&#xdd;" horiz-adv-x="612" 
d="M263 746h71l96 170h-107zM305 408l-155 276h-137l235 -380v-304h114v304l236 380h-138z" />
    <glyph glyph-name="Thorn" unicode="&#xde;" horiz-adv-x="594" 
d="M312 135q122 0 185.5 54.5t63.5 157.5q0 104 -64 158t-185 54h-122v125h-113v-684h113v135h122zM295 464q148 0 148 -117t-148 -117h-105v234h105z" />
    <glyph glyph-name="germandbls" unicode="&#xdf;" horiz-adv-x="605" 
d="M164 493q0 61 29.5 83.5t84.5 22.5q114 0 114 -100q0 -58 -23 -82t-77 -24h-50v-80h47q72 0 100.5 -26.5t28.5 -83.5q0 -54 -30.5 -83.5t-87.5 -29.5h-71v-90h70q118 0 178 51.5t60 152.5q0 63 -32.5 103t-94.5 52q50 16 75 52t25 90q0 91 -61.5 143t-176.5 52
q-61 0 -103 -15.5t-68.5 -44t-38 -67.5t-11.5 -86v-583h113v593z" />
    <glyph glyph-name="agrave" unicode="&#xe0;" horiz-adv-x="574" 
d="M264 738h-107l96 -170h71zM379 0h112v327q0 43 -15 78t-41.5 59t-63 37t-78.5 13q-66 0 -123.5 -14.5t-97.5 -44.5l45 -84q22 13 42 21.5t40 13.5t41.5 7.5t47.5 2.5q39 0 65 -24.5t26 -64.5v-58q-21 8 -42 14q-18 5 -39.5 9.5t-41.5 6.5q-26 3 -61 -0.5t-67 -20
t-54.5 -49.5t-22.5 -88q0 -77 45 -115t120 -38q30 0 55.5 6.5t45.5 17t35.5 23t26.5 23.5v-58zM379 180q0 -20 -8 -39t-24.5 -34t-41 -24t-57.5 -9q-26 0 -44 6t-28.5 15.5t-15 22.5t-4.5 28q0 18 7.5 34.5t22 28t36 17.5t50.5 3q17 -2 35.5 -5.5t34.5 -8.5q18 -5 37 -11
v-24z" />
    <glyph glyph-name="aacute" unicode="&#xe1;" horiz-adv-x="574" 
d="M237 568h71l96 170h-107zM379 0h112v327q0 43 -15 78t-41.5 59t-63 37t-78.5 13q-66 0 -123.5 -14.5t-97.5 -44.5l45 -84q22 13 42 21.5t40 13.5t41.5 7.5t47.5 2.5q39 0 65 -24.5t26 -64.5v-58q-21 8 -42 14q-18 5 -39.5 9.5t-41.5 6.5q-26 3 -61 -0.5t-67 -20
t-54.5 -49.5t-22.5 -88q0 -77 45 -115t120 -38q30 0 55.5 6.5t45.5 17t35.5 23t26.5 23.5v-58zM379 180q0 -20 -8 -39t-24.5 -34t-41 -24t-57.5 -9q-26 0 -44 6t-28.5 15.5t-15 22.5t-4.5 28q0 18 7.5 34.5t22 28t36 17.5t50.5 3q17 -2 35.5 -5.5t34.5 -8.5q18 -5 37 -11
v-24z" />
    <glyph glyph-name="acircumflex" unicode="&#xe2;" horiz-adv-x="574" 
d="M433 568l-125 165h-60l-126 -165h94l62 100l62 -100h93zM379 0h112v327q0 43 -15 78t-41.5 59t-63 37t-78.5 13q-66 0 -123.5 -14.5t-97.5 -44.5l45 -84q22 13 42 21.5t40 13.5t41.5 7.5t47.5 2.5q39 0 65 -24.5t26 -64.5v-58q-21 8 -42 14q-18 5 -39.5 9.5t-41.5 6.5
q-26 3 -61 -0.5t-67 -20t-54.5 -49.5t-22.5 -88q0 -77 45 -115t120 -38q30 0 55.5 6.5t45.5 17t35.5 23t26.5 23.5v-58zM379 180q0 -20 -8 -39t-24.5 -34t-41 -24t-57.5 -9q-26 0 -44 6t-28.5 15.5t-15 22.5t-4.5 28q0 18 7.5 34.5t22 28t36 17.5t50.5 3q17 -2 35.5 -5.5
t34.5 -8.5q18 -5 37 -11v-24z" />
    <glyph glyph-name="atilde" unicode="&#xe3;" horiz-adv-x="574" 
d="M413 693q-14 -14 -23.5 -21.5t-17 -12t-14 -5.5t-14.5 -1q-19 2 -35 9.5t-31 15.5t-30.5 14.5t-32.5 6.5q-15 0 -27.5 -2t-26 -8.5t-29 -18.5t-36.5 -31l48 -61q13 14 22.5 22t17 12.5t14.5 5.5t15 1q18 -1 33.5 -8.5t30.5 -16t31 -15.5t34 -7q15 0 27.5 2t26 9t29 18.5
t35.5 31.5zM379 0h112v327q0 43 -15 78t-41.5 59t-63 37t-78.5 13q-66 0 -123.5 -14.5t-97.5 -44.5l45 -84q22 13 42 21.5t40 13.5t41.5 7.5t47.5 2.5q39 0 65 -24.5t26 -64.5v-58q-21 8 -42 14q-18 5 -39.5 9.5t-41.5 6.5q-26 3 -61 -0.5t-67 -20t-54.5 -49.5t-22.5 -88
q0 -77 45 -115t120 -38q30 0 55.5 6.5t45.5 17t35.5 23t26.5 23.5v-58zM379 180q0 -20 -8 -39t-24.5 -34t-41 -24t-57.5 -9q-26 0 -44 6t-28.5 15.5t-15 22.5t-4.5 28q0 18 7.5 34.5t22 28t36 17.5t50.5 3q17 -2 35.5 -5.5t34.5 -8.5q18 -5 37 -11v-24z" />
    <glyph glyph-name="adieresis" unicode="&#xe4;" horiz-adv-x="574" 
d="M134 622q0 -26 17.5 -43.5t43.5 -17.5t44 17.5t18 43.5t-18 44t-44 18t-43.5 -18t-17.5 -44zM303 622q0 -26 17.5 -43.5t43.5 -17.5t44 17.5t18 43.5t-18 44t-44 18t-43.5 -18t-17.5 -44zM379 0h112v327q0 43 -15 78t-41.5 59t-63 37t-78.5 13q-66 0 -123.5 -14.5
t-97.5 -44.5l45 -84q22 13 42 21.5t40 13.5t41.5 7.5t47.5 2.5q39 0 65 -24.5t26 -64.5v-58q-21 8 -42 14q-18 5 -39.5 9.5t-41.5 6.5q-26 3 -61 -0.5t-67 -20t-54.5 -49.5t-22.5 -88q0 -77 45 -115t120 -38q30 0 55.5 6.5t45.5 17t35.5 23t26.5 23.5v-58zM379 180
q0 -20 -8 -39t-24.5 -34t-41 -24t-57.5 -9q-26 0 -44 6t-28.5 15.5t-15 22.5t-4.5 28q0 18 7.5 34.5t22 28t36 17.5t50.5 3q17 -2 35.5 -5.5t34.5 -8.5q18 -5 37 -11v-24z" />
    <glyph glyph-name="aring" unicode="&#xe5;" horiz-adv-x="574" 
d="M165 676q0 -49 30 -79.5t82 -30.5q53 0 83 29.5t30 80.5q0 49 -31 80t-82 31q-52 0 -82 -31t-30 -80zM229 676q0 24 12.5 38t35.5 14q24 0 36 -14t12 -38q0 -23 -12.5 -37t-35.5 -14t-35.5 13.5t-12.5 37.5zM379 0h112v327q0 43 -15 78t-41.5 59t-63 37t-78.5 13
q-66 0 -123.5 -14.5t-97.5 -44.5l45 -84q22 13 42 21.5t40 13.5t41.5 7.5t47.5 2.5q39 0 65 -24.5t26 -64.5v-58q-21 8 -42 14q-18 5 -39.5 9.5t-41.5 6.5q-26 3 -61 -0.5t-67 -20t-54.5 -49.5t-22.5 -88q0 -77 45 -115t120 -38q30 0 55.5 6.5t45.5 17t35.5 23t26.5 23.5
v-58zM379 180q0 -20 -8 -39t-24.5 -34t-41 -24t-57.5 -9q-26 0 -44 6t-28.5 15.5t-15 22.5t-4.5 28q0 18 7.5 34.5t22 28t36 17.5t50.5 3q17 -2 35.5 -5.5t34.5 -8.5q18 -5 37 -11v-24z" />
    <glyph glyph-name="ae" unicode="&#xe6;" horiz-adv-x="923" 
d="M809 131q-23 -13 -43 -22t-40.5 -14.5t-42.5 -8t-49 -2.5q-66 0 -99.5 35t-33.5 100h365q7 61 -3 114.5t-39.5 93.5t-78.5 63.5t-120 23.5q-115 0 -177 -77q-24 37 -62 57t-84 20q-66 0 -123.5 -14.5t-97.5 -44.5l45 -84q22 13 42 21.5t40 13.5t41.5 7.5t47.5 2.5
q38 0 64.5 -24.5t26.5 -64.5v-58q-21 8 -42 14q-18 5 -39.5 9.5t-41.5 6.5q-26 3 -61 -0.5t-67 -20t-54.5 -49.5t-22.5 -88q0 -77 45 -115t120 -38q36 0 66 4.5t55.5 15t48 29t43.5 46.5q30 -45 79 -70t117 -25q66 0 123 14.5t97 44.5zM503 292q0 58 33 91t89 33
q58 0 91 -32.5t29 -91.5h-242zM388 180q0 -20 -8.5 -39t-25 -34t-41 -24t-56.5 -9q-26 0 -44 6t-28.5 15.5t-15 22.5t-4.5 28q0 18 7 34.5t21.5 28t36.5 17.5t51 3q17 -2 35.5 -5.5t34.5 -8.5q18 -5 37 -11v-24z" />
    <glyph glyph-name="ccedilla" unicode="&#xe7;" horiz-adv-x="565" 
d="M468 131q-21 -13 -39 -22t-36.5 -14.5t-39 -8t-44.5 -2.5q-68 0 -103.5 40t-35.5 124t35 126t103 42q24 0 44.5 -2.5t39 -7.5t37 -13.5t39.5 -21.5l45 84q-39 30 -95 44.5t-120 14.5q-124 0 -185.5 -67t-61.5 -198q0 -112 55 -180.5t159 -78.5l-18 -80q8 1 14 1h19
q50 0 50 -41q0 -15 -11 -23t-27 -10q-20 0 -35 4t-32 17l-24 -50q20 -17 46.5 -24.5t55.5 -7.5q47 0 71 23t24 63q0 47 -23.5 68t-70.5 21l8 37q60 2 112 16t89 43z" />
    <glyph glyph-name="egrave" unicode="&#xe8;" horiz-adv-x="591" 
d="M264 738h-107l96 -170h71zM473 131q-23 -13 -43 -22t-40.5 -14.5t-42.5 -8t-49 -2.5q-66 0 -99.5 35t-33.5 100h365q7 61 -3 114.5t-39.5 93.5t-78.5 63.5t-120 23.5q-118 0 -178 -67t-60 -198q0 -60 16.5 -108.5t48 -82t77.5 -52t105 -18.5q66 0 123 14.5t97 44.5z
M167 292q0 58 32.5 91t89.5 33q60 0 94 -32t32 -92h-248z" />
    <glyph glyph-name="eacute" unicode="&#xe9;" horiz-adv-x="591" 
d="M247 568h71l96 170h-107zM473 131q-23 -13 -43 -22t-40.5 -14.5t-42.5 -8t-49 -2.5q-66 0 -99.5 35t-33.5 100h365q7 61 -3 114.5t-39.5 93.5t-78.5 63.5t-120 23.5q-118 0 -178 -67t-60 -198q0 -60 16.5 -108.5t48 -82t77.5 -52t105 -18.5q66 0 123 14.5t97 44.5z
M167 292q0 58 32.5 91t89.5 33q60 0 94 -32t32 -92h-248z" />
    <glyph glyph-name="ecircumflex" unicode="&#xea;" horiz-adv-x="591" 
d="M445 568l-125 165h-60l-126 -165h94l62 100l62 -100h93zM473 131q-23 -13 -43 -22t-40.5 -14.5t-42.5 -8t-49 -2.5q-66 0 -99.5 35t-33.5 100h365q7 61 -3 114.5t-39.5 93.5t-78.5 63.5t-120 23.5q-118 0 -178 -67t-60 -198q0 -60 16.5 -108.5t48 -82t77.5 -52t105 -18.5
q66 0 123 14.5t97 44.5zM167 292q0 58 32.5 91t89.5 33q60 0 94 -32t32 -92h-248z" />
    <glyph glyph-name="edieresis" unicode="&#xeb;" horiz-adv-x="591" 
d="M139 622q0 -26 17.5 -43.5t43.5 -17.5t44 17.5t18 43.5t-18 44t-44 18t-43.5 -18t-17.5 -44zM308 622q0 -26 17.5 -43.5t43.5 -17.5t44 17.5t18 43.5t-18 44t-44 18t-43.5 -18t-17.5 -44zM473 131q-23 -13 -43 -22t-40.5 -14.5t-42.5 -8t-49 -2.5q-66 0 -99.5 35
t-33.5 100h365q7 61 -3 114.5t-39.5 93.5t-78.5 63.5t-120 23.5q-118 0 -178 -67t-60 -198q0 -60 16.5 -108.5t48 -82t77.5 -52t105 -18.5q66 0 123 14.5t97 44.5zM167 292q0 58 32.5 91t89.5 33q60 0 94 -32t32 -92h-248z" />
    <glyph glyph-name="igrave" unicode="&#xec;" horiz-adv-x="304" 
d="M158 738h-107l96 -170h71zM130 0h114v502h-114v-502z" />
    <glyph glyph-name="iacute" unicode="&#xed;" horiz-adv-x="300" 
d="M72 568h71l96 170h-107zM62 0h114v502h-114v-502z" />
    <glyph glyph-name="icircumflex" unicode="&#xee;" horiz-adv-x="237" 
d="M272 568l-125 165h-60l-127 -165h95l62 100l62 -100h93zM62 0h114v502h-114v-502z" />
    <glyph glyph-name="idieresis" unicode="&#xef;" horiz-adv-x="237" 
d="M-27 622q0 -26 17.5 -43.5t44.5 -17.5q26 0 44 17.5t18 43.5t-18 44t-44 18q-27 0 -44.5 -18t-17.5 -44zM143 622q0 -26 17.5 -43.5t43.5 -17.5t44 17.5t18 43.5t-18 44t-44 18t-43.5 -18t-17.5 -44zM62 0h114v502h-114v-502z" />
    <glyph glyph-name="eth" unicode="&#xf0;" horiz-adv-x="598" 
d="M305 558q36 -38 62 -75q-17 6 -34.5 8.5t-37.5 2.5q-122 0 -183 -62t-61 -183q0 -60 16.5 -108.5t48 -82t78 -52t106.5 -18.5t106 18.5t77.5 52t47.5 82t16 108.5q0 101 -44.5 187.5t-114.5 155.5l88 36l-22 49l-111 -45q-34 28 -70.5 51t-74.5 43l-50 -59
q58 -28 110 -69l-120 -49l23 -50zM299 84q-65 0 -98.5 38t-33.5 116t34.5 118t98.5 40q63 0 97 -40t34 -118t-33.5 -116t-98.5 -38z" />
    <glyph glyph-name="ntilde" unicode="&#xf1;" horiz-adv-x="585" 
d="M428 693q-14 -14 -23.5 -21.5t-17 -12t-14 -5.5t-14.5 -1q-19 2 -35 9.5t-31 15.5t-30.5 14.5t-32.5 6.5q-15 0 -27.5 -2t-26 -8.5t-29 -18.5t-36.5 -31l48 -61q13 14 22.5 22t17 12.5t14.5 5.5t15 1q18 -1 33.5 -8.5t30.5 -16t31 -15.5t34 -7q15 0 27.5 2t26 9t29 18.5
t35.5 31.5zM182 262q0 37 5 66t18.5 48.5t38 29.5t64.5 10q49 0 75.5 -27t26.5 -87v-302h115v332q0 47 -17 81t-44.5 56.5t-62 33.5t-68.5 11q-43 0 -82.5 -17.5t-68.5 -55.5v61h-114v-502h114v262z" />
    <glyph glyph-name="ograve" unicode="&#xf2;" horiz-adv-x="595" 
d="M259 738h-107l96 -170h71zM295 -12q117 0 179.5 70.5t62.5 190.5q0 131 -60.5 198t-181.5 67q-122 0 -183 -67t-61 -198q0 -60 16 -108.5t47 -82t76.5 -52t104.5 -18.5zM294 84q-62 0 -94.5 40t-32.5 124q0 81 33 122t95 41q61 0 93.5 -41t32.5 -122q0 -164 -127 -164z
" />
    <glyph glyph-name="oacute" unicode="&#xf3;" horiz-adv-x="592" 
d="M240 568h71l96 170h-107zM293 -12q117 0 179.5 70.5t62.5 190.5q0 131 -60.5 198t-181.5 67q-123 0 -183.5 -67t-60.5 -198q0 -60 16 -108.5t47 -82t76.5 -52t104.5 -18.5zM292 84q-127 0 -127 164q0 81 33 122t95 41q60 0 93 -41t33 -122q0 -84 -32.5 -124t-94.5 -40z
" />
    <glyph glyph-name="ocircumflex" unicode="&#xf4;" horiz-adv-x="595" 
d="M443 568l-125 165h-60l-126 -165h94l62 100l62 -100h93zM295 -12q117 0 179.5 70.5t62.5 190.5q0 131 -60.5 198t-181.5 67q-122 0 -183 -67t-61 -198q0 -60 16 -108.5t47 -82t76.5 -52t104.5 -18.5zM294 84q-62 0 -94.5 40t-32.5 124q0 81 33 122t95 41q61 0 93.5 -41
t32.5 -122q0 -164 -127 -164z" />
    <glyph glyph-name="otilde" unicode="&#xf5;" horiz-adv-x="595" 
d="M422 693q-14 -14 -23.5 -21.5t-17 -12t-14 -5.5t-14.5 -1q-19 2 -35 9.5t-31 15.5t-30.5 14.5t-32.5 6.5q-15 0 -27.5 -2t-26 -8.5t-29 -18.5t-36.5 -31l48 -61q13 14 22.5 22t17 12.5t14.5 5.5t15 1q18 -1 33.5 -8.5t30.5 -16t31 -15.5t34 -7q15 0 27.5 2t26 9t29 18.5
t35.5 31.5zM295 -12q117 0 179.5 70.5t62.5 190.5q0 131 -60.5 198t-181.5 67q-122 0 -183 -67t-61 -198q0 -60 16 -108.5t47 -82t76.5 -52t104.5 -18.5zM294 84q-62 0 -94.5 40t-32.5 124q0 81 33 122t95 41q61 0 93.5 -41t32.5 -122q0 -164 -127 -164z" />
    <glyph glyph-name="odieresis" unicode="&#xf6;" horiz-adv-x="595" 
d="M142 622q0 -26 17.5 -43.5t43.5 -17.5t44 17.5t18 43.5t-18 44t-44 18t-43.5 -18t-17.5 -44zM311 622q0 -26 17.5 -43.5t43.5 -17.5t44 17.5t18 43.5t-18 44t-44 18t-43.5 -18t-17.5 -44zM295 -12q117 0 179.5 70.5t62.5 190.5q0 131 -60.5 198t-181.5 67
q-122 0 -183 -67t-61 -198q0 -60 16 -108.5t47 -82t76.5 -52t104.5 -18.5zM294 84q-62 0 -94.5 40t-32.5 124q0 81 33 122t95 41q61 0 93.5 -41t32.5 -122q0 -164 -127 -164z" />
    <glyph glyph-name="divide" unicode="&#xf7;" horiz-adv-x="727" 
d="M290 465q0 -31 20 -51t51 -20t51.5 20t20.5 51t-20.5 51.5t-51.5 20.5t-51 -20.5t-20 -51.5zM626 323h-525v-86h525v86zM290 85q0 -31 20 -51t51 -20t51.5 20t20.5 51t-20.5 51.5t-51.5 20.5t-51 -20.5t-20 -51.5z" />
    <glyph glyph-name="oslash" unicode="&#xf8;" horiz-adv-x="588" 
d="M187 10q49 -22 108 -22q117 0 179.5 70.5t62.5 190.5q0 71 -22.5 125.5t-64.5 89.5l49 85h-70l-31 -54q-23 9 -48.5 14t-54.5 5q-122 0 -183 -67t-61 -198q0 -66 21.5 -119t63.5 -88l-47 -81h70zM195 146q-14 22 -21 49t-7 53q0 81 33 122t95 41q26 0 49 -10zM389 357
q15 -20 23.5 -47t8.5 -62q0 -164 -127 -164q-32 0 -57 14z" />
    <glyph glyph-name="ugrave" unicode="&#xf9;" horiz-adv-x="602" 
d="M264 738h-107l96 -170h71zM411 240q0 -37 -5 -66t-18.5 -48.5t-38 -29.5t-64.5 -10q-49 0 -75.5 27.5t-26.5 86.5v302h-115v-332q0 -47 17 -81t44.5 -56.5t61.5 -33.5t69 -11q43 0 83 17.5t68 55.5v-61h114v502h-114v-262z" />
    <glyph glyph-name="uacute" unicode="&#xfa;" horiz-adv-x="602" 
d="M252 568h71l96 170h-107zM411 240q0 -37 -5 -66t-18.5 -48.5t-38 -29.5t-64.5 -10q-49 0 -75.5 27.5t-26.5 86.5v302h-115v-332q0 -47 17 -81t44.5 -56.5t61.5 -33.5t69 -11q43 0 83 17.5t68 55.5v-61h114v502h-114v-262z" />
    <glyph glyph-name="ucircumflex" unicode="&#xfb;" horiz-adv-x="602" 
d="M454 568l-125 165h-60l-126 -165h94l62 100l62 -100h93zM411 240q0 -37 -5 -66t-18.5 -48.5t-38 -29.5t-64.5 -10q-49 0 -75.5 27.5t-26.5 86.5v302h-115v-332q0 -47 17 -81t44.5 -56.5t61.5 -33.5t69 -11q43 0 83 17.5t68 55.5v-61h114v502h-114v-262z" />
    <glyph glyph-name="udieresis" unicode="&#xfc;" horiz-adv-x="602" 
d="M149 622q0 -26 17.5 -43.5t43.5 -17.5t44 17.5t18 43.5t-18 44t-44 18t-43.5 -18t-17.5 -44zM318 622q0 -26 17.5 -43.5t43.5 -17.5t44 17.5t18 43.5t-18 44t-44 18t-43.5 -18t-17.5 -44zM411 240q0 -37 -5 -66t-18.5 -48.5t-38 -29.5t-64.5 -10q-49 0 -75.5 27.5
t-26.5 86.5v302h-115v-332q0 -47 17 -81t44.5 -56.5t61.5 -33.5t69 -11q43 0 83 17.5t68 55.5v-61h114v502h-114v-262z" />
    <glyph glyph-name="yacute" unicode="&#xfd;" horiz-adv-x="525" 
d="M229 568h71l96 170h-107zM265 160l-120 342h-128l193 -466l-77 -203h102l271 669h-125z" />
    <glyph glyph-name="thorn" unicode="&#xfe;" horiz-adv-x="616" 
d="M183 58q32 -35 70 -52.5t95 -17.5q53 0 93.5 18.5t68 52t41.5 82t14 108.5q0 130 -55.5 197.5t-166.5 67.5q-46 0 -88.5 -17.5t-71.5 -55.5v243h-115v-903h115v277zM440 249q0 -85 -32 -125t-97 -40q-74 0 -101 44t-27 124q0 39 5 69.5t19.5 51.5t39.5 32t66 11
q61 0 94 -42t33 -125z" />
    <glyph glyph-name="ydieresis" unicode="&#xff;" horiz-adv-x="525" 
d="M128 622q0 -26 17.5 -43.5t43.5 -17.5t44 17.5t18 43.5t-18 44t-44 18t-43.5 -18t-17.5 -44zM297 622q0 -26 17.5 -43.5t43.5 -17.5t44 17.5t18 43.5t-18 44t-44 18t-43.5 -18t-17.5 -44zM265 160l-120 342h-128l193 -466l-77 -203h102l271 669h-125z" />
    <glyph glyph-name="Amacron" unicode="&#x100;" horiz-adv-x="652" 
d="M204 734h247v76h-247v-76zM396 684h-144l-239 -684h127l56 167h261l56 -167h125zM323 564l109 -302h-213z" />
    <glyph glyph-name="Aogonek" unicode="&#x104;" horiz-adv-x="670" 
d="M621 -118q-14 -7 -22 -8.5t-16 -1.5q-18 0 -25.5 13t-7.5 30q0 39 38 85h50l-242 684h-144l-239 -684h127l56 167h261l56 -167h17q-28 -30 -43 -58.5t-15 -55.5q0 -33 22.5 -58.5t73.5 -25.5q33 0 74 14zM432 262h-213l104 302z" />
    <glyph glyph-name="Cacute" unicode="&#x106;" horiz-adv-x="681" 
d="M291 746h71l96 170h-107zM623 637q-52 30 -112 44.5t-141 14.5q-75 0 -134 -25.5t-100.5 -72t-63 -112.5t-21.5 -147q0 -80 20.5 -145t60 -110.5t96.5 -70.5t131 -25q49 0 86.5 3.5t68.5 11t57 18.5t52 26l-45 89q-28 -13 -51.5 -21.5t-47 -14t-49 -7.5t-57.5 -2
q-103 0 -154 66t-51 182q0 57 14 104t41.5 80.5t67.5 51.5t93 18q32 0 56 -2.5t45.5 -7.5t43 -13.5t49.5 -21.5z" />
    <glyph glyph-name="Ccaron" unicode="&#x10c;" horiz-adv-x="681" 
d="M427 912l-62 -100l-62 100h-94l126 -165h60l125 165h-93zM623 637q-52 30 -112 44.5t-141 14.5q-75 0 -134 -25.5t-100.5 -72t-63 -112.5t-21.5 -147q0 -80 20.5 -145t60 -110.5t96.5 -70.5t131 -25q49 0 86.5 3.5t68.5 11t57 18.5t52 26l-45 89q-28 -13 -51.5 -21.5
t-47 -14t-49 -7.5t-57.5 -2q-103 0 -154 66t-51 182q0 57 14 104t41.5 80.5t67.5 51.5t93 18q32 0 56 -2.5t45.5 -7.5t43 -13.5t49.5 -21.5z" />
    <glyph glyph-name="Ccircumflex" unicode="&#x108;" horiz-adv-x="681" 
d="M506 746l-125 165h-60l-126 -165h94l62 100l62 -100h93zM623 637q-52 30 -112 44.5t-141 14.5q-75 0 -134 -25.5t-100.5 -72t-63 -112.5t-21.5 -147q0 -80 20.5 -145t60 -110.5t96.5 -70.5t131 -25q49 0 86.5 3.5t68.5 11t57 18.5t52 26l-45 89q-28 -13 -51.5 -21.5
t-47 -14t-49 -7.5t-57.5 -2q-103 0 -154 66t-51 182q0 57 14 104t41.5 80.5t67.5 51.5t93 18q32 0 56 -2.5t45.5 -7.5t43 -13.5t49.5 -21.5z" />
    <glyph glyph-name="Cdotaccent" unicode="&#x10a;" horiz-adv-x="681" 
d="M302 796q0 -26 17.5 -43.5t43.5 -17.5t44 17.5t18 43.5t-18 44t-44 18t-43.5 -18t-17.5 -44zM623 637q-52 30 -112 44.5t-141 14.5q-75 0 -134 -25.5t-100.5 -72t-63 -112.5t-21.5 -147q0 -80 20.5 -145t60 -110.5t96.5 -70.5t131 -25q49 0 86.5 3.5t68.5 11t57 18.5
t52 26l-45 89q-28 -13 -51.5 -21.5t-47 -14t-49 -7.5t-57.5 -2q-103 0 -154 66t-51 182q0 57 14 104t41.5 80.5t67.5 51.5t93 18q32 0 56 -2.5t45.5 -7.5t43 -13.5t49.5 -21.5z" />
    <glyph glyph-name="Dcaron" unicode="&#x10e;" horiz-adv-x="696" 
d="M369 912l-62 -100l-62 100h-94l126 -165h60l125 165h-93zM282 0q175 0 264.5 86t89.5 256t-89.5 256t-264.5 86h-205v-684h205zM290 584q116 0 173 -58.5t57 -183.5q0 -242 -230 -242h-100v484h100z" />
    <glyph glyph-name="Dcroat" unicode="&#x110;" horiz-adv-x="777" 
d="M157 684v-292h-80v-86h80v-306h205q175 0 264.5 86t89.5 256t-89.5 256t-264.5 86h-205zM271 100v206h170v86h-170v192h99q117 0 173.5 -58.5t56.5 -183.5q0 -242 -230 -242h-99z" />
    <glyph glyph-name="Ebreve" unicode="&#x114;" horiz-adv-x="590" 
d="M154 856q0 -68 36.5 -100.5t102.5 -32.5q68 0 103.5 32t35.5 101h-85q0 -37 -14 -52.5t-40 -15.5q-27 0 -41 15.5t-14 52.5h-84zM191 302h300v94h-300v189h325v99h-439v-684h453v99h-339v203z" />
    <glyph glyph-name="Ecaron" unicode="&#x11a;" horiz-adv-x="590" 
d="M347 912l-62 -100l-62 100h-94l126 -165h60l125 165h-93zM191 302h300v94h-300v189h325v99h-439v-684h453v99h-339v203z" />
    <glyph glyph-name="Edotaccent" unicode="&#x116;" horiz-adv-x="590" 
d="M229 796q0 -26 17.5 -43.5t43.5 -17.5t44 17.5t18 43.5t-18 44t-44 18t-43.5 -18t-17.5 -44zM191 302h300v94h-300v189h325v99h-439v-684h453v99h-339v203z" />
    <glyph glyph-name="Emacron" unicode="&#x112;" horiz-adv-x="590" 
d="M169 734h247v76h-247v-76zM191 302h300v94h-300v189h325v99h-439v-684h453v99h-339v203z" />
    <glyph glyph-name="Eogonek" unicode="&#x118;" horiz-adv-x="590" 
d="M530 0v99h-339v203h300v94h-300v189h325v99h-439v-684h182q-28 -30 -43 -58.5t-15 -55.5q0 -16 5.5 -31t17.5 -27t30 -19t43 -7q33 0 74 14l-21 66q-14 -7 -22 -8.5t-16 -1.5q-18 0 -25.5 13t-7.5 30q0 39 38 85h213z" />
    <glyph glyph-name="Gbreve" unicode="&#x11e;" horiz-adv-x="681" 
d="M219 856q0 -68 36.5 -100.5t102.5 -32.5q68 0 103.5 32t35.5 101h-85q0 -37 -14 -52.5t-40 -15.5q-27 0 -41 15.5t-14 52.5h-84zM623 637q-52 30 -112 44.5t-141 14.5q-75 0 -134 -25.5t-100.5 -72t-63 -112.5t-21.5 -147q0 -80 20.5 -145t60 -110.5t96.5 -70.5t131 -25
q49 0 86.5 3.5t68.5 11t57 18.5t52 26v331h-253v-87h150v-175q-35 -14 -68.5 -19.5t-78.5 -5.5q-103 0 -154 66t-51 182q0 57 14 104t41.5 80.5t67.5 51.5t93 18q32 0 56 -2.5t45.5 -7.5t43 -13.5t49.5 -21.5z" />
    <glyph glyph-name="Gcircumflex" unicode="&#x11c;" horiz-adv-x="681" 
d="M503 746l-125 165h-60l-126 -165h94l62 100l62 -100h93zM623 637q-52 30 -112 44.5t-141 14.5q-75 0 -134 -25.5t-100.5 -72t-63 -112.5t-21.5 -147q0 -80 20.5 -145t60 -110.5t96.5 -70.5t131 -25q49 0 86.5 3.5t68.5 11t57 18.5t52 26v331h-253v-87h150v-175
q-35 -14 -68.5 -19.5t-78.5 -5.5q-103 0 -154 66t-51 182q0 57 14 104t41.5 80.5t67.5 51.5t93 18q32 0 56 -2.5t45.5 -7.5t43 -13.5t49.5 -21.5z" />
    <glyph glyph-name="Gdotaccent" unicode="&#x120;" horiz-adv-x="681" 
d="M296 796q0 -26 17.5 -43.5t43.5 -17.5t44 17.5t18 43.5t-18 44t-44 18t-43.5 -18t-17.5 -44zM623 637q-52 30 -112 44.5t-141 14.5q-75 0 -134 -25.5t-100.5 -72t-63 -112.5t-21.5 -147q0 -80 20.5 -145t60 -110.5t96.5 -70.5t131 -25q49 0 86.5 3.5t68.5 11t57 18.5
t52 26v331h-253v-87h150v-175q-35 -14 -68.5 -19.5t-78.5 -5.5q-103 0 -154 66t-51 182q0 57 14 104t41.5 80.5t67.5 51.5t93 18q32 0 56 -2.5t45.5 -7.5t43 -13.5t49.5 -21.5z" />
    <glyph glyph-name="Hbar" unicode="&#x126;" horiz-adv-x="791" 
d="M714 506v84h-58v94h-114v-94h-289v94h-114v-94h-62v-84h62v-506h114v302h289v-302h114v506h58zM542 506v-100h-289v100h289z" />
    <glyph glyph-name="Hcircumflex" unicode="&#x124;" horiz-adv-x="680" 
d="M486 746l-125 165h-60l-126 -165h94l62 100l62 -100h93zM480 406h-289v278h-114v-684h114v302h289v-302h114v684h-114v-278z" />
    <glyph glyph-name="Idotaccent" unicode="&#x130;" horiz-adv-x="296" 
d="M80 796q0 -26 17.5 -43.5t43.5 -17.5t44 17.5t18 43.5t-18 44t-44 18t-43.5 -18t-17.5 -44zM201 0v684h-114v-684h114z" />
    <glyph glyph-name="Imacron" unicode="&#x12a;" horiz-adv-x="267" 
d="M11 734h247v76h-247v-76zM191 0v684h-114v-684h114z" />
    <glyph glyph-name="Iogonek" unicode="&#x12e;" horiz-adv-x="329" 
d="M226 -118q-14 -7 -22.5 -8.5t-15.5 -1.5q-19 0 -26 13t-7 30q0 39 38 85h39v684h-114v-684h17q-58 -61 -58 -114q0 -16 5.5 -31t17.5 -27t30 -19t43 -7q33 0 74 14z" />
    <glyph glyph-name="Itilde" unicode="&#x128;" horiz-adv-x="267" 
d="M269 848q-14 -14 -23.5 -21.5t-17 -12t-14 -5.5t-14.5 -1q-19 2 -35 9.5t-31 15.5t-30.5 14.5t-32.5 6.5q-15 0 -27.5 -2t-26 -8.5t-29 -18.5t-36.5 -31l48 -61q13 14 22.5 22t17 12.5t14.5 5.5t15 1q18 -1 33.5 -8.5t30.5 -16t31 -15.5t34 -7q15 0 27.5 2t26 8.5
t29 18.5t35.5 32zM191 0v684h-114v-684h114z" />
    <glyph glyph-name="Jcircumflex" unicode="&#x134;" horiz-adv-x="536" 
d="M502 746l-125 165h-60l-126 -165h94l62 100l62 -100h93zM419 684h-114v-479q0 -59 -21.5 -86.5t-75.5 -27.5q-22 0 -40 2.5t-34.5 7.5t-33.5 12.5t-36 18.5l-45 -84q35 -30 84 -45t106 -15q70 0 112 22t63.5 55t28 70.5t6.5 67.5v481z" />
    <glyph glyph-name="Lacute" unicode="&#x139;" horiz-adv-x="525" 
d="M89 746h71l96 170h-107zM191 684h-114v-684h413v100h-299v584z" />
    <glyph glyph-name="Lcaron" unicode="&#x13d;" horiz-adv-x="626" 
d="M295 912l-62 -100l-62 100h-94l126 -165h60l125 165h-93zM292 684h-114v-684h413v100h-299v584z" />
    <glyph glyph-name="Ldot" unicode="&#x13f;" horiz-adv-x="525" 
d="M191 684h-114v-684h413v100h-299v584zM300 421q0 -26 17.5 -43.5t43.5 -17.5t44 17.5t18 43.5t-18 44t-44 18t-43.5 -18t-17.5 -44z" />
    <glyph glyph-name="Lslash" unicode="&#x141;" horiz-adv-x="564" 
d="M529 100h-299v211l175 75v86l-175 -75v287h-114v-336l-82 -35v-86l82 35v-262h413v100z" />
    <glyph glyph-name="Nacute" unicode="&#x143;" horiz-adv-x="706" 
d="M295 746h71l96 170h-107zM620 0v684h-113v-490l-316 490h-114v-684h114v489l316 -489h113z" />
    <glyph glyph-name="Ncaron" unicode="&#x147;" horiz-adv-x="706" 
d="M407 912l-62 -100l-62 100h-94l126 -165h60l125 165h-93zM620 0v684h-113v-490l-316 490h-114v-684h114v489l316 -489h113z" />
    <glyph glyph-name="Obreve" unicode="&#x14e;" horiz-adv-x="763" 
d="M233 856q0 -68 36.5 -100.5t102.5 -32.5q68 0 103.5 32t35.5 101h-85q0 -37 -14 -52.5t-40 -15.5q-27 0 -41 15.5t-14 52.5h-84zM379 -11q73 0 133.5 21.5t103 65t66 110.5t23.5 158q0 79 -21 144t-62 111t-102 71.5t-141 25.5q-81 0 -142 -25t-102.5 -71t-62.5 -111
t-21 -145q0 -90 23 -157t66 -111t103.5 -65.5t135.5 -21.5zM377 91q-101 2 -155 66.5t-54 189.5q0 56 13 101.5t39.5 77.5t65.5 49.5t92 17.5q51 0 90.5 -17.5t66 -49.5t40 -77.5t13.5 -101.5q0 -126 -56.5 -191t-154.5 -65z" />
    <glyph glyph-name="Ohungarumlaut" unicode="&#x150;" horiz-adv-x="763" 
d="M240 746h71l96 170h-107zM393 746h71l96 170h-107zM379 -11q73 0 133.5 21.5t103 65t66 110.5t23.5 158q0 79 -21 144t-62 111t-102 71.5t-141 25.5q-81 0 -142 -25t-102.5 -71t-62.5 -111t-21 -145q0 -90 23 -157t66 -111t103.5 -65.5t135.5 -21.5zM377 91
q-101 2 -155 66.5t-54 189.5q0 56 13 101.5t39.5 77.5t65.5 49.5t92 17.5q51 0 90.5 -17.5t66 -49.5t40 -77.5t13.5 -101.5q0 -126 -56.5 -191t-154.5 -65z" />
    <glyph glyph-name="Omacron" unicode="&#x14c;" horiz-adv-x="763" 
d="M250 734h247v76h-247v-76zM379 -11q73 0 133.5 21.5t103 65t66 110.5t23.5 158q0 79 -21 144t-62 111t-102 71.5t-141 25.5q-81 0 -142 -25t-102.5 -71t-62.5 -111t-21 -145q0 -90 23 -157t66 -111t103.5 -65.5t135.5 -21.5zM377 91q-101 2 -155 66.5t-54 189.5
q0 56 13 101.5t39.5 77.5t65.5 49.5t92 17.5q51 0 90.5 -17.5t66 -49.5t40 -77.5t13.5 -101.5q0 -126 -56.5 -191t-154.5 -65z" />
    <glyph glyph-name="OE" unicode="&#x152;" horiz-adv-x="1123" 
d="M733 258v44h300v94h-300v189h325v99h-439v-84q-42 46 -101.5 71t-138.5 25q-81 0 -142 -25t-102.5 -71t-62.5 -111t-21 -145q0 -90 23 -157t66 -111t103.5 -65.5t135.5 -21.5q76 0 136.5 22.5t103.5 69.5v-81h453v99h-339v159zM377 91q-101 2 -155 66.5t-54 189.5
q0 56 13 101.5t39.5 77.5t65.5 49.5t92 17.5q51 0 90.5 -17.5t66 -49.5t40 -77.5t13.5 -101.5q0 -126 -56.5 -191t-154.5 -65z" />
    <glyph glyph-name="Racute" unicode="&#x154;" horiz-adv-x="635" 
d="M240 746h71l96 170h-107zM315 262l157 -262h124l-168 277q133 44 133 195q0 104 -61.5 158t-182.5 54h-240v-684h113v262h125zM300 589q75 0 109 -28.5t34 -88.5q0 -57 -34.5 -87t-108.5 -30h-110v234h110z" />
    <glyph glyph-name="Rcaron" unicode="&#x158;" horiz-adv-x="635" 
d="M353 912l-62 -100l-62 100h-94l126 -165h60l125 165h-93zM315 262l157 -262h124l-168 277q133 44 133 195q0 104 -61.5 158t-182.5 54h-240v-684h113v262h125zM300 589q75 0 109 -28.5t34 -88.5q0 -57 -34.5 -87t-108.5 -30h-110v234h110z" />
    <glyph glyph-name="Sacute" unicode="&#x15a;" horiz-adv-x="594" 
d="M227 746h71l96 170h-107zM516 637q-43 30 -99 44.5t-125 14.5q-113 0 -171.5 -51t-58.5 -139q0 -58 26.5 -93.5t67 -58.5t87 -38t87 -32t67 -40t26.5 -61q0 -44 -37 -67.5t-96 -23.5q-28 0 -51.5 2.5t-45 8.5t-42.5 15.5t-45 23.5l-45 -89q42 -32 101.5 -48t128.5 -16
q122 0 186 52.5t64 142.5q0 59 -27 96t-67 61t-87 40t-87 32t-67 37.5t-27 56.5q0 39 30.5 62.5t81.5 23.5q28 0 50.5 -2.5t43.5 -7.5t41.5 -13.5t44.5 -21.5z" />
    <glyph glyph-name="Scaron" unicode="&#x160;" horiz-adv-x="594" 
d="M339 912l-62 -100l-62 100h-94l126 -165h60l125 165h-93zM516 637q-43 30 -99 44.5t-125 14.5q-113 0 -171.5 -51t-58.5 -139q0 -58 26.5 -93.5t67 -58.5t87 -38t87 -32t67 -40t26.5 -61q0 -44 -37 -67.5t-96 -23.5q-28 0 -51.5 2.5t-45 8.5t-42.5 15.5t-45 23.5l-45 -89
q42 -32 101.5 -48t128.5 -16q122 0 186 52.5t64 142.5q0 59 -27 96t-67 61t-87 40t-87 32t-67 37.5t-27 56.5q0 39 30.5 62.5t81.5 23.5q28 0 50.5 -2.5t43.5 -7.5t41.5 -13.5t44.5 -21.5z" />
    <glyph glyph-name="Scedilla" unicode="&#x15e;" horiz-adv-x="594" 
d="M516 637q-43 30 -99 44.5t-125 14.5q-113 0 -171.5 -51t-58.5 -139q0 -58 26.5 -93.5t67 -58.5t87 -38t87 -32t67 -40t26.5 -61q0 -44 -37 -67.5t-96 -23.5q-28 0 -51.5 2.5t-45 8.5t-42.5 15.5t-45 23.5l-45 -89q38 -29 90 -45t113 -18l-18 -80q8 1 14 1h19q50 0 50 -41
q0 -15 -11 -23t-27 -10q-20 0 -34.5 4t-32.5 17l-24 -50q41 -32 102 -32q48 0 71.5 23t23.5 63q0 48 -23.5 68.5t-70.5 20.5l8 38q112 5 170.5 57t58.5 138q0 59 -26.5 96t-67 61t-87 40t-87 32t-67 37.5t-26.5 56.5q0 39 30.5 62.5t81.5 23.5q28 0 50.5 -2.5t43 -7.5
t41.5 -13.5t45 -21.5z" />
    <glyph glyph-name="Scircumflex" unicode="&#x15c;" horiz-adv-x="594" 
d="M436 746l-125 165h-60l-126 -165h94l62 100l62 -100h93zM516 637q-43 30 -99 44.5t-125 14.5q-113 0 -171.5 -51t-58.5 -139q0 -58 26.5 -93.5t67 -58.5t87 -38t87 -32t67 -40t26.5 -61q0 -44 -37 -67.5t-96 -23.5q-28 0 -51.5 2.5t-45 8.5t-42.5 15.5t-45 23.5l-45 -89
q42 -32 101.5 -48t128.5 -16q122 0 186 52.5t64 142.5q0 59 -27 96t-67 61t-87 40t-87 32t-67 37.5t-27 56.5q0 39 30.5 62.5t81.5 23.5q28 0 50.5 -2.5t43.5 -7.5t41.5 -13.5t44.5 -21.5z" />
    <glyph glyph-name="Tbar" unicode="&#x166;" horiz-adv-x="515" 
d="M314 580h180v104h-475v-104h181v-79h-164v-89h164v-412h114v412h167v89h-167v79z" />
    <glyph glyph-name="Tcaron" unicode="&#x164;" horiz-adv-x="515" 
d="M323 912l-62 -100l-62 100h-94l126 -165h60l125 165h-93zM314 580h180v104h-475v-104h181v-580h114v580z" />
    <glyph glyph-name="Ubreve" unicode="&#x16c;" 
d="M201 856q0 -68 36.5 -100.5t102.5 -32.5q68 0 103.5 32t35.5 101h-85q0 -37 -14 -52.5t-40 -15.5q-27 0 -41 15.5t-14 52.5h-84zM77 262q0 -136 65.5 -204.5t199.5 -68.5q132 0 197.5 68.5t65.5 204.5v422h-114v-422q0 -47 -8.5 -80t-26.5 -53t-46.5 -29t-67.5 -9
q-42 0 -71 9t-46.5 29t-25.5 53t-8 80v422h-114v-422z" />
    <glyph glyph-name="Uhungarumlaut" unicode="&#x170;" 
d="M216 746h71l96 170h-107zM369 746h71l96 170h-107zM77 262q0 -136 65.5 -204.5t199.5 -68.5q132 0 197.5 68.5t65.5 204.5v422h-114v-422q0 -47 -8.5 -80t-26.5 -53t-46.5 -29t-67.5 -9q-42 0 -71 9t-46.5 29t-25.5 53t-8 80v422h-114v-422z" />
    <glyph glyph-name="Umacron" unicode="&#x16a;" 
d="M207 734h247v76h-247v-76zM77 262q0 -136 65.5 -204.5t199.5 -68.5q132 0 197.5 68.5t65.5 204.5v422h-114v-422q0 -47 -8.5 -80t-26.5 -53t-46.5 -29t-67.5 -9q-42 0 -71 9t-46.5 29t-25.5 53t-8 80v422h-114v-422z" />
    <glyph glyph-name="Uogonek" unicode="&#x172;" 
d="M604 684h-113v-422q0 -47 -8.5 -80t-26.5 -53t-46.5 -29t-67.5 -9q-42 0 -71 9t-46.5 29t-25.5 53t-8 80v422h-114v-422q0 -247 217 -271q-51 -56 -51 -105q0 -33 22.5 -58.5t73.5 -25.5q33 0 74 14l-21 66q-14 -7 -22 -8.5t-16 -1.5q-18 0 -25.5 13t-7.5 30q0 33 30 74
q128 2 190.5 70.5t62.5 202.5v422z" />
    <glyph glyph-name="Uring" unicode="&#x16e;" 
d="M225 806q0 -49 30 -79.5t82 -30.5q53 0 83 29.5t30 80.5q0 49 -31 80t-82 31q-52 0 -82 -31t-30 -80zM289 806q0 24 12.5 38t35.5 14q24 0 36 -14t12 -38q0 -23 -12.5 -37t-35.5 -14t-35.5 13.5t-12.5 37.5zM77 262q0 -136 65.5 -204.5t199.5 -68.5q132 0 197.5 68.5
t65.5 204.5v422h-114v-422q0 -47 -8.5 -80t-26.5 -53t-46.5 -29t-67.5 -9q-42 0 -71 9t-46.5 29t-25.5 53t-8 80v422h-114v-422z" />
    <glyph glyph-name="Utilde" unicode="&#x168;" 
d="M459 848q-14 -14 -23.5 -21.5t-17 -12t-14 -5.5t-14.5 -1q-19 2 -35 9.5t-31 15.5t-30.5 14.5t-32.5 6.5q-15 0 -27.5 -2t-26 -8.5t-29 -18.5t-36.5 -31l48 -61q13 14 22.5 22t17 12.5t14.5 5.5t15 1q18 -1 33.5 -8.5t30.5 -16t31 -15.5t34 -7q15 0 27.5 2t26 8.5
t29 18.5t35.5 32zM77 262q0 -136 65.5 -204.5t199.5 -68.5q132 0 197.5 68.5t65.5 204.5v422h-114v-422q0 -47 -8.5 -80t-26.5 -53t-46.5 -29t-67.5 -9q-42 0 -71 9t-46.5 29t-25.5 53t-8 80v422h-114v-422z" />
    <glyph glyph-name="Wacute" unicode="&#x1e82;" horiz-adv-x="873" 
d="M397 746h71l96 170h-107zM186 0h119l130 498l131 -498h119l169 684h-127l-110 -507l-123 507h-117l-123 -507l-110 507h-127z" />
    <glyph glyph-name="Wcircumflex" unicode="&#x174;" horiz-adv-x="873" 
d="M590 746l-125 165h-60l-126 -165h94l62 100l62 -100h93zM186 0h119l130 498l131 -498h119l169 684h-127l-110 -507l-123 507h-117l-123 -507l-110 507h-127z" />
    <glyph glyph-name="Wdieresis" unicode="&#x1e84;" horiz-adv-x="873" 
d="M286 803q0 -26 17.5 -43.5t43.5 -17.5t44 17.5t18 43.5t-18 44t-44 18t-43.5 -18t-17.5 -44zM455 803q0 -26 17.5 -43.5t43.5 -17.5t44 17.5t18 43.5t-18 44t-44 18t-43.5 -18t-17.5 -44zM186 0h119l130 498l131 -498h119l169 684h-127l-110 -507l-123 507h-117
l-123 -507l-110 507h-127z" />
    <glyph glyph-name="Wgrave" unicode="&#x1e80;" horiz-adv-x="873" 
d="M406 916h-107l96 -170h71zM186 0h119l130 498l131 -498h119l169 684h-127l-110 -507l-123 507h-117l-123 -507l-110 507h-127z" />
    <glyph glyph-name="Ycircumflex" unicode="&#x176;" horiz-adv-x="612" 
d="M458 746l-125 165h-60l-126 -165h94l62 100l62 -100h93zM305 408l-155 276h-137l235 -380v-304h114v304l236 380h-138z" />
    <glyph glyph-name="Ydieresis" unicode="&#x178;" horiz-adv-x="612" 
d="M157 803q0 -26 17.5 -43.5t43.5 -17.5t44 17.5t18 43.5t-18 44t-44 18t-43.5 -18t-17.5 -44zM326 803q0 -26 17.5 -43.5t43.5 -17.5t44 17.5t18 43.5t-18 44t-44 18t-43.5 -18t-17.5 -44zM305 408l-155 276h-137l235 -380v-304h114v304l236 380h-138z" />
    <glyph glyph-name="Zacute" unicode="&#x179;" horiz-adv-x="562" 
d="M219 746h71l96 170h-107zM531 590v94h-488v-99h353l-370 -485v-100h501v99h-367z" />
    <glyph glyph-name="Zcaron" unicode="&#x17d;" horiz-adv-x="562" 
d="M336 912l-62 -100l-62 100h-94l126 -165h60l125 165h-93zM531 590v94h-488v-99h353l-370 -485v-100h501v99h-367z" />
    <glyph glyph-name="Zdotaccent" unicode="&#x17b;" horiz-adv-x="562" 
d="M218 796q0 -26 17.5 -43.5t43.5 -17.5t44 17.5t18 43.5t-18 44t-44 18t-43.5 -18t-17.5 -44zM531 590v94h-488v-99h353l-370 -485v-100h501v99h-367z" />
    <glyph glyph-name="uni0122" unicode="&#x122;" horiz-adv-x="681" 
d="M623 637q-52 30 -112 44.5t-141 14.5q-75 0 -134 -25.5t-100.5 -72t-63 -112.5t-21.5 -147q0 -80 20.5 -145t60 -110.5t96.5 -70.5t131 -25q49 0 86.5 3.5t68.5 11t57 18.5t52 26v331h-253v-87h150v-175q-35 -14 -68.5 -19.5t-78.5 -5.5q-103 0 -154 66t-51 182
q0 57 14 104t41.5 80.5t67.5 51.5t93 18q32 0 56 -2.5t45.5 -7.5t43 -13.5t49.5 -21.5zM246 -220h71l96 170h-107z" />
    <glyph glyph-name="uni0136" unicode="&#x136;" horiz-adv-x="627" 
d="M77 0h114v229l83 89l194 -318h133l-255 404l230 280h-136l-249 -299v299h-114v-684zM202 -220h71l96 170h-107z" />
    <glyph glyph-name="uni013B" unicode="&#x13b;" horiz-adv-x="525" 
d="M191 684h-114v-684h413v100h-299v584zM161 -220h71l96 170h-107z" />
    <glyph glyph-name="uni0145" unicode="&#x145;" horiz-adv-x="706" 
d="M620 0v684h-113v-490l-316 490h-114v-684h114v489l316 -489h113zM234 -220h71l96 170h-107z" />
    <glyph glyph-name="uni0156" unicode="&#x156;" horiz-adv-x="635" 
d="M315 262l157 -262h124l-168 277q133 44 133 195q0 104 -61.5 158t-182.5 54h-240v-684h113v262h125zM300 589q75 0 109 -28.5t34 -88.5q0 -57 -34.5 -87t-108.5 -30h-110v234h110zM201 -220h71l96 170h-107z" />
    <glyph glyph-name="uni0162" unicode="&#x162;" horiz-adv-x="515" 
d="M314 580h180v104h-475v-104h181v-580h114v580zM144 -220h71l96 170h-107z" />
    <glyph glyph-name="uni0218" unicode="&#x218;" horiz-adv-x="594" 
d="M516 637q-43 30 -99 44.5t-125 14.5q-113 0 -171.5 -51t-58.5 -139q0 -58 26.5 -93.5t67 -58.5t87 -38t87 -32t67 -40t26.5 -61q0 -44 -37 -67.5t-96 -23.5q-28 0 -51.5 2.5t-45 8.5t-42.5 15.5t-45 23.5l-45 -89q42 -32 101.5 -48t128.5 -16q122 0 186 52.5t64 142.5
q0 59 -27 96t-67 61t-87 40t-87 32t-67 37.5t-27 56.5q0 39 30.5 62.5t81.5 23.5q28 0 50.5 -2.5t43.5 -7.5t41.5 -13.5t44.5 -21.5zM181 -220h71l96 170h-107z" />
    <glyph glyph-name="uni021A" unicode="&#x21a;" horiz-adv-x="515" 
d="M314 580h180v104h-475v-104h181v-580h114v580zM149 -220h71l96 170h-107z" />
    <glyph glyph-name="I.aalt" horiz-adv-x="507" 
d="M431 684h-354v-99h120v-486h-120v-99h354v99h-120v486h120v99z" />
    <glyph glyph-name="Iacute.aalt" horiz-adv-x="507" 
d="M217 746h71l96 170h-107zM431 684h-354v-99h120v-486h-120v-99h354v99h-120v486h120v99z" />
    <glyph glyph-name="Icircumflex.aalt" horiz-adv-x="507" 
d="M410 746l-125 165h-60l-126 -165h94l62 100l62 -100h93zM431 684h-354v-99h120v-486h-120v-99h354v99h-120v486h120v99z" />
    <glyph glyph-name="Idieresis.aalt" horiz-adv-x="507" 
d="M106 803q0 -26 17.5 -43.5t43.5 -17.5t44 17.5t18 43.5t-18 44t-44 18t-43.5 -18t-17.5 -44zM275 803q0 -26 17.5 -43.5t43.5 -17.5t44 17.5t18 43.5t-18 44t-44 18t-43.5 -18t-17.5 -44zM431 684h-354v-99h120v-486h-120v-99h354v99h-120v486h120v99z" />
    <glyph glyph-name="Idotaccent.aalt" horiz-adv-x="507" 
d="M191 796q0 -26 17.5 -43.5t43.5 -17.5t44 17.5t18 43.5t-18 44t-44 18t-43.5 -18t-17.5 -44zM431 684h-354v-99h120v-486h-120v-99h354v99h-120v486h120v99z" />
    <glyph glyph-name="Igrave.aalt" horiz-adv-x="517" 
d="M226 916h-107l96 -170h71zM431 684h-354v-99h120v-486h-120v-99h354v99h-120v486h120v99z" />
    <glyph glyph-name="Imacron.aalt" horiz-adv-x="507" 
d="M129 734h247v76h-247v-76zM431 684h-354v-99h120v-486h-120v-99h354v99h-120v486h120v99z" />
    <glyph glyph-name="Iogonek.aalt" horiz-adv-x="507" 
d="M310 585h121v99h-354v-99h120v-486h-120v-99h131q-58 -61 -58 -114q0 -16 5.5 -31t17.5 -27t30 -19t43 -7q33 0 74 14l-21 66q-14 -7 -22.5 -8.5t-15.5 -1.5q-19 0 -26 13t-7 30q0 39 38 85h164v99h-120v486z" />
    <glyph glyph-name="Itilde.aalt" horiz-adv-x="520" 
d="M394 848q-14 -14 -23.5 -21.5t-17 -12t-14 -5.5t-14.5 -1q-19 2 -35 9.5t-31.5 15.5t-30.5 14.5t-32 6.5q-15 0 -28 -2t-26.5 -8.5t-29 -18.5t-35.5 -31l48 -61q13 14 22.5 22t17 12.5t14.5 5.5t15 1q18 -1 33.5 -8.5t30.5 -16t31 -15.5t34 -7q14 0 26.5 2t26 8.5
t29 18.5t36.5 32zM438 684h-354v-99h120v-486h-120v-99h354v99h-120v486h120v99z" />
    <glyph glyph-name="Q.aalt" horiz-adv-x="774" 
d="M655 -96l68 68l-105 106q42 44 64.5 109.5t22.5 156.5q0 79 -21 144t-62 111t-102 71.5t-141 25.5q-81 0 -142 -25t-102.5 -71t-62.5 -111t-21 -145q0 -90 23 -157t66 -111t103.5 -65.5t135.5 -21.5q45 0 85 7.5t74 24.5zM377 91q-101 2 -155 66.5t-54 189.5
q0 56 13 101.5t39.5 77.5t65.5 49.5t92 17.5q51 0 90.5 -17.5t66 -49.5t40 -77.5t13.5 -101.5q0 -127 -56.5 -191.5t-154.5 -64.5z" />
    <glyph glyph-name="abreve" unicode="&#x103;" horiz-adv-x="574" 
d="M140 717q0 -68 36.5 -100.5t102.5 -32.5q68 0 103.5 32t35.5 101h-85q0 -37 -14 -52.5t-40 -15.5q-27 0 -41 15.5t-14 52.5h-84zM379 0h112v327q0 43 -15 78t-41.5 59t-63 37t-78.5 13q-66 0 -123.5 -14.5t-97.5 -44.5l45 -84q22 13 42 21.5t40 13.5t41.5 7.5t47.5 2.5
q39 0 65 -24.5t26 -64.5v-58q-21 8 -42 14q-18 5 -39.5 9.5t-41.5 6.5q-26 3 -61 -0.5t-67 -20t-54.5 -49.5t-22.5 -88q0 -77 45 -115t120 -38q30 0 55.5 6.5t45.5 17t35.5 23t26.5 23.5v-58zM379 180q0 -20 -8 -39t-24.5 -34t-41 -24t-57.5 -9q-26 0 -44 6t-28.5 15.5
t-15 22.5t-4.5 28q0 18 7.5 34.5t22 28t36 17.5t50.5 3q17 -2 35.5 -5.5t34.5 -8.5q18 -5 37 -11v-24z" />
    <glyph glyph-name="amacron" unicode="&#x101;" horiz-adv-x="574" 
d="M157 593h247v76h-247v-76zM379 0h112v327q0 43 -15 78t-41.5 59t-63 37t-78.5 13q-66 0 -123.5 -14.5t-97.5 -44.5l45 -84q22 13 42 21.5t40 13.5t41.5 7.5t47.5 2.5q39 0 65 -24.5t26 -64.5v-58q-21 8 -42 14q-18 5 -39.5 9.5t-41.5 6.5q-26 3 -61 -0.5t-67 -20
t-54.5 -49.5t-22.5 -88q0 -77 45 -115t120 -38q30 0 55.5 6.5t45.5 17t35.5 23t26.5 23.5v-58zM379 180q0 -20 -8 -39t-24.5 -34t-41 -24t-57.5 -9q-26 0 -44 6t-28.5 15.5t-15 22.5t-4.5 28q0 18 7.5 34.5t22 28t36 17.5t50.5 3q17 -2 35.5 -5.5t34.5 -8.5q18 -5 37 -11
v-24z" />
    <glyph glyph-name="aogonek" unicode="&#x105;" horiz-adv-x="593" 
d="M493 -118q-14 -7 -22 -8.5t-16 -1.5q-18 0 -25.5 13t-7.5 30q0 39 38 85h31v327q0 43 -15 78t-41.5 59t-63 37t-78.5 13q-66 0 -123.5 -14.5t-97.5 -44.5l45 -84q22 13 42 21.5t40 13.5t41.5 7.5t47.5 2.5q39 0 65 -24.5t26 -64.5v-58q-21 8 -42 14q-18 5 -39.5 9.5
t-41.5 6.5q-26 3 -61 -0.5t-67 -20t-54.5 -49.5t-22.5 -88q0 -77 45 -115t120 -38q30 0 55.5 6.5t45.5 17t35.5 23t26.5 23.5v-58h23q-28 -30 -43 -58.5t-15 -55.5q0 -33 22.5 -58.5t73.5 -25.5q33 0 74 14zM379 180q0 -20 -8 -39t-24.5 -34t-41 -24t-57.5 -9q-26 0 -44 6
t-28.5 15.5t-15 22.5t-4.5 28q0 18 7.5 34.5t22 28t36 17.5t50.5 3q17 -2 35.5 -5.5t34.5 -8.5q18 -5 37 -11v-24z" />
    <glyph glyph-name="cacute" unicode="&#x107;" horiz-adv-x="565" 
d="M238 568h71l96 170h-107zM468 131q-21 -13 -39 -22t-36.5 -14.5t-39 -8t-44.5 -2.5q-68 0 -103.5 40t-35.5 124t35 126t103 42q24 0 44.5 -2.5t39 -7.5t37 -13.5t39.5 -21.5l45 84q-39 30 -95 44.5t-120 14.5q-124 0 -185.5 -67t-61.5 -198q0 -60 16 -108.5t47.5 -82
t77.5 -52t106 -18.5q65 0 120.5 14.5t94.5 44.5z" />
    <glyph glyph-name="ccaron" unicode="&#x10d;" horiz-adv-x="565" 
d="M359 733l-62 -100l-62 100h-94l126 -165h60l125 165h-93zM468 131q-21 -13 -39 -22t-36.5 -14.5t-39 -8t-44.5 -2.5q-68 0 -103.5 40t-35.5 124t35 126t103 42q24 0 44.5 -2.5t39 -7.5t37 -13.5t39.5 -21.5l45 84q-39 30 -95 44.5t-120 14.5q-124 0 -185.5 -67
t-61.5 -198q0 -60 16 -108.5t47.5 -82t77.5 -52t106 -18.5q65 0 120.5 14.5t94.5 44.5z" />
    <glyph glyph-name="ccircumflex" unicode="&#x109;" horiz-adv-x="565" 
d="M453 568l-125 165h-60l-126 -165h94l62 100l62 -100h93zM468 131q-21 -13 -39 -22t-36.5 -14.5t-39 -8t-44.5 -2.5q-68 0 -103.5 40t-35.5 124t35 126t103 42q24 0 44.5 -2.5t39 -7.5t37 -13.5t39.5 -21.5l45 84q-39 30 -95 44.5t-120 14.5q-124 0 -185.5 -67t-61.5 -198
q0 -60 16 -108.5t47.5 -82t77.5 -52t106 -18.5q65 0 120.5 14.5t94.5 44.5z" />
    <glyph glyph-name="cdotaccent" unicode="&#x10b;" horiz-adv-x="565" 
d="M238 645q0 -26 17.5 -43.5t43.5 -17.5t44 17.5t18 43.5t-18 44t-44 18t-43.5 -18t-17.5 -44zM468 131q-21 -13 -39 -22t-36.5 -14.5t-39 -8t-44.5 -2.5q-68 0 -103.5 40t-35.5 124t35 126t103 42q24 0 44.5 -2.5t39 -7.5t37 -13.5t39.5 -21.5l45 84q-39 30 -95 44.5
t-120 14.5q-124 0 -185.5 -67t-61.5 -198q0 -60 16 -108.5t47.5 -82t77.5 -52t106 -18.5q65 0 120.5 14.5t94.5 44.5z" />
    <glyph glyph-name="dcaron" unicode="&#x10f;" horiz-adv-x="827" 
d="M434 0h114v720h-114v-279q-30 38 -72.5 55.5t-88.5 17.5q-110 0 -166 -67.5t-56 -197.5q0 -120 55.5 -190.5t161.5 -70.5q57 0 95 17.5t71 52.5v-58zM621 494h71l76 170h-107zM176 249q0 83 33 125t94 42q40 0 66 -11t40 -32t19.5 -51.5t5.5 -69.5q0 -80 -28 -124
t-101 -44q-64 0 -96.5 40t-32.5 125z" />
    <glyph glyph-name="dcroat" unicode="&#x111;" horiz-adv-x="635" 
d="M618 564v75h-70v81h-114v-81h-101v-75h101v-123q-30 38 -72.5 55.5t-88.5 17.5q-110 0 -166 -67.5t-56 -197.5q0 -120 55.5 -190.5t161.5 -70.5q57 0 95 17.5t71 52.5v-58h114v564h70zM305 84q-64 0 -96.5 40t-32.5 125q0 83 33 125t94 42q40 0 66 -11t40 -32t19.5 -51.5
t5.5 -69.5q0 -80 -28 -124t-101 -44z" />
    <glyph glyph-name="ebreve" unicode="&#x115;" horiz-adv-x="591" 
d="M149 717q0 -68 36.5 -100.5t102.5 -32.5q68 0 103.5 32t35.5 101h-85q0 -37 -14 -52.5t-40 -15.5q-27 0 -41 15.5t-14 52.5h-84zM473 131q-23 -13 -43 -22t-40.5 -14.5t-42.5 -8t-49 -2.5q-66 0 -99.5 35t-33.5 100h365q7 61 -3 114.5t-39.5 93.5t-78.5 63.5t-120 23.5
q-118 0 -178 -67t-60 -198q0 -60 16.5 -108.5t48 -82t77.5 -52t105 -18.5q66 0 123 14.5t97 44.5zM167 292q0 58 32.5 91t89.5 33q60 0 94 -32t32 -92h-248z" />
    <glyph glyph-name="ecaron" unicode="&#x11b;" horiz-adv-x="591" 
d="M348 733l-62 -100l-62 100h-94l126 -165h60l125 165h-93zM473 131q-23 -13 -43 -22t-40.5 -14.5t-42.5 -8t-49 -2.5q-66 0 -99.5 35t-33.5 100h365q7 61 -3 114.5t-39.5 93.5t-78.5 63.5t-120 23.5q-118 0 -178 -67t-60 -198q0 -60 16.5 -108.5t48 -82t77.5 -52
t105 -18.5q66 0 123 14.5t97 44.5zM167 292q0 58 32.5 91t89.5 33q60 0 94 -32t32 -92h-248z" />
    <glyph glyph-name="edotaccent" unicode="&#x117;" horiz-adv-x="591" 
d="M222 645q0 -26 17.5 -43.5t43.5 -17.5t44 17.5t18 43.5t-18 44t-44 18t-43.5 -18t-17.5 -44zM473 131q-23 -13 -43 -22t-40.5 -14.5t-42.5 -8t-49 -2.5q-66 0 -99.5 35t-33.5 100h365q7 61 -3 114.5t-39.5 93.5t-78.5 63.5t-120 23.5q-118 0 -178 -67t-60 -198
q0 -60 16.5 -108.5t48 -82t77.5 -52t105 -18.5q66 0 123 14.5t97 44.5zM167 292q0 58 32.5 91t89.5 33q60 0 94 -32t32 -92h-248z" />
    <glyph glyph-name="emacron" unicode="&#x113;" horiz-adv-x="591" 
d="M162 593h247v76h-247v-76zM473 131q-23 -13 -43 -22t-40.5 -14.5t-42.5 -8t-49 -2.5q-66 0 -99.5 35t-33.5 100h365q7 61 -3 114.5t-39.5 93.5t-78.5 63.5t-120 23.5q-118 0 -178 -67t-60 -198q0 -60 16.5 -108.5t48 -82t77.5 -52t105 -18.5q66 0 123 14.5t97 44.5z
M167 292q0 58 32.5 91t89.5 33q60 0 94 -32t32 -92h-248z" />
    <glyph glyph-name="eogonek" unicode="&#x119;" horiz-adv-x="591" 
d="M349 -118q-14 -7 -22 -8.5t-16 -1.5q-18 0 -25.5 13t-7.5 30q0 33 29 73q63 1 118 15.5t93 43.5l-45 84q-23 -13 -43 -22t-40.5 -14.5t-42.5 -8t-49 -2.5q-66 0 -99.5 34.5t-33.5 100.5h365q7 60 -3.5 114t-39.5 94t-78 63.5t-120 23.5q-118 0 -178 -67t-60 -198
q0 -109 51.5 -176.5t148.5 -81.5q-51 -57 -51 -105q0 -33 22.5 -58.5t73.5 -25.5q33 0 74 14zM167 292q0 58 32.5 91t89.5 33q60 0 94 -32.5t32 -91.5h-248z" />
    <glyph glyph-name="gbreve" unicode="&#x11f;" horiz-adv-x="623" 
d="M151 717q0 -68 36.5 -100.5t102.5 -32.5q68 0 103.5 32t35.5 101h-85q0 -37 -14 -52.5t-40 -15.5q-27 0 -41 15.5t-14 52.5h-84zM434 10q0 -72 -34 -105t-102 -33q-27 0 -49 2.5t-42.5 7.5t-41 14t-42.5 22l-45 -84q40 -30 97 -44.5t123 -14.5q61 0 108 17t78.5 48
t47.5 74t16 96v492h-114v-61q-30 38 -72.5 55.5t-88.5 17.5q-110 0 -166 -67.5t-56 -197.5q0 -120 55.5 -190.5t161.5 -70.5q57 0 95 17.5t71 52.5v-48zM176 249q0 83 33 125t94 42q40 0 66 -11t40 -32t19.5 -51.5t5.5 -69.5q0 -80 -28 -124t-101 -44q-64 0 -96.5 40
t-32.5 125z" />
    <glyph glyph-name="gcircumflex" unicode="&#x11d;" horiz-adv-x="623" 
d="M454 568l-125 165h-60l-126 -165h94l62 100l62 -100h93zM434 10q0 -72 -34 -105t-102 -33q-27 0 -49 2.5t-42.5 7.5t-41 14t-42.5 22l-45 -84q40 -30 97 -44.5t123 -14.5q61 0 108 17t78.5 48t47.5 74t16 96v492h-114v-61q-30 38 -72.5 55.5t-88.5 17.5
q-110 0 -166 -67.5t-56 -197.5q0 -120 55.5 -190.5t161.5 -70.5q57 0 95 17.5t71 52.5v-48zM176 249q0 83 33 125t94 42q40 0 66 -11t40 -32t19.5 -51.5t5.5 -69.5q0 -80 -28 -124t-101 -44q-64 0 -96.5 40t-32.5 125z" />
    <glyph glyph-name="gdotaccent" unicode="&#x121;" horiz-adv-x="623" 
d="M227 645q0 -26 17.5 -43.5t43.5 -17.5t44 17.5t18 43.5t-18 44t-44 18t-43.5 -18t-17.5 -44zM434 10q0 -72 -34 -105t-102 -33q-27 0 -49 2.5t-42.5 7.5t-41 14t-42.5 22l-45 -84q40 -30 97 -44.5t123 -14.5q61 0 108 17t78.5 48t47.5 74t16 96v492h-114v-61
q-30 38 -72.5 55.5t-88.5 17.5q-110 0 -166 -67.5t-56 -197.5q0 -120 55.5 -190.5t161.5 -70.5q57 0 95 17.5t71 52.5v-48zM176 249q0 83 33 125t94 42q40 0 66 -11t40 -32t19.5 -51.5t5.5 -69.5q0 -80 -28 -124t-101 -44q-64 0 -96.5 40t-32.5 125z" />
    <glyph glyph-name="hbar" unicode="&#x127;" horiz-adv-x="596" 
d="M194 566h164v79h-164v75h-114v-75h-54v-79h54v-566h114v262q0 37 5 66t18.5 48.5t38 29.5t64.5 10q49 0 75.5 -27t26.5 -87v-302h115v332q0 47 -17 81t-44.5 56.5t-62 33.5t-68.5 11q-43 0 -83 -17.5t-68 -55.5v125z" />
    <glyph glyph-name="hcircumflex" unicode="&#x125;" horiz-adv-x="617" 
d="M320 746l-125 165h-60l-126 -165h94l62 100l62 -100h93zM215 262q0 37 5 66t18.5 48.5t38 29.5t64.5 10q49 0 75.5 -27t26.5 -87v-302h115v332q0 47 -17 81t-44.5 56.5t-62 33.5t-68.5 11q-43 0 -83 -17.5t-68 -55.5v279h-114v-720h114v262z" />
    <glyph glyph-name="dotlessi" unicode="&#x131;" horiz-adv-x="267" 
d="M77 0h114v502h-114v-502z" />
    <glyph glyph-name="imacron" unicode="&#x12b;" horiz-adv-x="237" 
d="M-5 593h247v76h-247v-76zM62 0h114v502h-114v-502z" />
    <glyph glyph-name="iogonek" unicode="&#x12f;" horiz-adv-x="272" 
d="M141 573q29 0 48 18.5t19 47.5t-19 48t-48 19t-47.5 -19t-18.5 -48t18.5 -47.5t47.5 -18.5zM200 -118q-14 -7 -22 -8.5t-16 -1.5q-18 0 -25.5 13t-7.5 30q0 39 38 85h31v502h-114v-502h25q-28 -30 -43 -58.5t-15 -55.5q0 -16 5.5 -31t17.5 -27t30 -19t43 -7q33 0 74 14z
" />
    <glyph glyph-name="itilde" unicode="&#x129;" horiz-adv-x="237" 
d="M253 693q-14 -14 -23.5 -21.5t-17 -12t-14 -5.5t-14.5 -1q-19 2 -35 9.5t-31.5 15.5t-30.5 14.5t-32 6.5q-15 0 -28 -2t-26.5 -8.5t-29 -18.5t-36.5 -31l48 -61q14 14 23.5 22t17 12.5t14.5 5.5t15 1q18 -1 33.5 -8.5t30.5 -16t31 -15.5t34 -7q14 0 26.5 2t26 9t29 18.5
t36.5 31.5zM62 0h114v502h-114v-502z" />
    <glyph glyph-name="dotlessj" unicode="&#x237;" horiz-adv-x="289" 
d="M99 -60q0 -37 -6 -57t-31 -20q-28 -2 -58 15l-30 -83q16 -8 29 -13t24.5 -7.5t23.5 -4t26 -1.5q40 0 66 10.5t41.5 31t22 51t6.5 71.5v569h-114v-562z" />
    <glyph glyph-name="jcircumflex" unicode="&#x135;" horiz-adv-x="324" 
d="M299 568l-125 165h-60l-127 -165h95l62 100l62 -100h93zM105 -60q0 -37 -6 -57t-31 -20q-12 -1 -27.5 3t-29.5 12l-30 -83q16 -8 28.5 -13t24 -7.5t23.5 -4t26 -1.5q40 0 66.5 10.5t42 31t21.5 51t6 71.5v569h-114v-562z" />
    <glyph glyph-name="lacute" unicode="&#x13a;" horiz-adv-x="270" 
d="M90 746h71l96 170h-107zM68 0h114v720h-114v-720z" />
    <glyph glyph-name="lcaron" unicode="&#x13e;" horiz-adv-x="470" 
d="M68 0h114v720h-114v-720zM253 494h71l76 170h-107z" />
    <glyph glyph-name="ldot" unicode="&#x140;" horiz-adv-x="462" 
d="M68 0h114v720h-114v-720zM288 421q0 -26 17.5 -43.5t43.5 -17.5t44 17.5t18 43.5t-18 44t-44 18t-43.5 -18t-17.5 -44z" />
    <glyph glyph-name="lslash" unicode="&#x142;" horiz-adv-x="250" 
d="M242 384v86l-61 -27v277h-114v-326l-58 -24v-86l58 24v-308h114v357z" />
    <glyph glyph-name="nacute" unicode="&#x144;" horiz-adv-x="585" 
d="M264 568h71l96 170h-107zM182 262q0 37 5 66t18.5 48.5t38 29.5t64.5 10q49 0 75.5 -27t26.5 -87v-302h115v332q0 47 -17 81t-44.5 56.5t-62 33.5t-68.5 11q-43 0 -82.5 -17.5t-68.5 -55.5v61h-114v-502h114v262z" />
    <glyph glyph-name="ncaron" unicode="&#x148;" horiz-adv-x="585" 
d="M364 733l-62 -100l-62 100h-94l126 -165h60l125 165h-93zM182 262q0 37 5 66t18.5 48.5t38 29.5t64.5 10q49 0 75.5 -27t26.5 -87v-302h115v332q0 47 -17 81t-44.5 56.5t-62 33.5t-68.5 11q-43 0 -82.5 -17.5t-68.5 -55.5v61h-114v-502h114v262z" />
    <glyph glyph-name="obreve" unicode="&#x14f;" horiz-adv-x="595" 
d="M151 717q0 -68 36.5 -100.5t102.5 -32.5q68 0 103.5 32t35.5 101h-85q0 -37 -14 -52.5t-40 -15.5q-27 0 -41 15.5t-14 52.5h-84zM295 -12q117 0 179.5 70.5t62.5 190.5q0 131 -60.5 198t-181.5 67q-122 0 -183 -67t-61 -198q0 -60 16 -108.5t47 -82t76.5 -52t104.5 -18.5
zM294 84q-62 0 -94.5 40t-32.5 124q0 81 33 122t95 41q61 0 93.5 -41t32.5 -122q0 -164 -127 -164z" />
    <glyph glyph-name="ohungarumlaut" unicode="&#x151;" horiz-adv-x="595" 
d="M160 568h71l96 170h-107zM314 568h71l96 170h-107zM295 -12q117 0 179.5 70.5t62.5 190.5q0 131 -60.5 198t-181.5 67q-122 0 -183 -67t-61 -198q0 -60 16 -108.5t47 -82t76.5 -52t104.5 -18.5zM294 84q-62 0 -94.5 40t-32.5 124q0 81 33 122t95 41q61 0 93.5 -41
t32.5 -122q0 -164 -127 -164z" />
    <glyph glyph-name="omacron" unicode="&#x14d;" horiz-adv-x="595" 
d="M168 593h247v76h-247v-76zM295 -12q117 0 179.5 70.5t62.5 190.5q0 131 -60.5 198t-181.5 67q-122 0 -183 -67t-61 -198q0 -60 16 -108.5t47 -82t76.5 -52t104.5 -18.5zM294 84q-62 0 -94.5 40t-32.5 124q0 81 33 122t95 41q61 0 93.5 -41t32.5 -122q0 -164 -127 -164z
" />
    <glyph glyph-name="oe" unicode="&#x153;" horiz-adv-x="960" 
d="M849 131q-23 -13 -43 -22t-40.5 -14.5t-42.5 -8t-49 -2.5q-66 0 -99.5 35t-33.5 100h365q7 61 -3.5 114.5t-39.5 93.5t-78 63.5t-120 23.5q-127 0 -184 -90q-59 90 -186 90q-122 0 -183 -67t-61 -198q0 -60 16 -108.5t47 -82t76.5 -52t104.5 -18.5q64 0 111 25t76 70
q31 -45 78.5 -70t113.5 -25t123 14.5t97 44.5zM543 292q0 58 31 91t88 33q60 0 92.5 -32t30.5 -92h-242zM294 84q-62 0 -94.5 40t-32.5 124q0 81 33 122t95 41q61 0 93.5 -41t32.5 -122q0 -164 -127 -164z" />
    <glyph glyph-name="racute" unicode="&#x155;" horiz-adv-x="364" 
d="M145 568h71l96 170h-107zM323 514q-40 0 -77 -17.5t-64 -55.5v61h-114v-502h114v262q0 37 5 66t18.5 48.5t38 29.5t64.5 10l31 -3v101h-16z" />
    <glyph glyph-name="rcaron" unicode="&#x159;" horiz-adv-x="398" 
d="M286 733l-62 -100l-62 100h-94l126 -165h60l125 165h-93zM346 514q-40 0 -77 -17.5t-64 -55.5v61h-114v-502h114v262q0 37 5 66t18.5 48.5t38 29.5t64.5 10l31 -3v101h-16z" />
    <glyph glyph-name="sacute" unicode="&#x15b;" horiz-adv-x="510" 
d="M210 568h71l96 170h-107zM439 455q-75 59 -197 59q-48 0 -83 -12t-57.5 -33t-33.5 -49t-11 -60q0 -43 20.5 -69t50.5 -42.5t66 -26.5t66 -20t50.5 -23t20.5 -36q0 -32 -22.5 -48t-57.5 -16q-24 0 -44.5 2.5t-39 8t-37 14.5t-39.5 22l-40 -79q38 -30 91 -44.5t114 -14.5
q93 0 144 43t51 111q0 45 -20.5 72t-51.5 43t-67.5 25.5t-67.5 18.5t-51.5 22t-20.5 36q0 37 24.5 49.5t59.5 12.5q23 0 41 -2.5t34.5 -7.5t32.5 -13.5t35 -21.5z" />
    <glyph glyph-name="scaron" unicode="&#x161;" horiz-adv-x="510" 
d="M309 733l-62 -100l-62 100h-94l126 -165h60l125 165h-93zM439 455q-75 59 -197 59q-48 0 -83 -12t-57.5 -33t-33.5 -49t-11 -60q0 -43 20.5 -69t50.5 -42.5t66 -26.5t66 -20t50.5 -23t20.5 -36q0 -32 -22.5 -48t-57.5 -16q-24 0 -44.5 2.5t-39 8t-37 14.5t-39.5 22
l-40 -79q38 -30 91 -44.5t114 -14.5q93 0 144 43t51 111q0 45 -20.5 72t-51.5 43t-67.5 25.5t-67.5 18.5t-51.5 22t-20.5 36q0 37 24.5 49.5t59.5 12.5q23 0 41 -2.5t34.5 -7.5t32.5 -13.5t35 -21.5z" />
    <glyph glyph-name="scedilla" unicode="&#x15f;" horiz-adv-x="510" 
d="M439 455q-75 59 -197 59q-48 0 -83 -12t-57.5 -33t-33.5 -49t-11 -60q0 -43 20.5 -69t50.5 -42.5t66 -26.5t66 -20t50.5 -23t20.5 -36q0 -32 -22.5 -48t-57.5 -16q-24 0 -44.5 2.5t-39 8t-37 14.5t-39.5 22l-40 -79q32 -26 76.5 -40t95.5 -18l-17 -79q8 1 14 1h19
q50 0 50 -41q0 -15 -11 -23t-27 -10q-20 0 -35 4t-32 17l-24 -50q20 -17 46.5 -24.5t55.5 -7.5q47 0 71 23t24 63q0 47 -23.5 68t-70.5 21l7 37q87 4 134 46.5t47 107.5q0 45 -20.5 72t-51.5 43t-67.5 25.5t-67.5 18.5t-51.5 22t-20.5 36q0 36 24.5 49t59.5 13q23 0 41 -2.5
t34.5 -7.5t32.5 -14t35 -21z" />
    <glyph glyph-name="scircumflex" unicode="&#x15d;" horiz-adv-x="510" 
d="M320 733l-62 -100l-62 100h-94l126 -165h60l125 165h-93zM439 455q-75 59 -197 59q-48 0 -83 -12t-57.5 -33t-33.5 -49t-11 -60q0 -43 20.5 -69t50.5 -42.5t66 -26.5t66 -20t50.5 -23t20.5 -36q0 -32 -22.5 -48t-57.5 -16q-24 0 -44.5 2.5t-39 8t-37 14.5t-39.5 22
l-40 -79q38 -30 91 -44.5t114 -14.5q93 0 144 43t51 111q0 45 -20.5 72t-51.5 43t-67.5 25.5t-67.5 18.5t-51.5 22t-20.5 36q0 37 24.5 49.5t59.5 12.5q23 0 41 -2.5t34.5 -7.5t32.5 -13.5t35 -21.5z" />
    <glyph glyph-name="longs" unicode="&#x17f;" horiz-adv-x="385" 
d="M235 562q0 37 6 57t31 20q28 2 58 -15l29 83q-32 16 -53 20.5t-49 5.5q-41 0 -67.5 -10t-42 -30.5t-21 -52t-5.5 -73.5v-65h-70v-83h70v-419h114v562z" />
    <glyph glyph-name="tbar" unicode="&#x167;" horiz-adv-x="403" 
d="M333 97q-30 -15 -58 -15q-25 1 -31 20.5t-6 56.5v124h79v83h-79v53h107v83h-107v112h-114v-112h-70v-83h70v-53h-73v-83h73v-129q0 -42 5.5 -73t21 -52t42 -31t67.5 -10q28 1 49 5.5t53 20.5z" />
    <glyph glyph-name="tcaron" unicode="&#x165;" horiz-adv-x="583" 
d="M392 494h71l76 170h-107zM342 502h-107v112h-114v-112h-70v-83h70v-265q0 -42 5.5 -73t21 -52t42 -31t67.5 -10q28 1 49 5.5t53 20.5l-29 83q-30 -15 -58 -15q-25 1 -31 20.5t-6 56.5v260h107v83z" />
    <glyph glyph-name="ubreve" unicode="&#x16d;" horiz-adv-x="602" 
d="M161 717q0 -68 36.5 -100.5t102.5 -32.5q68 0 103.5 32t35.5 101h-85q0 -37 -14 -52.5t-40 -15.5q-27 0 -41 15.5t-14 52.5h-84zM411 240q0 -37 -5 -66t-18.5 -48.5t-38 -29.5t-64.5 -10q-49 0 -75.5 27.5t-26.5 86.5v302h-115v-332q0 -47 17 -81t44.5 -56.5t61.5 -33.5
t69 -11q43 0 83 17.5t68 55.5v-61h114v502h-114v-262z" />
    <glyph glyph-name="uhungarumlaut" unicode="&#x171;" horiz-adv-x="602" 
d="M172 568h71l96 170h-107zM325 568h71l96 170h-107zM411 240q0 -37 -5 -66t-18.5 -48.5t-38 -29.5t-64.5 -10q-49 0 -75.5 27.5t-26.5 86.5v302h-115v-332q0 -47 17 -81t44.5 -56.5t61.5 -33.5t69 -11q43 0 83 17.5t68 55.5v-61h114v502h-114v-262z" />
    <glyph glyph-name="umacron" unicode="&#x16b;" horiz-adv-x="602" 
d="M174 593h247v76h-247v-76zM411 240q0 -37 -5 -66t-18.5 -48.5t-38 -29.5t-64.5 -10q-49 0 -75.5 27.5t-26.5 86.5v302h-115v-332q0 -47 17 -81t44.5 -56.5t61.5 -33.5t69 -11q43 0 83 17.5t68 55.5v-61h114v502h-114v-262z" />
    <glyph glyph-name="uni0123" unicode="&#x123;" horiz-adv-x="623" 
d="M384 738h-71l-96 -170h107zM434 10q0 -72 -34 -105t-102 -33q-27 0 -49 2.5t-42.5 7.5t-41 14t-42.5 22l-45 -84q40 -30 97 -44.5t123 -14.5q61 0 108 17t78.5 48t47.5 74t16 96v492h-114v-61q-30 38 -72.5 55.5t-88.5 17.5q-110 0 -166 -67.5t-56 -197.5
q0 -120 55.5 -190.5t161.5 -70.5q57 0 95 17.5t71 52.5v-48zM176 249q0 83 33 125t94 42q40 0 66 -11t40 -32t19.5 -51.5t5.5 -69.5q0 -80 -28 -124t-101 -44q-64 0 -96.5 40t-32.5 125z" />
    <glyph glyph-name="uni0137" unicode="&#x137;" horiz-adv-x="575" 
d="M532 0l-221 283l221 219h-134l-216 -214v432h-114v-720h114v160l52 52l164 -212h134zM174 -220h71l96 170h-107z" />
    <glyph glyph-name="uni013C" unicode="&#x13c;" horiz-adv-x="313" 
d="M119 0h114v720h-114v-720zM68 -220h71l96 170h-107z" />
    <glyph glyph-name="uni0146" unicode="&#x146;" horiz-adv-x="585" 
d="M182 262q0 37 5 66t18.5 48.5t38 29.5t64.5 10q49 0 75.5 -27t26.5 -87v-302h115v332q0 47 -17 81t-44.5 56.5t-62 33.5t-68.5 11q-43 0 -82.5 -17.5t-68.5 -55.5v61h-114v-502h114v262zM189 -220h71l96 170h-107z" />
    <glyph glyph-name="uni0157" unicode="&#x157;" horiz-adv-x="414" 
d="M373 514q-40 0 -77 -17.5t-64 -55.5v61h-114v-502h114v262q0 37 5 66t18.5 48.5t38 29.5t64.5 10l31 -3v101h-16zM68 -220h71l96 170h-107z" />
    <glyph glyph-name="uni0163" unicode="&#x163;" horiz-adv-x="400" 
d="M342 502h-107v112h-114v-112h-70v-83h70v-265q0 -42 5.5 -73t21 -52t42 -31t67.5 -10q28 1 49 5.5t53 20.5l-29 83q-30 -15 -58 -15q-25 1 -31 20.5t-6 56.5v260h107v83zM103 -220h71l96 170h-107z" />
    <glyph glyph-name="uni0219" unicode="&#x219;" horiz-adv-x="510" 
d="M439 455q-75 59 -197 59q-48 0 -83 -12t-57.5 -33t-33.5 -49t-11 -60q0 -43 20.5 -69t50.5 -42.5t66 -26.5t66 -20t50.5 -23t20.5 -36q0 -32 -22.5 -48t-57.5 -16q-24 0 -44.5 2.5t-39 8t-37 14.5t-39.5 22l-40 -79q38 -30 91 -44.5t114 -14.5q93 0 144 43t51 111
q0 45 -20.5 72t-51.5 43t-67.5 25.5t-67.5 18.5t-51.5 22t-20.5 36q0 37 24.5 49.5t59.5 12.5q23 0 41 -2.5t34.5 -7.5t32.5 -13.5t35 -21.5zM154 -220h71l96 170h-107z" />
    <glyph glyph-name="uni021B" unicode="&#x21b;" horiz-adv-x="400" 
d="M342 502h-107v112h-114v-112h-70v-83h70v-265q0 -42 5.5 -73t21 -52t42 -31t67.5 -10q28 1 49 5.5t53 20.5l-29 83q-30 -15 -58 -15q-25 1 -31 20.5t-6 56.5v260h107v83zM124 -220h71l96 170h-107z" />
    <glyph glyph-name="uogonek" unicode="&#x173;" horiz-adv-x="611" 
d="M520 -118q-14 -7 -22 -8.5t-16 -1.5q-18 0 -25.5 13t-7.5 30q0 39 38 85h38v502h-114v-262q0 -37 -5 -66t-18.5 -48.5t-38 -29.5t-64.5 -10q-49 0 -75.5 27.5t-26.5 86.5v302h-115v-332q0 -47 17 -81t44.5 -56.5t61.5 -33.5t69 -11q43 0 82.5 17.5t68.5 55.5v-61h18
q-28 -30 -43 -58.5t-15 -55.5q0 -16 5.5 -31t17.5 -27t30 -19t43 -7q33 0 74 14z" />
    <glyph glyph-name="uring" unicode="&#x16f;" horiz-adv-x="602" 
d="M182 676q0 -49 30 -79.5t82 -30.5q53 0 83 29.5t30 80.5q0 49 -31 80t-82 31q-52 0 -82 -31t-30 -80zM246 676q0 24 12 38t36 14q23 0 35.5 -14t12.5 -38q0 -23 -12.5 -37t-35.5 -14q-24 0 -36 13.5t-12 37.5zM411 240q0 -37 -5 -66t-18.5 -48.5t-38 -29.5t-64.5 -10
q-49 0 -75.5 27.5t-26.5 86.5v302h-115v-332q0 -47 17 -81t44.5 -56.5t61.5 -33.5t69 -11q43 0 83 17.5t68 55.5v-61h114v502h-114v-262z" />
    <glyph glyph-name="utilde" unicode="&#x169;" horiz-adv-x="602" 
d="M430 693q-14 -14 -23.5 -21.5t-17 -12t-14 -5.5t-14.5 -1q-19 2 -35 9.5t-31 15.5t-30.5 14.5t-32.5 6.5q-15 0 -27.5 -2t-26 -8.5t-29 -18.5t-36.5 -31l48 -61q13 14 22.5 22t17 12.5t14.5 5.5t15 1q18 -1 33.5 -8.5t30.5 -16t31 -15.5t34 -7q15 0 27.5 2t26 9t29 18.5
t35.5 31.5zM411 240q0 -37 -5 -66t-18.5 -48.5t-38 -29.5t-64.5 -10q-49 0 -75.5 27.5t-26.5 86.5v302h-115v-332q0 -47 17 -81t44.5 -56.5t61.5 -33.5t69 -11q43 0 83 17.5t68 55.5v-61h114v502h-114v-262z" />
    <glyph glyph-name="wacute" unicode="&#x1e83;" horiz-adv-x="857" 
d="M395 568h71l96 170h-107zM593 145l-111 357h-108l-111 -357l-101 357h-128l176 -502h105l112 343l113 -343h105l174 502h-125z" />
    <glyph glyph-name="wcircumflex" unicode="&#x175;" horiz-adv-x="857" 
d="M583 568l-125 165h-60l-126 -165h94l62 100l62 -100h93zM593 145l-111 357h-108l-111 -357l-101 357h-128l176 -502h105l112 343l113 -343h105l174 502h-125z" />
    <glyph glyph-name="wdieresis" unicode="&#x1e85;" horiz-adv-x="857" 
d="M282 622q0 -26 17.5 -43.5t43.5 -17.5t44 17.5t18 43.5t-18 44t-44 18t-43.5 -18t-17.5 -44zM451 622q0 -26 17.5 -43.5t43.5 -17.5t44 17.5t18 43.5t-18 44t-44 18t-43.5 -18t-17.5 -44zM593 145l-111 357h-108l-111 -357l-101 357h-128l176 -502h105l112 343l113 -343
h105l174 502h-125z" />
    <glyph glyph-name="wgrave" unicode="&#x1e81;" horiz-adv-x="857" 
d="M401 738h-107l96 -170h71zM593 145l-111 357h-108l-111 -357l-101 357h-128l176 -502h105l112 343l113 -343h105l174 502h-125z" />
    <glyph glyph-name="ycircumflex" unicode="&#x177;" horiz-adv-x="525" 
d="M429 568l-125 165h-60l-126 -165h94l62 100l62 -100h93zM265 160l-120 342h-128l193 -466l-77 -203h102l271 669h-125z" />
    <glyph glyph-name="zacute" unicode="&#x17a;" horiz-adv-x="503" 
d="M181 568h71l96 170h-107zM327 408l-284 -314v-94h412v94h-274l274 314v94h-412v-94h284z" />
    <glyph glyph-name="zcaron" unicode="&#x17e;" horiz-adv-x="503" 
d="M285 733l-62 -100l-62 100h-94l126 -165h60l125 165h-93zM327 408l-284 -314v-94h412v94h-274l274 314v94h-412v-94h284z" />
    <glyph glyph-name="zdotaccent" unicode="&#x17c;" horiz-adv-x="503" 
d="M177 645q0 -26 17.5 -43.5t43.5 -17.5t44 17.5t18 43.5t-18 44t-44 18t-43.5 -18t-17.5 -44zM327 408l-284 -314v-94h412v94h-274l274 314v94h-412v-94h284z" />
    <glyph glyph-name="a.aalt" horiz-adv-x="616" 
d="M434 0h114v502h-114v-61q-30 38 -72.5 55.5t-88.5 17.5q-110 0 -166 -67.5t-56 -197.5q0 -120 55.5 -190.5t161.5 -70.5q57 0 95 17.5t71 52.5v-58zM176 249q0 83 33 125t94 42q40 0 66 -11t40 -32t19.5 -51.5t5.5 -69.5q0 -80 -28 -124t-101 -44q-64 0 -96.5 40
t-32.5 125z" />
    <glyph glyph-name="aacute.aalt" horiz-adv-x="631" 
d="M236 568h71l96 170h-107zM433 0h114v502h-114v-61q-30 38 -72.5 55.5t-88.5 17.5q-110 0 -166 -67.5t-56 -197.5q0 -120 55.5 -190.5t161.5 -70.5q57 0 95 17.5t71 52.5v-58zM175 249q0 83 33 125t94 42q40 0 66 -11t40 -32t19.5 -51.5t5.5 -69.5q0 -80 -28 -124
t-101 -44q-64 0 -96.5 40t-32.5 125z" />
    <glyph glyph-name="abreve.aalt" horiz-adv-x="631" 
d="M156 717q0 -68 36.5 -100.5t102.5 -32.5q68 0 103.5 32t35.5 101h-85q0 -37 -14 -52.5t-40 -15.5q-27 0 -41 15.5t-14 52.5h-84zM433 0h114v502h-114v-61q-30 38 -72.5 55.5t-88.5 17.5q-110 0 -166 -67.5t-56 -197.5q0 -120 55.5 -190.5t161.5 -70.5q57 0 95 17.5
t71 52.5v-58zM175 249q0 83 33 125t94 42q40 0 66 -11t40 -32t19.5 -51.5t5.5 -69.5q0 -80 -28 -124t-101 -44q-64 0 -96.5 40t-32.5 125z" />
    <glyph glyph-name="acircumflex.aalt" horiz-adv-x="623" 
d="M453 568l-125 165h-60l-126 -165h94l62 100l62 -100h93zM434 0h114v502h-114v-61q-30 38 -72.5 55.5t-88.5 17.5q-110 0 -166 -67.5t-56 -197.5q0 -120 55.5 -190.5t161.5 -70.5q57 0 95 17.5t71 52.5v-58zM176 249q0 83 33 125t94 42q40 0 66 -11t40 -32t19.5 -51.5
t5.5 -69.5q0 -80 -28 -124t-101 -44q-64 0 -96.5 40t-32.5 125z" />
    <glyph glyph-name="adieresis.aalt" horiz-adv-x="631" 
d="M153 622q0 -26 17.5 -43.5t43.5 -17.5t44 17.5t18 43.5t-18 44t-44 18t-43.5 -18t-17.5 -44zM322 622q0 -26 17.5 -43.5t43.5 -17.5t44 17.5t18 43.5t-18 44t-44 18t-43.5 -18t-17.5 -44zM433 0h114v502h-114v-61q-30 38 -72.5 55.5t-88.5 17.5q-110 0 -166 -67.5
t-56 -197.5q0 -120 55.5 -190.5t161.5 -70.5q57 0 95 17.5t71 52.5v-58zM175 249q0 83 33 125t94 42q40 0 66 -11t40 -32t19.5 -51.5t5.5 -69.5q0 -80 -28 -124t-101 -44q-64 0 -96.5 40t-32.5 125z" />
    <glyph glyph-name="agrave.aalt" horiz-adv-x="623" 
d="M279 738h-107l96 -170h71zM434 0h114v502h-114v-61q-30 38 -72.5 55.5t-88.5 17.5q-110 0 -166 -67.5t-56 -197.5q0 -120 55.5 -190.5t161.5 -70.5q57 0 95 17.5t71 52.5v-58zM176 249q0 83 33 125t94 42q40 0 66 -11t40 -32t19.5 -51.5t5.5 -69.5q0 -80 -28 -124
t-101 -44q-64 0 -96.5 40t-32.5 125z" />
    <glyph glyph-name="amacron.aalt" horiz-adv-x="623" 
d="M182 593h247v76h-247v-76zM434 0h114v502h-114v-61q-30 38 -72.5 55.5t-88.5 17.5q-110 0 -166 -67.5t-56 -197.5q0 -120 55.5 -190.5t161.5 -70.5q57 0 95 17.5t71 52.5v-58zM176 249q0 83 33 125t94 42q40 0 66 -11t40 -32t19.5 -51.5t5.5 -69.5q0 -80 -28 -124
t-101 -44q-64 0 -96.5 40t-32.5 125z" />
    <glyph glyph-name="aogonek.aalt" horiz-adv-x="634" 
d="M541 -118q-14 -7 -22 -8.5t-16 -1.5q-18 0 -25.5 13t-7.5 30q0 39 38 85h40v502h-114v-61q-30 38 -72.5 55.5t-88.5 17.5q-110 0 -166 -67.5t-56 -197.5q0 -120 55.5 -190.5t161.5 -70.5q57 0 95 17.5t71 52.5v-58h16q-28 -30 -43 -58.5t-15 -55.5q0 -33 22.5 -58.5
t73.5 -25.5q33 0 74 14zM305 84q-64 0 -96.5 40t-32.5 125q0 83 33 125t94 42q40 0 66 -11t40 -32t19.5 -51.5t5.5 -69.5q0 -80 -28 -124t-101 -44z" />
    <glyph glyph-name="aring.aalt" horiz-adv-x="623" 
d="M185 676q0 -49 30 -79.5t82 -30.5q53 0 83 29.5t30 80.5q0 49 -31 80t-82 31q-52 0 -82 -31t-30 -80zM249 676q0 24 12.5 38t35.5 14q24 0 36 -14t12 -38q0 -23 -12.5 -37t-35.5 -14t-35.5 13.5t-12.5 37.5zM434 0h114v502h-114v-61q-30 38 -72.5 55.5t-88.5 17.5
q-110 0 -166 -67.5t-56 -197.5q0 -120 55.5 -190.5t161.5 -70.5q57 0 95 17.5t71 52.5v-58zM176 249q0 83 33 125t94 42q40 0 66 -11t40 -32t19.5 -51.5t5.5 -69.5q0 -80 -28 -124t-101 -44q-64 0 -96.5 40t-32.5 125z" />
    <glyph glyph-name="atilde.aalt" horiz-adv-x="623" 
d="M438 693q-14 -14 -23.5 -21.5t-17 -12t-14 -5.5t-14.5 -1q-19 2 -35 9.5t-31 15.5t-30.5 14.5t-32.5 6.5q-15 0 -27.5 -2t-26 -8.5t-29 -18.5t-36.5 -31l48 -61q13 14 22.5 22t17 12.5t14.5 5.5t15 1q18 -1 33.5 -8.5t30.5 -16t31 -15.5t34 -7q15 0 27.5 2t26 9t29 18.5
t35.5 31.5zM434 0h114v502h-114v-61q-30 38 -72.5 55.5t-88.5 17.5q-110 0 -166 -67.5t-56 -197.5q0 -120 55.5 -190.5t161.5 -70.5q57 0 95 17.5t71 52.5v-58zM176 249q0 83 33 125t94 42q40 0 66 -11t40 -32t19.5 -51.5t5.5 -69.5q0 -80 -28 -124t-101 -44q-64 0 -96.5 40
t-32.5 125z" />
    <glyph glyph-name="uni0394" unicode="&#x394;" horiz-adv-x="683" 
d="M385 684h-87l-247 -684h581zM497 83h-306l150 454z" />
    <glyph glyph-name="Delta" unicode="&#x2206;" horiz-adv-x="683" 
d="M385 684h-87l-247 -684h581zM497 83h-306l150 454z" />
    <glyph glyph-name="Omega" unicode="&#x2126;" horiz-adv-x="780" 
d="M318 86q-27 14 -51 39t-41 59t-27 75t-10 88q0 56 13 101.5t38.5 77.5t63 49.5t87.5 17.5t87.5 -17.5t63 -49.5t38.5 -77.5t13 -101.5q0 -47 -10.5 -88t-28.5 -75t-42 -59t-50 -39v-86h267v86h-137q52 40 84 104t32 154q0 79 -20.5 144t-60.5 111t-99 71.5t-136 25.5
q-78 0 -137.5 -25t-99.5 -71t-60.5 -111t-20.5 -145q0 -88 31.5 -153t83.5 -105h-138v-86h267v86z" />
    <glyph glyph-name="uni03A9" unicode="&#x3a9;" horiz-adv-x="780" 
d="M318 86q-27 14 -51 39t-41 59t-27 75t-10 88q0 56 13 101.5t38.5 77.5t63 49.5t87.5 17.5t87.5 -17.5t63 -49.5t38.5 -77.5t13 -101.5q0 -47 -10.5 -88t-28.5 -75t-42 -59t-50 -39v-86h267v86h-137q52 40 84 104t32 154q0 79 -20.5 144t-60.5 111t-99 71.5t-136 25.5
q-78 0 -137.5 -25t-99.5 -71t-60.5 -111t-20.5 -145q0 -88 31.5 -153t83.5 -105h-138v-86h267v86z" />
    <glyph glyph-name="pi" unicode="&#x3c0;" horiz-adv-x="703" 
d="M507 416h121v86h-575v-86h87v-416h114v416h139v-255q0 -44 7 -76t25 -53t49.5 -31.5t79.5 -10.5q13 0 24.5 1.5t22.5 4t23 7.5t27 13l-26 86q-18 -9 -36.5 -14.5t-34.5 -4.5q-29 1 -38 23.5t-9 77.5v232z" />
    <glyph glyph-name="zero.tf" horiz-adv-x="620" 
d="M42 348q0 -360 268 -360t268 360q0 174 -66.5 261t-201.5 87t-201.5 -87t-66.5 -261zM159 348q0 129 37 187t114 58q75 0 113 -58t38 -187q0 -135 -38 -196t-113 -61q-77 0 -114 61t-37 196z" />
    <glyph glyph-name="one.tf" horiz-adv-x="620" 
d="M541 99h-161v585h-114l-167 -99l46 -78l121 72v-480h-171v-99h446v99z" />
    <glyph glyph-name="two.tf" horiz-adv-x="620" 
d="M82 0h458v99h-315q69 68 125.5 125t96 105.5t61.5 89.5t22 78q0 50 -17 87.5t-46 62t-68 37t-83 12.5q-145 0 -233 -59l40 -94q26 14 48.5 23.5t45 15.5t47 8.5t54.5 2.5q42 0 68 -23.5t26 -74.5q0 -33 -23 -70.5t-66 -84.5t-104 -105.5t-137 -132.5v-102z" />
    <glyph glyph-name="three.tf" horiz-adv-x="620" 
d="M114 543q26 14 47 24t41 16t43 8.5t53 2.5q52 0 81.5 -21t29.5 -71q0 -49 -36 -74t-93 -25h-52v-87h55q70 0 107.5 -29.5t37.5 -86.5q0 -51 -36.5 -80t-93.5 -29q-30 0 -52.5 2.5t-43 8.5t-41.5 15.5t-47 23.5l-40 -94q45 -30 100 -44.5t127 -14.5q54 0 99 16t77.5 44
t50 67t17.5 84q0 64 -31 106t-91 58q50 16 76 49t26 86q0 52 -17.5 89.5t-48.5 61.5t-72.5 35.5t-89.5 11.5q-72 0 -125 -14.5t-98 -44.5z" />
    <glyph glyph-name="four.tf" horiz-adv-x="620" 
d="M579 244h-97v440h-130l-310 -434v-100h326v-150h114v150h97v94zM152 244l216 306v-306h-216z" />
    <glyph glyph-name="five.tf" horiz-adv-x="620" 
d="M193 585h318v99h-410v-413h89q12 42 43.5 58.5t72.5 16.5q58 0 90.5 -32.5t32.5 -89.5q0 -62 -35 -98t-97 -36q-28 0 -51 3t-44.5 9t-43 16t-45.5 24l-40 -94q41 -30 100.5 -45t128.5 -15q115 0 179.5 61.5t64.5 170.5q0 46 -13.5 86.5t-40.5 71t-66.5 48t-91.5 17.5
q-86 0 -141 -43v185z" />
    <glyph glyph-name="six.tf" horiz-adv-x="620" 
d="M542 637q-41 28 -92.5 43.5t-130.5 15.5q-66 0 -114.5 -26t-80.5 -73t-47.5 -113t-15.5 -146q0 -350 256 -350q113 0 177 60t64 168q0 47 -15.5 89t-44.5 73.5t-70.5 50t-93.5 18.5q-56 0 -99.5 -25t-66.5 -70q0 119 38.5 180.5t116.5 61.5q30 0 52 -2.5t41.5 -8.5
t39.5 -15.5t46 -24.5zM317 91q-57 0 -91 32.5t-34 95.5q0 57 35.5 91.5t94.5 34.5q57 0 87 -32.5t30 -92.5q0 -63 -32.5 -96t-89.5 -33z" />
    <glyph glyph-name="seven.tf" horiz-adv-x="620" 
d="M99 684v-99h301l-248 -585h124l246 590v94h-423z" />
    <glyph glyph-name="eight.tf" horiz-adv-x="620" 
d="M68 185q0 -44 17.5 -80.5t49 -62.5t76.5 -40t99 -14t98.5 14.5t76 40.5t49 62t17.5 80q0 69 -32.5 114t-88.5 62q48 21 68.5 55.5t20.5 93.5q0 48 -16.5 83t-45 58t-66 34t-79.5 11q-39 0 -77 -11t-68 -34t-48.5 -58t-18.5 -83q0 -59 20.5 -93.5t68.5 -55.5
q-55 -17 -88 -62t-33 -114zM206 503q0 42 28.5 66.5t76.5 24.5t75 -24.5t27 -66.5q0 -50 -25.5 -76.5t-77.5 -26.5q-49 0 -76.5 27t-27.5 76zM183 205q1 57 34.5 87t91.5 30t92.5 -31t34.5 -85q0 -51 -34.5 -83t-92.5 -32q-56 0 -91 32t-35 82z" />
    <glyph glyph-name="nine.tf" horiz-adv-x="620" 
d="M77 47q41 -28 92.5 -43.5t130.5 -15.5q66 0 114.5 26t80.5 73t47.5 113t15.5 146q0 350 -256 350q-113 0 -177 -60t-64 -168q0 -47 15.5 -89t44.5 -73.5t70.5 -50t93.5 -18.5q57 0 100 25t66 70q0 -118 -38.5 -180t-116.5 -62q-30 0 -52 2.5t-41.5 8.5t-40 16t-45.5 24z
M302 593q57 0 91 -32.5t34 -95.5q0 -57 -35.5 -91.5t-94.5 -34.5q-57 0 -87 32.5t-30 92.5q0 63 32.5 96t89.5 33z" />
    <glyph glyph-name="zero.zero" horiz-adv-x="636" 
d="M318 696q-135 0 -201.5 -87t-66.5 -261q0 -360 268 -360t268 360q0 174 -66.5 261t-201.5 87zM184 200q-17 60 -17 148q0 129 37 187t114 58q57 0 92 -32zM448 501q21 -57 21 -153q0 -135 -38 -196t-113 -61q-64 0 -101 43z" />
    <glyph glyph-name="fraction" unicode="&#x2044;" horiz-adv-x="209" 
d="M-114 -29h74l364 739h-73z" />
    <glyph glyph-name="uni2153" unicode="&#x2153;" horiz-adv-x="894" 
d="M185 -29h73l364 739h-73zM40 620l34 -62l76 43v-361h81v445h-80zM583 344q18 9 31.5 15.5t26.5 10t27.5 5.5t34.5 2q35 0 53.5 -13t18.5 -47q0 -26 -22 -41t-58 -15h-31v-62h33q40 0 62.5 -17.5t22.5 -50.5q0 -34 -23.5 -51.5t-55.5 -17.5q-19 0 -33.5 1.5t-28 5t-27 10
t-31.5 15.5l-31 -66q61 -40 153 -40q35 0 64 10t50 28t32.5 42.5t11.5 53.5q0 41 -18 69.5t-52 40.5q57 23 57 93q0 33 -11.5 56.5t-31 38.5t-47 22t-58.5 7q-48 0 -83.5 -10t-66.5 -30z" />
    <glyph glyph-name="uni2154" unicode="&#x2154;" horiz-adv-x="992" 
d="M282 -29h74l364 739h-74zM33 240h298v67h-199q43 42 78.5 78t61 66.5t39 57t13.5 49.5q0 33 -11 57.5t-29.5 41t-43.5 24.5t-53 8q-96 0 -157 -40l27 -65q32 17 58.5 24.5t58.5 7.5q30 0 49 -11t19 -47q-1 -29 -57 -94t-152 -153v-71zM681 344q18 9 31.5 15.5t26.5 10
t27.5 5.5t34.5 2q34 0 53 -13t19 -47q0 -26 -22 -41t-58 -15h-31v-62h33q39 0 61.5 -17.5t22.5 -50.5q0 -34 -23 -51.5t-55 -17.5q-19 0 -33.5 1.5t-28 5t-27 10t-31.5 15.5l-31 -66q61 -40 153 -40q35 0 64 10t50 28t32.5 42.5t11.5 53.5q0 41 -18.5 69.5t-51.5 40.5
q57 23 57 93q0 33 -11.5 56.5t-31 38.5t-47 22t-58.5 7q-48 0 -83.5 -10t-66.5 -30z" />
    <glyph glyph-name="oneeighth" unicode="&#x215b;" horiz-adv-x="889" 
d="M185 -29h73l364 739h-73zM40 620l34 -62l76 43v-361h81v445h-80zM548 115q0 -57 44 -92t116 -35t115.5 35t43.5 92q0 42 -19.5 72t-54.5 43q27 11 40 37.5t13 65.5q0 30 -11 51.5t-30 36t-43.5 21.5t-52.5 7q-27 0 -52 -7t-45 -21.5t-32 -36t-12 -51.5q0 -37 14 -64
t40 -39q-36 -13 -55 -43t-19 -72zM639 327q0 26 18.5 41t50.5 15q31 0 49 -15t18 -41q0 -32 -17.5 -51t-49.5 -19q-35 0 -52 19t-17 51zM623 131q2 73 84 73q38 0 60.5 -19.5t22.5 -52.5q0 -35 -22.5 -55t-60.5 -20q-39 0 -61.5 20.5t-22.5 53.5z" />
    <glyph glyph-name="threeeighths" unicode="&#x215c;" horiz-adv-x="948" 
d="M245 -29h73l364 739h-73zM62 584q18 9 31.5 15.5t26.5 10t27.5 5.5t34.5 2q35 0 53.5 -13t18.5 -47q0 -26 -22 -41t-58 -15h-31v-62h33q40 0 62.5 -17.5t22.5 -50.5q0 -34 -23.5 -51.5t-55.5 -17.5q-19 0 -33.5 1.5t-28 5t-27 10t-31.5 15.5l-31 -66q61 -40 153 -40
q35 0 64 10t50 28t32.5 42.5t11.5 53.5q0 41 -18 69.5t-52 40.5q57 23 57 93q0 33 -11.5 56.5t-31 38.5t-47 22t-58.5 7q-48 0 -83.5 -10t-66.5 -30zM607 115q0 -57 44 -92t116 -35t115.5 35t43.5 92q0 42 -19.5 72t-54.5 43q28 11 40.5 37.5t12.5 65.5q0 30 -11 51.5
t-29.5 36t-43.5 21.5t-53 7q-26 0 -51.5 -7t-45.5 -21.5t-32 -36t-12 -51.5q0 -37 14 -64t40 -39q-35 -13 -54.5 -43t-19.5 -72zM698 327q0 26 18.5 41t50.5 15q31 0 49 -15t18 -41q0 -32 -17.5 -51t-49.5 -19q-35 0 -52 19t-17 51zM683 131q2 73 83 73q38 0 60.5 -19.5
t22.5 -52.5q0 -35 -22.5 -55t-60.5 -20q-39 0 -61 20.5t-22 53.5z" />
    <glyph glyph-name="fiveeighths" unicode="&#x215d;" horiz-adv-x="948" 
d="M245 -29h73l364 739h-73zM133 614h202v67h-268v-258h64q8 20 26.5 31t44.5 11q41 0 59.5 -20.5t18.5 -57.5q0 -38 -20.5 -61.5t-61.5 -23.5q-34 0 -59 7.5t-57 27.5l-33 -68q29 -21 66.5 -31t82.5 -10q78 0 121.5 40t43.5 112q0 30 -9.5 56.5t-27.5 47t-45 32t-62 11.5
q-53 0 -86 -26v113zM607 115q0 -57 44 -92t116 -35t115.5 35t43.5 92q0 42 -19.5 72t-54.5 43q28 11 40.5 37.5t12.5 65.5q0 30 -11 51.5t-29.5 36t-43.5 21.5t-53 7q-26 0 -51.5 -7t-45.5 -21.5t-32 -36t-12 -51.5q0 -37 14 -64t40 -39q-35 -13 -54.5 -43t-19.5 -72z
M698 327q0 26 18.5 41t50.5 15q31 0 49 -15t18 -41q0 -32 -17.5 -51t-49.5 -19q-35 0 -52 19t-17 51zM683 131q2 73 83 73q38 0 60.5 -19.5t22.5 -52.5q0 -35 -22.5 -55t-60.5 -20q-39 0 -61 20.5t-22 53.5z" />
    <glyph glyph-name="seveneighths" unicode="&#x215e;" horiz-adv-x="913" 
d="M209 -29h74l364 739h-74zM50 685v-67h195l-152 -378h90l151 383v62h-284zM572 115q0 -57 44 -92t116 -35t115.5 35t43.5 92q0 42 -19.5 72t-54.5 43q27 11 40 37.5t13 65.5q0 30 -11 51.5t-30 36t-43.5 21.5t-52.5 7q-27 0 -52 -7t-45 -21.5t-32 -36t-12 -51.5
q0 -37 14 -64t40 -39q-36 -13 -55 -43t-19 -72zM663 327q0 26 18.5 41t50.5 15q31 0 49 -15t18 -41q0 -32 -17.5 -51t-49.5 -19q-35 0 -52 19t-17 51zM647 131q2 73 84 73q38 0 60.5 -19.5t22.5 -52.5q0 -35 -22.5 -55t-60.5 -20q-39 0 -61.5 20.5t-22.5 53.5z" />
    <glyph glyph-name="zero.dnom" horiz-adv-x="428" 
d="M40 222q0 -234 174 -234t174 234q0 227 -174 227t-174 -227zM125 222q0 83 21.5 119t67.5 36q45 0 67.5 -36t22.5 -119q0 -85 -22.5 -123.5t-67.5 -38.5q-46 0 -67.5 38.5t-21.5 123.5z" />
    <glyph glyph-name="one.dnom" horiz-adv-x="280" 
d="M40 380l34 -62l76 43v-361h81v445h-80z" />
    <glyph glyph-name="two.dnom" horiz-adv-x="390" 
d="M43 0h298v67h-199q43 42 78.5 78t61 66.5t39 57t13.5 49.5q0 33 -11 57.5t-29.5 41t-43.5 24.5t-53 8q-96 0 -157 -40l27 -65q32 17 58.5 24.5t58.5 7.5q30 0 49 -11t19 -47q-1 -29 -57 -94t-152 -153v-71z" />
    <glyph glyph-name="three.dnom" horiz-adv-x="393" 
d="M72 344q18 9 31.5 15.5t26.5 10t27.5 5.5t34.5 2q35 0 53.5 -13t18.5 -47q0 -26 -22 -41t-58 -15h-31v-62h33q40 0 62.5 -17.5t22.5 -50.5q0 -34 -23.5 -51.5t-55.5 -17.5q-19 0 -33.5 1.5t-28 5t-27 10t-31.5 15.5l-31 -66q61 -40 153 -40q35 0 64 10t50 28t32.5 42.5
t11.5 53.5q0 41 -18 69.5t-52 40.5q57 23 57 93q0 33 -11.5 56.5t-31 38.5t-47 22t-58.5 7q-48 0 -83.5 -10t-66.5 -30z" />
    <glyph glyph-name="four.dnom" horiz-adv-x="415" 
d="M386 166h-69v279h-92l-197 -277v-69h207v-99h82v99h69v67zM107 166l128 183v-183h-128z" />
    <glyph glyph-name="five.dnom" horiz-adv-x="395" 
d="M133 374h202v67h-268v-258h64q8 20 26.5 31t44.5 11q41 0 59.5 -20.5t18.5 -57.5q0 -38 -20.5 -61.5t-61.5 -23.5q-34 0 -59 7.5t-57 27.5l-33 -68q29 -21 66.5 -31t82.5 -10q78 0 121.5 40t43.5 112q0 30 -9.5 56.5t-27.5 47t-45 32t-62 11.5q-53 0 -86 -26v113z" />
    <glyph glyph-name="six.dnom" horiz-adv-x="392" 
d="M354 409q-29 19 -63 29.5t-87 10.5q-43 0 -74.5 -17t-52.5 -47.5t-31 -74t-10 -95.5q0 -227 166 -227q73 0 115 39.5t42 109.5q0 31 -10.5 58.5t-29.5 48.5t-47 33t-62 12q-32 0 -55 -12t-38 -34q3 66 24.5 100t66.5 34q18 0 32 -2t27 -5.5t25.5 -10t29.5 -15.5zM202 62
q-39 0 -60 19.5t-21 59.5q0 35 23 56.5t61 21.5q71 0 71 -78q0 -79 -74 -79z" />
    <glyph glyph-name="seven.dnom" horiz-adv-x="377" 
d="M60 445v-67h195l-152 -378h90l151 383v62h-284z" />
    <glyph glyph-name="eight.dnom" horiz-adv-x="383" 
d="M32 115q0 -57 44 -92t116 -35t115.5 35t43.5 92q0 42 -19.5 72t-54.5 43q28 11 40.5 37.5t12.5 65.5q0 30 -11 51.5t-29.5 36t-43.5 21.5t-53 7q-26 0 -51.5 -7t-45.5 -21.5t-32 -36t-12 -51.5q0 -37 14 -64t40 -39q-35 -13 -54.5 -43t-19.5 -72zM123 327q0 26 18.5 41
t50.5 15q31 0 49 -15t18 -41q0 -32 -17.5 -51t-49.5 -19q-35 0 -52 19t-17 51zM108 131q2 73 83 73q38 0 60.5 -19.5t22.5 -52.5q0 -35 -22.5 -55t-60.5 -20q-39 0 -61 20.5t-22 53.5z" />
    <glyph glyph-name="nine.dnom" horiz-adv-x="392" 
d="M38 28q29 -19 63 -29.5t87 -10.5q43 0 74.5 17t52.5 47.5t31 73.5t10 96q0 227 -166 227q-73 0 -115 -39.5t-42 -109.5q0 -31 10.5 -58.5t29.5 -48.5t46.5 -33t62.5 -12q32 0 55.5 12t38.5 34q-3 -66 -25 -99.5t-67 -33.5q-18 0 -32 2t-27 5.5t-26 10t-29 15.5zM190 376
q39 0 60 -20t21 -60q0 -35 -23 -56t-61 -21q-71 0 -71 77q0 40 19.5 60t54.5 20z" />
    <glyph glyph-name="zero.numr" horiz-adv-x="428" 
d="M40 462q0 -234 174 -234t174 234q0 227 -174 227t-174 -227zM125 462q0 83 21.5 119t67.5 36q45 0 67.5 -36t22.5 -119q0 -85 -22.5 -123.5t-67.5 -38.5q-46 0 -67.5 38.5t-21.5 123.5z" />
    <glyph glyph-name="one.numr" horiz-adv-x="280" 
d="M40 620l34 -62l76 43v-361h81v445h-80z" />
    <glyph glyph-name="two.numr" horiz-adv-x="390" 
d="M43 240h298v67h-199q43 42 78.5 78t61 66.5t39 57t13.5 49.5q0 33 -11 57.5t-29.5 41t-43.5 24.5t-53 8q-96 0 -157 -40l27 -65q32 17 58.5 24.5t58.5 7.5q30 0 49 -11t19 -47q-1 -29 -57 -94t-152 -153v-71z" />
    <glyph glyph-name="three.numr" horiz-adv-x="393" 
d="M72 584q18 9 31.5 15.5t26.5 10t27.5 5.5t34.5 2q35 0 53.5 -13t18.5 -47q0 -26 -22 -41t-58 -15h-31v-62h33q40 0 62.5 -17.5t22.5 -50.5q0 -34 -23.5 -51.5t-55.5 -17.5q-19 0 -33.5 1.5t-28 5t-27 10t-31.5 15.5l-31 -66q61 -40 153 -40q35 0 64 10t50 28t32.5 42.5
t11.5 53.5q0 41 -18 69.5t-52 40.5q57 23 57 93q0 33 -11.5 56.5t-31 38.5t-47 22t-58.5 7q-48 0 -83.5 -10t-66.5 -30z" />
    <glyph glyph-name="four.numr" horiz-adv-x="415" 
d="M386 406h-69v279h-92l-197 -277v-69h207v-99h82v99h69v67zM107 406l128 183v-183h-128z" />
    <glyph glyph-name="five.numr" horiz-adv-x="395" 
d="M133 614h202v67h-268v-258h64q8 20 26.5 31t44.5 11q41 0 59.5 -20.5t18.5 -57.5q0 -38 -20.5 -61.5t-61.5 -23.5q-34 0 -59 7.5t-57 27.5l-33 -68q29 -21 66.5 -31t82.5 -10q78 0 121.5 40t43.5 112q0 30 -9.5 56.5t-27.5 47t-45 32t-62 11.5q-53 0 -86 -26v113z" />
    <glyph glyph-name="six.numr" horiz-adv-x="392" 
d="M354 649q-29 19 -63 29.5t-87 10.5q-43 0 -74.5 -17t-52.5 -47.5t-31 -74t-10 -95.5q0 -227 166 -227q73 0 115 39.5t42 109.5q0 31 -10.5 58.5t-29.5 48.5t-47 33t-62 12q-32 0 -55 -12t-38 -34q3 66 24.5 100t66.5 34q18 0 32 -2t27 -5.5t25.5 -10t29.5 -15.5zM202 302
q-39 0 -60 19.5t-21 59.5q0 35 23 56.5t61 21.5q71 0 71 -78q0 -79 -74 -79z" />
    <glyph glyph-name="seven.numr" horiz-adv-x="377" 
d="M60 685v-67h195l-152 -378h90l151 383v62h-284z" />
    <glyph glyph-name="eight.numr" horiz-adv-x="383" 
d="M32 355q0 -57 44 -92t116 -35t115.5 35t43.5 92q0 42 -19.5 72t-54.5 43q28 11 40.5 37.5t12.5 65.5q0 30 -11 51.5t-29.5 36t-43.5 21.5t-53 7q-26 0 -51.5 -7t-45.5 -21.5t-32 -36t-12 -51.5q0 -37 14 -64t40 -39q-35 -13 -54.5 -43t-19.5 -72zM123 567q0 26 18.5 41
t50.5 15q31 0 49 -15t18 -41q0 -32 -17.5 -51t-49.5 -19q-35 0 -52 19t-17 51zM108 371q2 73 83 73q38 0 60.5 -19.5t22.5 -52.5q0 -35 -22.5 -55t-60.5 -20q-39 0 -61 20.5t-22 53.5z" />
    <glyph glyph-name="nine.numr" horiz-adv-x="392" 
d="M38 268q29 -19 63 -29.5t87 -10.5q43 0 74.5 17t52.5 47.5t31 73.5t10 96q0 227 -166 227q-73 0 -115 -39.5t-42 -109.5q0 -31 10.5 -58.5t29.5 -48.5t46.5 -33t62.5 -12q32 0 55.5 12t38.5 34q-3 -66 -25 -99.5t-67 -33.5q-18 0 -32 2t-27 5.5t-26 10t-29 15.5zM190 616
q39 0 60 -20t21 -60q0 -35 -23 -56t-61 -21q-71 0 -71 77q0 40 19.5 60t54.5 20z" />
    <glyph glyph-name="zeroinferior" unicode="&#x2080;" horiz-adv-x="408" 
d="M30 182q0 -234 174 -234t174 234q0 227 -174 227t-174 -227zM115 182q0 83 21.5 119t67.5 36q45 0 67.5 -36t22.5 -119q0 -85 -22.5 -123.5t-67.5 -38.5q-46 0 -67.5 38.5t-21.5 123.5z" />
    <glyph glyph-name="oneinferior" unicode="&#x2081;" horiz-adv-x="260" 
d="M30 340l34 -62l76 43v-361h81v445h-80z" />
    <glyph glyph-name="twoinferior" unicode="&#x2082;" horiz-adv-x="370" 
d="M33 -44h298v67h-199q87 86 139.5 147t52.5 108q0 33 -11 57.5t-29.5 41t-43.5 24.5t-53 8q-96 0 -157 -40l27 -65q16 9 30.5 15t28.5 9.5t29 5.5t34 2q28 0 45.5 -11.5t17.5 -51.5q0 -14 -15 -38t-42 -55.5t-65.5 -70.5t-86.5 -82v-71z" />
    <glyph glyph-name="threeinferior" unicode="&#x2083;" horiz-adv-x="373" 
d="M62 304q18 9 31.5 15.5t26.5 10t27.5 5.5t34.5 2q35 0 53.5 -13t18.5 -47q0 -26 -22 -41t-58 -15h-31v-62h33q40 0 62.5 -17.5t22.5 -50.5q0 -34 -23.5 -51.5t-55.5 -17.5q-19 0 -33.5 1.5t-28 5t-27 10t-31.5 15.5l-31 -66q61 -40 153 -40q35 0 64 10t50 28t32.5 42.5
t11.5 53.5q0 41 -18 69.5t-52 40.5q57 23 57 93q0 33 -11.5 56.5t-31 38.5t-47 22t-58.5 7q-48 0 -83.5 -10t-66.5 -30z" />
    <glyph glyph-name="fourinferior" unicode="&#x2084;" horiz-adv-x="395" 
d="M376 126h-69v279h-92l-197 -277v-69h207v-99h82v99h69v67zM97 126l128 183v-183h-128z" />
    <glyph glyph-name="fiveinferior" unicode="&#x2085;" horiz-adv-x="375" 
d="M123 334h202v67h-268v-258h64q8 20 26.5 31t44.5 11q41 0 59.5 -20.5t18.5 -57.5q0 -38 -20.5 -61.5t-61.5 -23.5q-34 0 -59 7.5t-57 27.5l-33 -68q29 -21 66.5 -31t82.5 -10q78 0 121.5 40t43.5 112q0 30 -9.5 56.5t-27.5 47t-45 32t-62 11.5q-53 0 -86 -26v113z" />
    <glyph glyph-name="sixinferior" unicode="&#x2086;" horiz-adv-x="372" 
d="M344 369q-29 19 -63 29.5t-87 10.5q-43 0 -74.5 -17t-52.5 -47.5t-31 -74t-10 -95.5q0 -227 166 -227q73 0 115 39.5t42 109.5q0 31 -10.5 58.5t-29.5 48.5t-47 33t-62 12q-32 0 -55 -12t-38 -34q3 66 24.5 100t66.5 34q18 0 32 -2t27 -5.5t25.5 -10t29.5 -15.5zM192 22
q-39 0 -60 19.5t-21 59.5q0 35 23 56.5t61 21.5q71 0 71 -78q0 -79 -74 -79z" />
    <glyph glyph-name="seveninferior" unicode="&#x2087;" horiz-adv-x="357" 
d="M50 405v-67h195l-152 -378h90l151 383v62h-284z" />
    <glyph glyph-name="eightinferior" unicode="&#x2088;" horiz-adv-x="363" 
d="M22 75q0 -57 44 -92t116 -35t115.5 35t43.5 92q0 42 -19.5 72t-54.5 43q28 11 40.5 37.5t12.5 65.5q0 30 -11 51.5t-29.5 36t-43.5 21.5t-53 7q-26 0 -51.5 -7t-45.5 -21.5t-32 -36t-12 -51.5q0 -37 14 -64t40 -39q-35 -13 -54.5 -43t-19.5 -72zM113 287q0 26 18.5 41
t50.5 15q31 0 49 -15t18 -41q0 -32 -17.5 -51t-49.5 -19q-35 0 -52 19t-17 51zM98 91q2 73 83 73q38 0 60.5 -19.5t22.5 -52.5q0 -35 -22.5 -55t-60.5 -20q-39 0 -61 20.5t-22 53.5z" />
    <glyph glyph-name="nineinferior" unicode="&#x2089;" horiz-adv-x="372" 
d="M28 -12q29 -19 63 -29.5t87 -10.5q43 0 74.5 17t52.5 47.5t31 73.5t10 96q0 227 -166 227q-73 0 -115 -39.5t-42 -109.5q0 -31 10.5 -58.5t29.5 -48.5t46.5 -33t62.5 -12q32 0 55.5 12t38.5 34q-3 -66 -25 -99.5t-67 -33.5q-18 0 -32 2t-27 5.5t-26 10t-29 15.5zM180 336
q39 0 60 -20t21 -60q0 -35 -23 -56t-61 -21q-71 0 -71 77q0 40 19.5 60t54.5 20z" />
    <glyph glyph-name="zerosuperior" unicode="&#x2070;" horiz-adv-x="428" 
d="M40 502q0 -234 174 -234t174 234q0 227 -174 227t-174 -227zM125 502q0 83 21.5 119t67.5 36q45 0 67.5 -36t22.5 -119q0 -85 -22.5 -123.5t-67.5 -38.5q-46 0 -67.5 38.5t-21.5 123.5z" />
    <glyph glyph-name="foursuperior" unicode="&#x2074;" horiz-adv-x="415" 
d="M386 446h-69v279h-92l-197 -277v-69h207v-99h82v99h69v67zM107 446l128 183v-183h-128z" />
    <glyph glyph-name="fivesuperior" unicode="&#x2075;" horiz-adv-x="395" 
d="M133 654h202v67h-268v-258h64q8 20 26.5 31t44.5 11q41 0 59.5 -20.5t18.5 -57.5q0 -38 -20.5 -61.5t-61.5 -23.5q-34 0 -59 7.5t-57 27.5l-33 -68q29 -21 66.5 -31t82.5 -10q78 0 121.5 40t43.5 112q0 30 -9.5 56.5t-27.5 47t-45 32t-62 11.5q-53 0 -86 -26v113z" />
    <glyph glyph-name="sixsuperior" unicode="&#x2076;" horiz-adv-x="392" 
d="M354 689q-29 19 -63 29.5t-87 10.5q-43 0 -74.5 -17t-52.5 -47.5t-31 -74t-10 -95.5q0 -227 166 -227q73 0 115 39.5t42 109.5q0 31 -10.5 58.5t-29.5 48.5t-47 33t-62 12q-32 0 -55 -12t-38 -34q3 66 24.5 100t66.5 34q18 0 32 -2t27 -5.5t25.5 -10t29.5 -15.5zM202 342
q-39 0 -60 19.5t-21 59.5q0 35 23 56.5t61 21.5q71 0 71 -78q0 -79 -74 -79z" />
    <glyph glyph-name="sevensuperior" unicode="&#x2077;" horiz-adv-x="377" 
d="M60 725v-67h195l-152 -378h90l151 383v62h-284z" />
    <glyph glyph-name="eightsuperior" unicode="&#x2078;" horiz-adv-x="383" 
d="M32 395q0 -57 44 -92t116 -35t115.5 35t43.5 92q0 42 -19.5 72t-54.5 43q28 11 40.5 37.5t12.5 65.5q0 30 -11 51.5t-29.5 36t-43.5 21.5t-53 7q-26 0 -51.5 -7t-45.5 -21.5t-32 -36t-12 -51.5q0 -37 14 -64t40 -39q-35 -13 -54.5 -43t-19.5 -72zM123 607q0 26 18.5 41
t50.5 15q31 0 49 -15t18 -41q0 -32 -17.5 -51t-49.5 -19q-35 0 -52 19t-17 51zM108 411q2 73 83 73q38 0 60.5 -19.5t22.5 -52.5q0 -35 -22.5 -55t-60.5 -20q-39 0 -61 20.5t-22 53.5z" />
    <glyph glyph-name="ninesuperior" unicode="&#x2079;" horiz-adv-x="392" 
d="M38 308q29 -19 63 -29.5t87 -10.5q43 0 74.5 17t52.5 47.5t31 73.5t10 96q0 227 -166 227q-73 0 -115 -39.5t-42 -109.5q0 -31 10.5 -58.5t29.5 -48.5t46.5 -33t62.5 -12q32 0 55.5 12t38.5 34q-3 -66 -25 -99.5t-67 -33.5q-18 0 -32 2t-27 5.5t-26 10t-29 15.5zM190 656
q39 0 60 -20t21 -60q0 -35 -23 -56t-61 -21q-71 0 -71 77q0 40 19.5 60t54.5 20z" />
    <glyph glyph-name="bullet" unicode="&#x2022;" horiz-adv-x="439" 
d="M75 282q0 -30 11 -56t30.5 -46t46 -31.5t56.5 -11.5t56.5 12t46 32t31 46t11.5 55t-11.5 55.5t-31 46t-46 31t-55.5 11.5q-30 0 -56 -11.5t-46 -31t-31.5 -45.5t-11.5 -56z" />
    <glyph glyph-name="ellipsis" unicode="&#x2026;" horiz-adv-x="669" 
d="M65 59q0 -31 20 -51t51 -20t51.5 20t20.5 51t-20.5 51.5t-51.5 20.5t-51 -20.5t-20 -51.5zM263 59q0 -31 20 -51t51 -20t51.5 20t20.5 51t-20.5 51.5t-51.5 20.5t-51 -20.5t-20 -51.5zM461 59q0 -31 20 -51t51 -20t51.5 20t20.5 51t-20.5 51.5t-51.5 20.5t-51 -20.5
t-20 -51.5z" />
    <glyph glyph-name="bullet.case" horiz-adv-x="439" 
d="M75 332q0 -30 11 -56t30.5 -46t46 -31.5t56.5 -11.5t56.5 12t46 32t31 46t11.5 55t-11.5 55.5t-31 46t-46 31t-55.5 11.5q-30 0 -56 -11.5t-46 -31t-31.5 -45.5t-11.5 -56z" />
    <glyph glyph-name="exclamdown.case" horiz-adv-x="271" 
d="M64 624q0 -31 20 -51.5t51 -20.5t51.5 20.5t20.5 51.5t-20.5 51t-51.5 20t-51 -20t-20 -51zM78 -47h114l-13 540h-88z" />
    <glyph glyph-name="periodcentered.case" horiz-adv-x="273" 
d="M65 307q0 -31 20 -51t51 -20t51.5 20t20.5 51t-20.5 51.5t-51.5 20.5t-51 -20.5t-20 -51.5z" />
    <glyph glyph-name="questiondown.case" horiz-adv-x="512" 
d="M359 624q0 31 -20 51t-51 20t-51.5 -20t-20.5 -51t20.5 -51.5t51.5 -20.5t51 20.5t20 51.5zM417 107q-21 -13 -38.5 -21.5t-35.5 -14t-37.5 -7.5t-43.5 -2q-38 0 -63.5 20.5t-25.5 65.5q0 31 12.5 53t31 40.5t40 36t40 39.5t31 52.5t12.5 73.5v50h-106v-50
q0 -32 -13.5 -56t-33 -44.5t-43 -39.5t-43 -41t-33 -49t-13.5 -62q0 -48 16.5 -84t44.5 -59.5t65 -35.5t78 -12q61 0 111.5 14t86.5 44z" />
    <glyph glyph-name="braceleft.case" horiz-adv-x="479" 
d="M354 770q-50 0 -81 -8.5t-48 -31.5t-23.5 -65t-6.5 -108v-43q0 -22 -4 -45.5t-14.5 -42.5t-28.5 -31.5t-47 -13.5h-34v-83h32q30 0 48.5 -10.5t29 -28.5t14 -43t4.5 -54v-43q0 -66 6.5 -107t24 -64.5t48.5 -32t80 -8.5h61v83h-19q-29 0 -47.5 4.5t-29 17t-14.5 35.5
t-4 61v58q0 43 -4 72.5t-12.5 48.5t-22 30.5t-32.5 20.5q19 7 32.5 19t22 31.5t12.5 49t4 72.5v58q0 36 3.5 59.5t14 36.5t29.5 18t49 5h18v83h-61z" />
    <glyph glyph-name="braceright.case" horiz-adv-x="479" 
d="M64 770v-83h18q30 0 48.5 -5t29 -18t14.5 -36.5t4 -59.5v-58q0 -43 4 -72.5t12.5 -49t22 -31.5t32.5 -19q-19 -9 -32.5 -20.5t-22 -30.5t-12.5 -48.5t-4 -72.5v-58q0 -38 -4 -61t-14.5 -35.5t-29 -17t-47.5 -4.5h-19v-83h61q49 0 80 8.5t48.5 32t24 64.5t6.5 107v43
q1 29 4.5 54t14 43t29 28.5t48.5 10.5h32v83h-34q-29 1 -47 13.5t-28.5 31.5t-14.5 42.5t-4 45.5v43q0 66 -6.5 108t-23.5 65t-48.5 31.5t-80.5 8.5h-61z" />
    <glyph glyph-name="bracketleft.case" horiz-adv-x="280" 
d="M168 690h78v80h-184v-862h184v81h-78v701z" />
    <glyph glyph-name="bracketright.case" horiz-adv-x="280" 
d="M34 690h78v-701h-78v-81h184v862h-184v-80z" />
    <glyph glyph-name="parenleft.case" horiz-adv-x="293" 
d="M232 -90q-49 105 -73 210.5t-24 227.5q0 106 23 209t76 217h-94q-60 -113 -86.5 -215t-26.5 -211t26 -217t86 -221h93z" />
    <glyph glyph-name="parenright.case" horiz-adv-x="293" 
d="M154 -90q60 113 86 221t26 217t-26.5 211t-86.5 215h-94q53 -114 76 -217t23 -209q0 -122 -24 -227.5t-73 -210.5h93z" />
    <glyph glyph-name="emdash" unicode="&#x2014;" horiz-adv-x="780" 
d="M39 213h702v96h-702v-96z" />
    <glyph glyph-name="endash" unicode="&#x2013;" horiz-adv-x="505" 
d="M39 213h427v96h-427v-96z" />
    <glyph glyph-name="emdash.case" horiz-adv-x="785" 
d="M39 237h707v96h-707v-96z" />
    <glyph glyph-name="endash.case" horiz-adv-x="505" 
d="M39 237h427v96h-427v-96z" />
    <glyph glyph-name="hyphen.case" horiz-adv-x="355" 
d="M39 262h277v96h-277v-96z" />
    <glyph glyph-name="guilsinglleft" unicode="&#x2039;" horiz-adv-x="469" 
d="M272 57h130l-240 200l240 191h-130l-205 -166v-50z" />
    <glyph glyph-name="guilsinglright" unicode="&#x203a;" horiz-adv-x="469" 
d="M402 232v50l-205 166h-130l240 -191l-240 -200h130z" />
    <glyph glyph-name="quotedblbase" unicode="&#x201e;" horiz-adv-x="489" 
d="M130 -116q17 17 33 37t29 42.5t20.5 46.5t7.5 49q0 31 -20.5 51.5t-51.5 20.5t-51 -20.5t-20 -51.5q0 -29 20 -49t51 -22q-6 -11 -14 -23t-16 -21.5t-14.5 -16.5t-8.5 -8zM325 -116q17 17 33 37t29 42.5t20.5 46.5t7.5 49q0 31 -20.5 51.5t-51.5 20.5t-51 -20.5
t-20 -51.5q0 -29 20 -49t51 -22q-6 -11 -14 -23t-16 -21.5t-14.5 -16.5t-8.5 -8z" />
    <glyph glyph-name="quotedblleft" unicode="&#x201c;" horiz-adv-x="409" 
d="M124 726q-17 -17 -33 -37t-29 -42.5t-20.5 -46t-7.5 -48.5q0 -31 20.5 -51.5t51.5 -20.5t51 20.5t20 51.5q0 29 -20 49t-51 22q6 11 14.5 22.5t16.5 21.5t14.5 16.5l8.5 8.5zM319 726q-17 -17 -33 -37t-29 -42.5t-20.5 -46t-7.5 -48.5q0 -31 20.5 -51.5t51.5 -20.5
t51 20.5t20 51.5q0 29 -20 49t-51 22q6 11 14.5 22.5t16.5 21.5t14.5 16.5l8.5 8.5z" />
    <glyph glyph-name="quotedblright" unicode="&#x201d;" horiz-adv-x="409" 
d="M90 480q17 17 33 37t29 42.5t20.5 46t7.5 48.5q0 31 -20.5 51.5t-51.5 20.5t-51 -20.5t-20 -51.5q0 -29 20 -49t51 -22q-6 -11 -14 -22.5t-16 -21.5t-14.5 -16.5l-8.5 -8.5zM285 480q17 17 33 37t29 42.5t20.5 46t7.5 48.5q0 31 -20.5 51.5t-51.5 20.5t-51 -20.5
t-20 -51.5q0 -29 20 -49t51 -22q-6 -11 -14 -22.5t-16 -21.5t-14.5 -16.5l-8.5 -8.5z" />
    <glyph glyph-name="quoteleft" unicode="&#x2018;" horiz-adv-x="214" 
d="M124 726q-17 -17 -33 -37t-29 -42.5t-20.5 -46t-7.5 -48.5q0 -31 20.5 -51.5t51.5 -20.5t51 20.5t20 51.5q0 29 -20 49t-51 22q6 11 14.5 22.5t16.5 21.5t14.5 16.5l8.5 8.5z" />
    <glyph glyph-name="quoteright" unicode="&#x2019;" horiz-adv-x="214" 
d="M90 480q17 17 33 37t29 42.5t20.5 46t7.5 48.5q0 31 -20.5 51.5t-51.5 20.5t-51 -20.5t-20 -51.5q0 -29 20 -49t51 -22q-6 -11 -14 -22.5t-16 -21.5t-14.5 -16.5l-8.5 -8.5z" />
    <glyph glyph-name="quotesinglbase" unicode="&#x201a;" horiz-adv-x="294" 
d="M130 -116q17 17 33 37t29 42.5t20.5 46.5t7.5 49q0 31 -20.5 51.5t-51.5 20.5t-51 -20.5t-20 -51.5q0 -29 20 -49t51 -22q-6 -11 -14 -23t-16 -21.5t-14.5 -16.5t-8.5 -8z" />
    <glyph glyph-name="guillemotleft.case" horiz-adv-x="709" 
d="M272 107h130l-240 200l240 191h-130l-205 -166v-50zM520 107h130l-240 200l240 191h-130l-205 -166v-50z" />
    <glyph glyph-name="guillemotright.case" horiz-adv-x="713" 
d="M398 282v50l-205 166h-130l240 -191l-240 -200h130zM646 282v50l-205 166h-130l240 -191l-240 -200h130z" />
    <glyph glyph-name="guilsinglleft.case" horiz-adv-x="469" 
d="M272 107h130l-240 200l240 191h-130l-205 -166v-50z" />
    <glyph glyph-name="guilsinglright.case" horiz-adv-x="469" 
d="M402 282v50l-205 166h-130l240 -191l-240 -200h130z" />
    <glyph glyph-name="Abreve" unicode="&#x102;" horiz-adv-x="652" 
d="M189 856q0 -68 36.5 -100.5t102.5 -32.5q68 0 103.5 32t35.5 101h-85q0 -37 -14 -52.5t-40 -15.5q-27 0 -41 15.5t-14 52.5h-84zM396 684h-144l-239 -684h127l56 167h261l56 -167h125zM323 564l109 -302h-213z" />
    <glyph glyph-name="florin" unicode="&#x192;" horiz-adv-x="380" 
d="M354 477h-107v60q0 30 4 49.5t21 24.5q10 3 23 2q11 0 23 -4t24 -10l29 83q-32 16 -53 21t-49 5q-41 0 -67.5 -10t-41.5 -30.5t-21 -52t-6 -73.5v-65h-70v-83h70v-420q0 -30 -4 -49.5t-21 -24.5q-10 -3 -22 -2q-24 0 -47 14l-30 -83q16 -8 28.5 -13t24 -8t23.5 -4t26 -1
q41 0 67.5 10t42 30.5t21 52t5.5 73.5v425h107v83z" />
    <glyph glyph-name="Euro" unicode="&#x20ac;" horiz-adv-x="662" 
d="M617 637q-52 30 -112 44.5t-141 14.5q-125 0 -204.5 -68t-104.5 -185h-60v-66h51q-1 -9 -1 -18.5v-19.5v-19.5t2 -18.5h-52v-66h60q23 -115 99.5 -181t198.5 -66q49 0 86.5 3.5t68.5 11t57 18.5t52 26l-40 94q-31 -14 -57 -23.5t-51.5 -15.5t-53.5 -8.5t-63 -2.5
q-72 0 -116.5 37.5t-61.5 106.5h266v66h-276q-2 9 -2 18.5v19.5t0.5 19.5t1.5 18.5h276v66h-265q20 70 67.5 110t120.5 40q35 0 61 -2.5t50 -8.5t48 -15.5t55 -23.5z" />
    <glyph glyph-name="franc" unicode="&#x20a3;" horiz-adv-x="528" 
d="M191 585h325v99h-439v-475h-62v-81h62v-128h114v128h96v81h-96v93h300v94h-300v189z" />
    <glyph glyph-name="lira" unicode="&#x20a4;" horiz-adv-x="561" 
d="M234 97v117h143v74h-143v56h143v74h-143v74q0 56 28 79t78 23q25 0 43.5 -2t35 -6t33 -11t37.5 -17l40 89q-38 25 -84 37t-109 12q-46 0 -85.5 -10.5t-68.5 -34t-45.5 -61t-16.5 -91.5v-81h-87v-74h87v-56h-87v-74h87v-117h-78v-97h466v97h-274z" />
    <glyph glyph-name="cent.case" horiz-adv-x="545" 
d="M465 201q-38 -23 -68.5 -34t-71.5 -13v332q40 -2 71.5 -12t68.5 -33l45 84q-35 26 -82.5 40.5t-102.5 17.5v92h-54v-92q-112 -6 -167.5 -73t-55.5 -191q0 -115 57 -183.5t166 -76.5v-59h54v60q56 3 103 17t82 40zM271 158q-104 18 -104 160q0 144 104 165v-325z" />
    <glyph glyph-name="approxequal" unicode="&#x2248;" horiz-adv-x="672" 
d="M556 474q-20 -18 -34 -28.5t-26 -16.5t-23 -7.5t-25 -1.5q-31 2 -58.5 13t-54 23t-54 21.5t-58.5 9.5q-21 0 -38.5 -2.5t-36 -11t-40.5 -24.5t-51 -42l55 -76q20 18 34 29t26 16.5t23 7t25 1.5q32 -2 59.5 -11.5t54.5 -23.5q27 -12 54 -22t57 -10q21 0 38.5 2.5t36.5 11
t40.5 24.5t50.5 42zM556 284q-20 -18 -34 -28.5t-26 -16.5t-23 -7.5t-25 -1.5q-31 2 -58.5 13t-54 23t-54 21.5t-58.5 9.5q-21 0 -38.5 -2.5t-36 -11t-40.5 -24.5t-51 -42l55 -76q20 18 34 29t26 16.5t23 7t25 1.5q32 -2 59.5 -11.5t54.5 -23.5q27 -12 54 -22t57 -10
q21 0 38.5 2.5t36.5 11t40.5 24.5t50.5 42z" />
    <glyph glyph-name="greaterequal" unicode="&#x2265;" horiz-adv-x="553" 
d="M454 290v60l-355 161v-104l240 -87l-240 -87v-103zM99 -15h355v81h-355v-81z" />
    <glyph glyph-name="infinity" unicode="&#x221e;" horiz-adv-x="752" 
d="M705 260q0 32 -11 59.5t-31.5 47.5t-48.5 31.5t-61 11.5q-26 0 -48.5 -6t-43 -18t-41.5 -31t-44 -45q-47 53 -87 76.5t-89 23.5q-33 0 -61.5 -11.5t-48.5 -31.5t-31.5 -47.5t-11.5 -59.5t11.5 -59t31.5 -47t48.5 -31.5t61.5 -11.5q25 0 47 5.5t43 17.5t42 31t44 45
q23 -26 44 -44.5t42 -30.5t43 -17.5t48 -5.5q33 0 61 11t48.5 31t31.5 47t11 59zM326 260q-33 -38 -60.5 -60t-62.5 -22t-56.5 22.5t-21.5 59.5t21.5 61t56.5 24t62.5 -23.5t60.5 -61.5zM627 260q0 -37 -21.5 -59.5t-56.5 -22.5t-62.5 22t-60.5 60q33 38 60.5 60.5
t62.5 22.5t56.5 -23.5t21.5 -59.5z" />
    <glyph glyph-name="integral" unicode="&#x222b;" horiz-adv-x="393" 
d="M247 537q0 30 4 49.5t21 24.5q10 3 23 2q11 0 23 -4t24 -10l29 83q-32 16 -53 21t-49 5q-41 0 -67.5 -10t-41.5 -30.5t-21 -52t-6 -73.5v-518q0 -30 -4 -49.5t-21 -24.5q-10 -3 -22 -2q-24 0 -47 14l-30 -83q16 -8 28.5 -13t24 -8t23.5 -4t26 -1q41 0 67.5 10t42 30.5
t21 52t5.5 73.5v518z" />
    <glyph glyph-name="lessequal" unicode="&#x2264;" horiz-adv-x="553" 
d="M454 130v103l-240 87l240 87v104l-355 -161v-60zM454 66h-355v-81h355v81z" />
    <glyph glyph-name="minus" unicode="&#x2212;" horiz-adv-x="687" 
d="M596 232v96h-505v-96h505z" />
    <glyph glyph-name="notequal" unicode="&#x2260;" horiz-adv-x="625" 
d="M368 347h162v96h-119l39 89h-90l-39 -89h-226v-96h183l-40 -92h-143v-96h100l-36 -82h90l36 82h245v96h-202z" />
    <glyph glyph-name="partialdiff" unicode="&#x2202;" horiz-adv-x="560" 
d="M139 549q39 26 74 35.5t84 9.5q41 0 71 -22t46.5 -57t18.5 -78t-13 -84q-12 24 -32 42q-17 16 -46 29t-72 13q-54 0 -97 -16t-74.5 -45.5t-51.5 -70t-28 -89.5q-10 -57 -0.5 -99.5t35.5 -71t66.5 -43t92.5 -14.5q65 0 117 25t91.5 71.5t66 112.5t41.5 149
q11 62 4.5 124.5t-33.5 112.5t-75.5 81.5t-121.5 31.5q-61 0 -116.5 -16.5t-90.5 -43.5zM370 216q-4 -29 -17.5 -53t-32.5 -41.5t-42.5 -27.5t-48.5 -10q-47 0 -69.5 25t-24.5 73q-2 33 7 61.5t27 49.5t45 33t62 12q54 0 78.5 -34t15.5 -88z" />
    <glyph glyph-name="perthousand" unicode="&#x2030;" horiz-adv-x="1277" 
d="M152 -29h100l464 739h-100zM43 529q0 -38 9.5 -69.5t29.5 -55t51 -36.5t74 -13q44 0 75 13.5t51 36.5t29 55t9 69q0 78 -38 122.5t-126 44.5q-86 0 -125 -45t-39 -122zM128 529q0 40 17.5 67.5t61.5 27.5t62 -27.5t18 -67.5q0 -49 -17.5 -75.5t-62.5 -26.5t-62 27t-17 75
zM516 162q0 -38 9.5 -69.5t29.5 -55t51 -36.5t74 -13q44 0 75 13.5t51 36.5t29 55t9 69q0 78 -38 122.5t-126 44.5q-86 0 -125 -45t-39 -122zM906 162q0 -38 9.5 -69.5t29.5 -55t51 -36.5t74 -13q44 0 75 13.5t51 36.5t29 55t9 69q0 78 -38 122.5t-126 44.5q-86 0 -125 -45
t-39 -122zM601 162q0 40 17.5 67.5t61.5 27.5t62 -27.5t18 -67.5q0 -49 -17.5 -75.5t-62.5 -26.5t-62 27t-17 75zM991 162q0 40 17.5 67.5t61.5 27.5t62 -27.5t18 -67.5q0 -49 -17.5 -75.5t-62.5 -26.5t-62 27t-17 75z" />
    <glyph glyph-name="product" unicode="&#x220f;" horiz-adv-x="562" 
d="M515 -39v752h-468v-752h114v656h240v-656h114z" />
    <glyph glyph-name="radical" unicode="&#x221a;" horiz-adv-x="666" 
d="M136 208l149 -368h130l204 920h-108l-170 -793l-116 331h-188v-90h99z" />
    <glyph glyph-name="summation" unicode="&#x2211;" horiz-adv-x="605" 
d="M288 304l-241 -345v-86h511v99h-367l216 332l-204 309h344v100h-489v-88z" />
    <glyph glyph-name="asciitilde.case" horiz-adv-x="672" 
d="M556 404q-20 -18 -34 -28.5t-26 -16.5t-23 -7.5t-25 -1.5q-31 2 -58.5 13t-54 23t-54 21.5t-58.5 9.5q-21 0 -38.5 -2.5t-36 -11t-40.5 -24.5t-51 -42l55 -76q20 18 34 29t26 16.5t23 7t25 1.5q32 -2 59.5 -11.5t54.5 -23.5q27 -12 54 -22t57 -10q21 0 38.5 2.5t36.5 11
t40.5 24.5t50.5 42z" />
    <glyph glyph-name="greater.case" horiz-adv-x="643" 
d="M99 90l445 220v60l-445 221v-109l315 -142l-315 -142v-108z" />
    <glyph glyph-name="less.case" horiz-adv-x="643" 
d="M544 90v108l-315 142l315 142v109l-445 -221v-60z" />
    <glyph glyph-name="arrowdown" unicode="&#x2193;" horiz-adv-x="814" 
d="M178 338l-64 -64l293 -293l293 293l-64 64l-185 -191v472h-85v-474z" />
    <glyph glyph-name="arrowleft" unicode="&#x2190;" horiz-adv-x="866" 
d="M471 529l-64 64l-293 -293l293 -293l64 64l-191 186h472v85h-474z" />
    <glyph glyph-name="arrowright" unicode="&#x2192;" horiz-adv-x="866" 
d="M588 342h-474v-85h472l-190 -186l63 -64l293 293l-293 293l-63 -64z" />
    <glyph glyph-name="arrowup" unicode="&#x2191;" horiz-adv-x="814" 
d="M366 455v-474h85v472l185 -190l64 63l-293 293l-293 -293l64 -63z" />
    <glyph glyph-name="uni2196" unicode="&#x2196;" horiz-adv-x="710" 
d="M201 380l335 -334l60 60l-334 333l266 -3v90h-414v-415h90z" />
    <glyph glyph-name="uni2197" unicode="&#x2197;" horiz-adv-x="710" 
d="M506 111h90v415h-414v-90l266 3l-334 -333l61 -60l335 334z" />
    <glyph glyph-name="uni2198" unicode="&#x2198;" horiz-adv-x="710" 
d="M510 191l-335 335l-61 -60l334 -334l-266 4v-90h414v414h-90z" />
    <glyph glyph-name="uni2199" unicode="&#x2199;" horiz-adv-x="710" 
d="M204 460h-90v-414h414v90l-266 -4l334 334l-60 60l-335 -335z" />
    <glyph glyph-name="lozenge" unicode="&#x25ca;" horiz-adv-x="664" 
d="M332 706l-265 -363l265 -363l265 363zM332 111l-158 232l158 225l158 -225z" />
    <glyph glyph-name="dagger" unicode="&#x2020;" horiz-adv-x="486" 
d="M45 463h149v-529h101v529h146v86h-146v185h-101v-185h-149v-86z" />
    <glyph glyph-name="daggerdbl" unicode="&#x2021;" horiz-adv-x="485" 
d="M44 463h149v-197h-149v-86h149v-246h101v246h146v86h-146v197h146v86h-146v185h-101v-185h-149v-86z" />
    <glyph glyph-name="trademark" unicode="&#x2122;" horiz-adv-x="899" 
d="M260 622h113v62h-299v-62h114v-357h72v357zM646 285l113 261v-281h66v419h-64l-136 -297l-141 297h-63v-419h68v276l114 -256h43z" />
    <glyph glyph-name="uni2113" unicode="&#x2113;" horiz-adv-x="399" 
d="M192 261q78 81 119 156.5t41 152.5q0 54 -28.5 87t-82.5 33q-30 0 -54 -9t-41 -29.5t-26 -53.5t-9 -81v-237l-84 -82l38 -46l46 46q0 -53 2.5 -92t13.5 -65t34.5 -39t66.5 -13q24 0 43 4.5t51 15.5l-20 74q-20 -8 -45 -14.5t-44 2.5q-14 5 -17.5 23t-3.5 50v117zM192 546
q0 50 15 67t34 17q17 0 33 -13t16 -42q0 -70 -26.5 -123t-71.5 -107v201z" />
    <glyph glyph-name="uni2117" unicode="&#x2117;" horiz-adv-x="812" 
d="M405 715q-77 0 -143 -30t-115 -80t-76.5 -115.5t-27.5 -137.5q0 -74 29 -140t78.5 -116t115.5 -79t139 -29q72 0 137.5 28t116 77t80.5 115.5t30 143.5q0 75 -29 141t-78.5 115.5t-115.5 78t-141 28.5zM713 352q0 -65 -25.5 -121t-68 -97.5t-98 -65t-116.5 -23.5
q-62 0 -117.5 24.5t-97.5 66.5t-66.5 97.5t-24.5 118.5q0 60 23.5 115.5t64.5 98t97 68t121 25.5q63 0 119 -24t98 -65.5t66.5 -97.5t24.5 -120zM344 296q38 0 67.5 1t62.5 10q83 27 83 110q0 62 -37 94t-106 32h-132v-388h62v141zM410 480q84 0 84 -63q0 -28 -21.5 -43
t-62.5 -15h-66v121h66z" />
    <glyph glyph-name="breve" unicode="&#x2d8;" horiz-adv-x="412" 
d="M67 717q0 -68 36.5 -100.5t102.5 -32.5q68 0 103.5 32t35.5 101h-85q0 -37 -14 -52.5t-40 -15.5q-27 0 -41 15.5t-14 52.5h-84z" />
    <glyph glyph-name="caron" unicode="&#x2c7;" horiz-adv-x="445" 
d="M285 733l-62 -100l-62 100h-94l126 -165h60l125 165h-93z" />
    <glyph glyph-name="circumflex" unicode="&#x2c6;" horiz-adv-x="445" 
d="M378 568l-125 165h-60l-126 -165h94l62 100l62 -100h93z" />
    <glyph glyph-name="dotaccent" unicode="&#x2d9;" horiz-adv-x="233" 
d="M55 645q0 -26 17.5 -43.5t43.5 -17.5t44 17.5t18 43.5t-18 44t-44 18t-43.5 -18t-17.5 -44z" />
    <glyph glyph-name="hungarumlaut" unicode="&#x2dd;" horiz-adv-x="455" 
d="M67 568h71l96 170h-107zM221 568h71l96 170h-107z" />
    <glyph glyph-name="ogonek" unicode="&#x2db;" horiz-adv-x="304" 
d="M216 -118q-14 -7 -22 -8.5t-16 -1.5q-18 0 -25.5 13t-7.5 30q0 24 14.5 50t41.5 55h-55q-38 -35 -58.5 -69t-20.5 -65q0 -33 22.5 -58.5t73.5 -25.5q33 0 74 14z" />
    <glyph glyph-name="ring" unicode="&#x2da;" horiz-adv-x="375" 
d="M75 676q0 -49 30 -79.5t82 -30.5q53 0 83 29.5t30 80.5q0 49 -31 80t-82 31q-52 0 -82 -31t-30 -80zM139 676q0 24 12.5 38t35.5 14q24 0 36 -14t12 -38q0 -23 -12.5 -37t-35.5 -14t-35.5 13.5t-12.5 37.5z" />
    <glyph glyph-name="tilde" unicode="&#x2dc;" horiz-adv-x="472" 
d="M368 693q-14 -14 -23.5 -21.5t-17 -12t-14 -5.5t-14.5 -1q-19 2 -35 9.5t-31 15.5t-30.5 14.5t-32.5 6.5q-15 0 -27.5 -2t-26 -8.5t-29 -18.5t-36.5 -31l48 -61q13 14 22.5 22t17 12.5t14.5 5.5t15 1q18 -1 33.5 -8.5t30.5 -16t31 -15.5t34 -7q15 0 27.5 2t26 9t29 18.5
t35.5 31.5z" />
    <glyph glyph-name="acute.case" horiz-adv-x="301" 
d="M67 746h71l96 170h-107z" />
    <glyph glyph-name="breve.case" horiz-adv-x="412" 
d="M67 856q0 -68 36.5 -100.5t102.5 -32.5q68 0 103.5 32t35.5 101h-85q0 -37 -14 -52.5t-40 -15.5q-27 0 -41 15.5t-14 52.5h-84z" />
    <glyph glyph-name="caron.case" horiz-adv-x="445" 
d="M285 912l-62 -100l-62 100h-94l126 -165h60l125 165h-93z" />
    <glyph glyph-name="circumflex.case" horiz-adv-x="445" 
d="M378 746l-125 165h-60l-126 -165h94l62 100l62 -100h93z" />
    <glyph glyph-name="dieresis.case" horiz-adv-x="390" 
d="M49 803q0 -26 17.5 -43.5t43.5 -17.5t44 17.5t18 43.5t-18 44t-44 18t-43.5 -18t-17.5 -44zM218 803q0 -26 17.5 -43.5t43.5 -17.5t44 17.5t18 43.5t-18 44t-44 18t-43.5 -18t-17.5 -44z" />
    <glyph glyph-name="dotaccent.case" horiz-adv-x="233" 
d="M55 796q0 -26 17.5 -43.5t43.5 -17.5t44 17.5t18 43.5t-18 44t-44 18t-43.5 -18t-17.5 -44z" />
    <glyph glyph-name="grave.case" horiz-adv-x="301" 
d="M174 916h-107l96 -170h71z" />
    <glyph glyph-name="hungarumlaut.case" horiz-adv-x="455" 
d="M67 746h71l96 170h-107zM221 746h71l96 170h-107z" />
    <glyph glyph-name="macron.case" horiz-adv-x="381" 
d="M67 734h247v76h-247v-76z" />
    <glyph glyph-name="ring.case" horiz-adv-x="375" 
d="M75 806q0 -49 30 -79.5t82 -30.5q53 0 83 29.5t30 80.5q0 49 -31 80t-82 31q-52 0 -82 -31t-30 -80zM139 806q0 24 12.5 38t35.5 14q24 0 36 -14t12 -38q0 -23 -12.5 -37t-35.5 -14t-35.5 13.5t-12.5 37.5z" />
    <glyph glyph-name="tilde.case" horiz-adv-x="467" 
d="M368 848q-14 -14 -23.5 -21.5t-17 -12t-14 -5.5t-14.5 -1q-19 2 -35 9.5t-31 15.5t-30.5 14.5t-32.5 6.5q-15 0 -27.5 -2t-26 -8.5t-29 -18.5t-36.5 -31l48 -61q13 14 22.5 22t17 12.5t14.5 5.5t15 1q18 -1 33.5 -8.5t30.5 -16t31 -15.5t34 -7q15 0 27.5 2t26 8.5
t29 18.5t35.5 32z" />
    <glyph glyph-name="caron.salt" horiz-adv-x="316" 
d="M97 494h71l76 170h-107z" />
    <glyph glyph-name="commaaccentcomb" unicode="&#x326;" horiz-adv-x="0" 
d="M67 -220h71l96 170h-107z" />
    <glyph glyph-name="commaaccentcomb.salt" horiz-adv-x="0" 
d="M234 738h-71l-96 -170h107z" />
    </font>
</defs>
</svg>
